<?xml version="1.0" encoding="UTF-8" standalone="no"?>
<svg
   version="1.1"
   width="246.98"
   height="73.531128"
   preserveAspectRatio="none"
   viewBox="0 0 246.98 73.531128"
   id="svg208"
   sodipodi:docname="RUS.svg"
   inkscape:version="1.1.2 (08b2f3d93c, 2022-04-05)"
   xmlns:inkscape="http://www.inkscape.org/namespaces/inkscape"
   xmlns:sodipodi="http://sodipodi.sourceforge.net/DTD/sodipodi-0.dtd"
   xmlns="http://www.w3.org/2000/svg"
   xmlns:svg="http://www.w3.org/2000/svg">
  <defs
     id="defs212" />
  <sodipodi:namedview
     id="namedview210"
     pagecolor="#505050"
     bordercolor="#292929"
     borderopacity="1"
     inkscape:pageshadow="0"
     inkscape:pageopacity="0"
     inkscape:pagecheckerboard="1"
     showgrid="false"
     fit-margin-top="0"
     fit-margin-left="0"
     fit-margin-right="0"
     fit-margin-bottom="0"
     inkscape:zoom="3.0546875"
     inkscape:cx="123.41688"
     inkscape:cy="36.501279"
     inkscape:window-width="1852"
     inkscape:window-height="1016"
     inkscape:window-x="0"
     inkscape:window-y="0"
     inkscape:window-maximized="1"
     inkscape:current-layer="g204" />
  <g
     id="g206"
     transform="translate(-4.51,-91.21582)">
    <g
       stroke="#000000"
       stroke-width="0.98"
       fill="#292929"
       id="g204">
      <path
         d="m 227.8,162.21 0.01,-0.01 0.02,-0.01 0.01,-0.01 -0.01,-0.01 -0.03,0.01 -0.01,0.02 v 0.01 z"
         id="path2"
         style="fill:#292929;fill-opacity:1;stroke:none" />
      <path
         d="m 227.69,162.16 h -0.01 v 0.01 h 0.01 v 0.01 0.02 l 0.01,-0.01 h 0.02 0.01 v -0.02 l -0.01,-0.01 h -0.01 -0.01 z"
         id="path4"
         style="fill:#292929;fill-opacity:1;stroke:none" />
      <path
         d="m 228.01,162 v -0.01 l -0.02,-0.01 h -0.01 l -0.02,0.01 -0.01,0.01 h 0.01 l 0.03,0.01 z"
         id="path6"
         style="fill:#292929;fill-opacity:1;stroke:none" />
      <path
         d="m 228.25,161.89 0.13,-0.06 -0.01,-0.02 -0.04,-0.03 -0.14,0.05 v 0.01 l -0.01,0.05 0.05,0.03 z"
         id="path8"
         style="fill:#292929;fill-opacity:1;stroke:none" />
      <path
         d="m 227.91,161.17 h -0.07 l -0.11,0.22 -0.04,0.02 -0.02,0.05 -0.06,0.07 -0.02,0.05 -0.05,0.07 -0.14,0.12 -0.03,0.06 0.01,0.07 0.08,0.07 0.02,-0.17 0.13,-0.1 0.08,-0.1 0.02,-0.05 0.13,-0.14 0.04,-0.02 0.09,-0.01 0.09,-0.09 h 0.06 l 0.03,-0.06 -0.14,0.01 z"
         id="path10"
         style="fill:#292929;fill-opacity:1;stroke:none" />
      <path
         d="m 229.54,160.38 h 0.13 l 0.04,-0.04 -0.03,-0.05 0.02,-0.04 v -0.03 l -0.01,-0.02 -0.03,-0.02 h -0.04 l -0.07,0.04 -0.2,0.2 -0.13,0.02 h -0.05 l -0.06,-0.12 h -0.03 l -0.03,0.08 0.01,0.07 -0.08,0.04 -0.08,0.09 -0.07,0.03 -0.09,0.11 -0.12,0.09 -0.06,0.09 -0.01,0.09 -0.12,0.1 -0.03,0.05 -0.02,0.1 0.14,-0.12 0.07,-0.02 0.07,-0.12 0.17,-0.15 0.04,-0.05 v -0.06 l 0.03,-0.03 0.09,0.02 0.08,-0.03 0.07,-0.08 0.17,-0.14 0.11,-0.03 z"
         id="path12"
         style="fill:#292929;fill-opacity:1;stroke:none" />
      <path
         d="m 230.29,160.07 0.13,-0.14 0.05,-0.04 0.07,-0.03 0.09,-0.08 0.03,-0.08 0.22,-0.19 h -0.14 l -0.03,0.01 -0.24,0.17 -0.11,0.15 -0.09,0.03 -0.15,0.24 0.06,0.01 z"
         id="path14"
         style="fill:#292929;fill-opacity:1;stroke:none" />
      <path
         d="m 231.87,158.83 0.19,-0.25 h -0.03 l -0.05,0.03 -0.09,0.1 -0.12,0.14 -0.1,0.02 0.01,0.02 0.02,0.04 0.04,0.01 z"
         id="path16"
         style="fill:#292929;fill-opacity:1;stroke:none" />
      <path
         d="m 232.62,157.95 -0.02,-0.04 -0.02,0.01 -0.04,0.07 0.01,0.01 0.04,0.01 z"
         id="path18"
         style="fill:#292929;fill-opacity:1;stroke:none" />
      <path
         d="m 233.29,156.9 0.08,-0.07 0.02,-0.04 -0.02,-0.01 h -0.05 l -0.02,0.07 -0.07,0.07 v 0.01 l 0.03,0.02 z"
         id="path20"
         style="fill:#292929;fill-opacity:1;stroke:none" />
      <path
         d="m 233.79,156.35 0.01,-0.03 -0.02,-0.13 0.06,-0.1 0.01,-0.07 -0.05,-0.02 -0.15,0.28 v 0.09 l 0.07,0.03 z"
         id="path22"
         style="fill:#292929;fill-opacity:1;stroke:none" />
      <path
         d="m 234.55,155.31 0.08,-0.16 0.04,-0.12 0.01,-0.12 -0.01,-0.11 -0.07,0.02 -0.08,0.08 -0.08,0.21 -0.06,0.09 -0.17,0.03 -0.07,0.08 h -0.07 l -0.02,0.04 0.03,0.05 v 0.13 l 0.03,0.03 0.08,0.02 0.03,-0.04 0.05,-0.07 0.06,-0.03 0.13,-0.03 z"
         id="path24"
         style="fill:#292929;fill-opacity:1;stroke:none" />
      <path
         d="m 234.88,154.92 0.05,-0.1 v -0.1 l -0.02,-0.01 -0.05,-0.01 -0.11,0.09 -0.04,0.05 0.02,0.04 0.09,0.06 0.03,0.01 z"
         id="path26"
         style="fill:#292929;fill-opacity:1;stroke:none" />
      <path
         d="m 234.36,154.75 v -0.03 l -0.01,-0.07 -0.04,-0.03 -0.07,0.03 0.01,0.04 0.02,0.04 0.02,0.03 z"
         id="path28"
         style="fill:#292929;fill-opacity:1;stroke:none" />
      <path
         d="m 225.55,150.72 -0.04,-0.02 -0.02,0.07 -0.04,0.06 -0.04,0.03 h -0.15 l 0.09,0.15 0.14,0.21 0.03,0.09 -0.02,0.09 -0.03,0.09 0.03,0.01 v 0.06 l -0.09,0.03 -0.03,0.07 0.05,0.06 -0.04,0.1 -0.07,0.04 -0.03,0.01 h -0.04 l -0.09,-0.09 -0.03,-0.01 -0.12,0.04 -0.08,0.08 -0.02,0.06 0.01,0.23 0.03,0.11 -0.02,0.28 -0.03,0.26 -0.04,0.12 -0.04,0.11 -0.02,0.09 0.01,0.38 0.03,0.1 0.06,0.06 -0.02,0.04 -0.04,0.02 0.04,0.05 0.07,0.06 0.09,0.12 0.06,0.1 0.07,0.23 0.01,0.24 -0.05,0.12 -0.03,0.13 -0.02,0.15 v 0.13 l 0.05,0.21 0.01,0.11 -0.01,0.68 -0.02,0.14 -0.03,0.13 -0.03,0.25 -0.03,0.11 -0.08,0.23 0.01,0.05 0.01,0.05 0.09,0.18 0.08,0.19 0.03,0.29 -0.02,0.11 -0.05,0.1 -0.05,0.11 -0.03,0.11 v 0.04 l 0.01,0.2 0.02,0.11 0.02,0.1 -0.02,0.11 -0.1,0.34 -0.02,0.24 0.06,0.28 0.01,0.08 0.02,0.07 0.03,0.05 0.05,0.05 0.05,-0.08 0.04,-0.09 0.06,-0.27 0.03,-0.1 0.04,-0.09 0.05,-0.09 0.07,-0.06 0.04,-0.01 h 0.04 l 0.03,0.04 0.04,0.05 0.02,0.02 0.15,0.01 0.16,0.03 0.05,0.08 0.01,0.12 0.03,0.14 0.01,0.19 0.02,-0.04 0.02,-0.05 v -0.06 l 0.01,-0.05 0.05,-0.13 v -0.05 l -0.02,-0.16 -0.04,-0.18 -0.03,-0.04 -0.04,-0.01 h -0.05 l -0.06,0.01 -0.03,-0.05 -0.06,-0.16 -0.06,-0.22 -0.04,-0.1 -0.03,-0.04 -0.03,-0.03 -0.04,-0.03 -0.04,-0.03 -0.05,-0.09 -0.06,-0.15 -0.02,-0.05 v -0.15 l 0.02,-0.19 0.05,-0.18 0.22,-0.69 0.04,-0.2 0.05,-0.1 0.09,-0.06 0.1,-0.03 0.24,-0.03 0.06,0.01 0.1,0.03 0.05,0.03 0.06,0.04 0.1,0.15 0.09,0.08 0.09,0.1 0.05,0.08 0.04,0.14 0.03,0.04 -0.01,-0.18 -0.01,-0.06 -0.06,-0.06 -0.11,-0.12 -0.07,-0.14 -0.04,-0.14 -0.03,-0.12 -0.02,-0.13 -0.04,-0.11 -0.07,-0.25 -0.16,-0.41 -0.05,-0.24 -0.14,-0.8 -0.03,-0.04 -0.01,-0.02 v -0.12 l -0.01,-0.07 -0.03,-0.06 -0.06,-0.06 -0.02,-0.06 v -0.12 l -0.03,-0.12 -0.04,-0.1 -0.03,-0.16 0.01,-0.29 0.02,-0.11 0.05,-0.04 0.02,-0.06 0.02,-0.09 v -0.1 -0.3 l -0.03,-0.19 -0.02,-0.09 -0.02,-0.09 -0.09,-0.23 -0.12,-0.35 0.01,-0.02 -0.01,-0.07 0.01,-0.09 0.02,-0.09 0.02,-0.07 -0.01,-0.06 z"
         id="path30"
         style="fill:#292929;fill-opacity:1;stroke:none" />
      <path
         d="m 242.83,150.52 -0.11,-0.15 -0.12,-0.09 -0.08,-0.03 -0.05,-0.07 h -0.05 l 0.03,0.07 0.13,0.12 0.28,0.21 z"
         id="path32"
         style="fill:#292929;fill-opacity:1;stroke:none" />
      <path
         d="m 221.74,149.89 -0.02,-0.01 -0.05,0.02 h -0.06 l -0.13,0.1 -0.06,0.06 0.04,0.01 0.09,-0.02 0.05,0.05 0.05,-0.01 z"
         id="path34"
         style="fill:#292929;fill-opacity:1;stroke:none" />
      <path
         d="m 222.26,149.9 -0.02,-0.02 -0.23,-0.11 -0.02,0.04 -0.08,0.18 -0.03,0.02 -0.08,0.13 -0.02,0.12 0.03,-0.01 0.12,-0.09 0.05,0.05 0.09,0.21 0.04,-0.01 0.05,-0.04 0.05,-0.07 0.06,-0.04 0.02,-0.04 0.02,-0.09 0.06,-0.11 0.07,-0.05 -0.02,-0.03 h -0.1 z"
         id="path36"
         style="fill:#292929;fill-opacity:1;stroke:none" />
      <path
         d="m 241.88,150.2 -0.05,-0.08 -0.07,-0.05 -0.05,-0.07 -0.11,-0.19 -0.01,-0.09 0.03,-0.09 -0.04,-0.01 -0.19,-0.03 -0.07,0.05 -0.06,0.02 0.17,0.12 0.05,0.07 0.01,0.07 0.03,0.05 0.07,0.11 0.07,0.09 0.03,0.03 0.06,0.01 0.04,0.07 0.08,0.09 z"
         id="path38"
         style="fill:#292929;fill-opacity:1;stroke:none" />
      <path
         d="m 230.9,144.96 0.1,-0.1 -0.01,-0.04 -0.03,-0.05 -0.06,0.08 -0.08,0.06 v 0.03 l 0.03,0.03 z"
         id="path40"
         style="fill:#292929;fill-opacity:1;stroke:none" />
      <path
         d="m 239.82,145.51 0.22,-0.19 0.22,-0.12 0.23,-0.07 0.03,-0.11 -0.02,-0.19 -0.04,-0.14 -0.04,-0.01 -0.22,0.17 -0.3,0.11 0.01,0.06 0.01,0.06 -0.04,0.17 -0.1,0.21 -0.1,0.08 v 0.04 l 0.01,0.03 0.02,0.02 z"
         id="path42"
         style="fill:#292929;fill-opacity:1;stroke:none" />
      <path
         d="m 175.85,133.72 0.02,-0.03 0.04,-0.09 -0.04,-0.05 v -0.05 l 0.02,-0.12 -0.11,-0.02 -0.08,-0.05 h -0.13 l -0.08,-0.02 -0.02,0.06 0.13,0.26 0.13,0.13 z"
         id="path44"
         style="fill:#292929;fill-opacity:1;stroke:none" />
      <path
         d="M 5.14,129.32 5,129.24 v 0.46 0.46 0.45 0.45 0.45 0.44 0.43 0.43 0.43 0.42 0.42 0.41 0.41 0.41 0.4 0.4 l 0.2,-0.2 0.05,-0.09 0.08,-0.23 0.04,-0.1 0.07,-0.12 0.01,-0.09 -0.02,-0.11 -0.05,-0.08 -0.13,-0.12 -0.06,-0.07 -0.05,-0.16 0.01,-0.2 0.03,-0.15 0.04,-0.13 0.04,0.09 0.13,-0.02 0.07,-0.03 0.01,-0.1 -0.02,-0.12 0.03,-0.03 0.07,-0.01 0.01,-0.07 0.03,-0.04 0.02,0.05 v 0.2 l 0.06,0.05 0.07,0.04 0.03,-0.02 0.04,-0.02 0.04,-0.06 0.1,-0.2 0.06,-0.08 -0.01,0.14 -0.03,0.2 -0.02,0.06 -0.06,0.07 -0.02,0.15 -0.01,0.04 -0.08,-0.04 H 5.72 l 0.05,0.17 0.06,0.12 0.07,0.11 0.08,0.07 h 0.03 l 0.01,0.02 0.01,0.08 -0.02,0.17 0.01,0.09 0.06,0.07 0.07,0.02 0.42,-0.01 0.15,-0.03 0.21,-0.16 0.08,-0.02 0.09,0.02 0.26,0.09 0.31,0.13 0.12,0.19 0.04,0.2 0.02,0.21 -0.02,0.08 v 0.07 l 0.1,0.1 0.13,0.13 0.03,0.03 0.02,0.05 0.04,0.03 0.09,0.01 0.08,-0.03 h 0.07 l 0.14,0.06 0.18,0.09 0.17,0.13 0.08,0.09 0.14,0.21 0.07,0.06 0.11,0.07 0.05,0.01 0.04,-0.01 0.09,-0.1 0.05,-0.08 0.05,-0.09 0.01,0.08 v 0.07 l -0.04,0.05 v 0.09 l 0.07,0.1 0.08,0.02 0.1,-0.03 0.03,-0.05 0.03,-0.07 -0.02,-0.21 0.03,-0.03 0.08,0.04 0.02,0.06 0.01,0.08 0.03,0.01 0.2,-0.02 0.02,-0.02 -0.01,-0.07 -0.03,-0.07 -0.04,-0.04 -0.08,-0.06 -0.09,-0.04 -0.08,-0.01 -0.03,-0.03 0.01,-0.05 -0.02,-0.07 0.01,-0.04 0.06,-0.05 0.01,-0.05 -0.07,-0.05 -0.07,-0.02 -0.06,0.03 0.02,-0.05 0.04,-0.04 0.07,-0.02 0.08,0.01 0.13,-0.04 0.13,-0.1 0.07,-0.06 0.06,-0.07 -0.01,-0.13 -0.04,-0.13 -0.06,-0.03 -0.07,0.01 -0.06,-0.01 -0.07,-0.04 0.25,-0.04 0.02,-0.05 0.04,-0.2 -0.01,-0.05 -0.05,0.02 -0.08,-0.01 0.02,-0.04 0.02,-0.03 -0.13,-0.19 -0.16,-0.12 0.05,-0.02 0.07,0.01 0.12,0.03 0.08,0.09 0.02,0.06 0.04,0.01 0.07,0.01 0.12,0.04 v 0.06 l 0.03,0.02 0.08,-0.03 0.22,-0.03 0.07,0.01 0.1,0.04 h 0.03 l 0.05,-0.02 0.03,-0.06 -0.05,-0.13 -0.12,-0.12 -0.06,-0.09 -0.04,-0.07 0.02,-0.02 0.03,0.01 0.1,0.11 0.08,0.07 0.08,0.05 0.07,0.04 0.16,0.03 0.07,-0.06 0.01,-0.09 -0.01,-0.19 0.01,-0.07 0.1,-0.1 0.16,-0.13 0.11,-0.05 0.04,0.01 0.04,0.04 0.04,0.01 0.07,-0.1 -0.03,-0.14 -0.08,-0.04 -0.24,-0.01 0.03,-0.05 -0.01,-0.06 -0.03,-0.06 -0.03,-0.04 h -0.04 l -0.09,0.03 -0.08,0.05 0.04,-0.07 0.05,-0.05 -0.02,-0.04 -0.04,-0.03 -0.25,-0.29 -0.15,-0.11 -0.15,-0.14 -0.14,-0.25 -0.15,-0.2 -0.16,-0.07 -0.17,0.02 -0.12,-0.05 -0.12,-0.06 -0.26,-0.07 v 0.06 l 0.29,0.09 0.04,0.05 -0.02,0.04 -0.06,0.01 -0.22,-0.03 -0.07,-0.03 -0.06,-0.07 -0.03,0.01 -0.02,0.04 0.01,0.1 0.02,0.08 -0.05,0.04 -0.06,-0.02 v -0.1 l 0.01,-0.08 0.07,-0.14 0.04,-0.03 0.01,-0.03 -0.23,-0.06 -0.07,-0.05 -0.06,-0.02 -0.14,0.07 H 8.79 l -0.07,0.03 v 0.04 l 0.03,0.03 0.06,0.02 h 0.06 l 0.04,0.06 0.08,0.04 0.05,0.06 0.03,0.12 0.02,0.09 0.01,0.08 -0.04,0.15 -0.06,0.07 -0.06,0.03 0.03,0.09 0.06,0.07 0.12,0.03 0.06,0.06 0.04,0.09 -0.04,0.12 -0.04,0.09 -0.04,0.04 -0.03,0.07 -0.02,0.03 H 9.06 l 0.03,-0.26 -0.05,-0.15 -0.08,0.03 -0.04,0.04 -0.07,0.14 -0.02,0.01 -0.02,-0.05 -0.02,-0.1 -0.02,-0.11 -0.01,-0.07 -0.08,-0.09 -0.04,-0.03 -0.13,-0.01 -0.04,-0.02 0.04,-0.18 0.06,-0.1 L 8.56,133 8.53,132.92 8.5,132.85 8.46,132.69 v -0.19 l 0.05,-0.12 0.01,-0.14 -0.05,-0.1 -0.06,-0.06 -0.04,0.05 -0.04,0.06 -0.02,0.02 -0.15,0.02 0.1,-0.16 -0.01,-0.14 -0.02,-0.08 -0.03,-0.06 -0.02,-0.14 -1.07,-0.8 -0.18,-0.1 -0.08,-0.09 -0.08,-0.04 -0.08,0.01 -0.04,0.03 -0.04,-0.03 0.03,-0.08 0.05,-0.02 -0.11,-0.13 -0.38,-0.33 -0.09,-0.05 0.06,0.09 0.29,0.26 0.05,0.08 -0.09,0.09 -0.09,0.04 0.02,-0.1 -0.02,-0.13 -0.03,-0.06 -0.1,-0.08 -0.16,-0.07 -0.15,-0.08 -0.03,-0.09 -0.01,-0.12 0.1,0.1 0.05,0.04 -0.1,-0.17 -0.13,-0.15 -0.28,-0.13 -0.05,-0.06 -0.08,-0.11 -0.03,-0.01 -0.05,0.02 z"
         id="path46"
         style="fill:#292929;fill-opacity:1;stroke:none" />
      <path
         d="m 174.02,128.18 -0.01,-0.08 -0.08,-0.01 -0.13,0.18 0.02,0.03 0.03,0.04 0.11,0.01 z"
         id="path48"
         style="fill:#292929;fill-opacity:1;stroke:none" />
      <path
         d="m 238.34,129.39 0.02,-0.05 0.01,-0.08 -0.02,-0.09 -0.06,-0.17 -0.02,-0.17 v -0.19 l -0.01,-0.15 0.01,-0.08 0.12,-0.05 0.04,-0.12 0.01,-0.18 -0.07,-0.08 -0.01,-0.01 -0.06,0.08 -0.06,0.11 -0.15,0.14 -0.02,0.12 0.06,0.14 -0.03,0.27 0.01,0.16 0.03,0.06 0.13,0.07 0.06,0.09 v 0.06 l -0.02,0.13 z"
         id="path50"
         style="fill:#292929;fill-opacity:1;stroke:none" />
      <path
         d="m 243.62,128.08 0.03,-0.04 0.01,-0.05 0.03,-0.21 0.02,-0.07 0.06,-0.02 0.01,-0.1 -0.01,-0.05 -0.03,-0.05 -0.7,-0.27 -0.11,0.02 -0.09,0.06 -0.13,0.15 -0.04,0.06 -0.01,0.07 0.02,0.03 0.11,0.09 0.11,0.12 0.14,0.1 0.39,0.18 z"
         id="path52"
         style="fill:#292929;fill-opacity:1;stroke:none" />
      <path
         d="m 173.48,126.16 -0.07,-0.33 0.01,-0.14 -0.02,-0.01 -0.01,0.03 -0.02,0.06 0.01,0.23 0.03,0.12 0.04,0.09 0.04,0.03 z"
         id="path54"
         style="fill:#292929;fill-opacity:1;stroke:none" />
      <path
         d="m 237.82,125.58 -0.05,-0.13 -0.05,-0.09 -0.08,-0.02 -0.01,0.03 v 0.15 l 0.05,0.06 0.1,0.03 z"
         id="path56"
         style="fill:#292929;fill-opacity:1;stroke:none" />
      <path
         d="m 250.22,125.57 0.2,-0.11 0.34,-0.04 0.16,-0.16 0.08,-0.04 v -1.16 l -0.08,0.03 -0.11,0.12 -0.12,0.04 -0.21,0.27 -0.24,0.2 -0.04,0.11 -0.1,0.15 -0.04,0.13 0.02,0.09 0.09,0.38 z"
         id="path58"
         style="fill:#292929;fill-opacity:1;stroke:none" />
      <path
         d="m 222.27,124.13 -0.02,-0.08 -0.05,-0.09 -0.03,-0.01 -0.36,0.02 -0.08,0.05 h -0.02 l -0.04,0.03 -0.01,0.03 0.01,0.06 0.13,0.1 0.05,-0.01 0.04,-0.04 0.04,-0.01 0.04,0.02 0.07,0.08 0.06,0.03 z"
         id="path60"
         style="fill:#292929;fill-opacity:1;stroke:none" />
      <path
         d="m 5.77,123.98 -0.08,-0.04 -0.08,-0.01 -0.1,0.06 -0.1,0.01 -0.1,-0.04 -0.1,0.01 -0.1,0.06 -0.11,0.03 v 0.3 0.46 0.4 l 0.18,0.04 0.16,0.11 H 5.4 l 0.18,-0.04 0.43,-0.16 0.31,-0.05 0.17,-0.06 0.2,-0.21 0.02,-0.11 -0.02,-0.09 -0.04,-0.04 -0.16,-0.12 -0.11,-0.11 -0.05,-0.1 -0.05,-0.06 -0.06,-0.04 -0.09,-0.1 -0.06,-0.03 z"
         id="path62"
         style="fill:#292929;fill-opacity:1;stroke:none" />
      <path
         d="m 181.05,122.4 0.1,-0.04 0.15,-0.19 0.11,-0.05 0.14,-0.15 -0.01,-0.05 -0.05,-0.11 -0.36,-0.18 h -0.12 l -0.14,0.15 -0.08,0.18 -0.07,0.11 -0.17,0.16 -0.02,0.11 0.02,0.05 0.17,0.03 z"
         id="path64"
         style="fill:#292929;fill-opacity:1;stroke:none" />
      <path
         d="m 182.33,121.42 0.02,-0.11 v -0.34 l -0.08,-0.15 -0.04,-0.13 -0.13,-0.13 -0.35,0.47 -0.02,0.1 0.04,0.11 0.13,0.11 0.38,0.1 z"
         id="path66"
         style="fill:#292929;fill-opacity:1;stroke:none" />
      <path
         d="m 179.02,121.07 0.02,-0.08 -0.02,-0.05 -0.01,-0.09 0.06,-0.15 0.15,-0.07 -0.16,-0.11 -0.08,-0.03 -0.13,-0.02 -0.15,0.05 -0.04,0.08 -0.02,0.13 0.05,0.11 0.17,0.15 0.11,0.07 0.03,0.04 z"
         id="path68"
         style="fill:#292929;fill-opacity:1;stroke:none" />
      <path
         d="m 210.18,120.57 -0.02,-0.04 -0.11,-0.12 -0.07,-0.03 -0.14,0.03 -0.09,0.08 0.11,0.18 h 0.15 z"
         id="path70"
         style="fill:#292929;fill-opacity:1;stroke:none" />
      <path
         d="m 176.29,120.56 0.15,-0.06 0.32,-0.1 0.18,-0.03 0.01,-0.12 -0.03,-0.14 -0.1,-0.14 -0.06,-0.07 -0.09,-0.18 -0.06,-0.07 -0.08,-0.07 -0.05,-0.02 -0.41,0.09 -0.13,0.08 -0.11,0.2 0.02,0.32 -0.03,0.13 -0.03,0.1 -0.01,0.1 0.08,0.11 0.05,-0.04 0.13,0.02 h 0.05 z"
         id="path72"
         style="fill:#292929;fill-opacity:1;stroke:none" />
      <path
         d="m 180.45,119.72 -0.35,-0.26 h -0.07 l -0.04,0.08 0.1,0.11 0.29,0.09 z"
         id="path74"
         style="fill:#292929;fill-opacity:1;stroke:none" />
      <path
         d="m 179.59,119.7 0.23,-0.01 0.05,-0.05 0.1,-0.17 -0.01,-0.02 -0.07,-0.04 -0.25,0.08 -0.13,0.16 -0.02,0.11 z"
         id="path76"
         style="fill:#292929;fill-opacity:1;stroke:none" />
      <path
         d="m 225.16,118.63 -0.17,-0.05 -0.17,0.03 -0.26,0.08 -0.08,-0.01 -0.07,0.02 -0.07,0.09 -0.07,0.13 -0.13,0.36 -0.07,0.16 -0.14,0.19 -0.16,0.06 -0.16,0.03 -0.16,0.05 0.07,0.17 h 0.1 l 0.07,-0.02 0.24,-0.17 0.19,-0.04 0.06,0.01 0.29,0.14 0.29,0.19 0.36,0.06 0.15,0.07 h 0.16 l 0.18,0.02 0.24,0.06 0.18,-0.03 0.02,-0.03 -0.02,-0.51 -0.03,-0.15 -0.05,-0.11 -0.48,-0.57 -0.14,-0.12 z"
         id="path78"
         style="fill:#292929;fill-opacity:1;stroke:none" />
      <path
         d="m 213.1,118.74 0.08,-0.09 -0.01,-0.03 -0.06,-0.08 -0.08,-0.03 -0.07,0.04 v 0.04 l 0.02,0.09 0.08,0.07 z"
         id="path80"
         style="fill:#292929;fill-opacity:1;stroke:none" />
      <path
         d="m 185.09,118.19 0.05,-0.04 -0.07,-0.08 -0.25,-0.08 -0.17,0.06 -0.06,0.09 0.24,0.04 0.17,0.09 0.02,-0.03 0.04,0.01 z"
         id="path82"
         style="fill:#292929;fill-opacity:1;stroke:none" />
      <path
         d="m 184.52,118.15 -0.02,-0.06 -0.05,-0.09 -0.06,-0.03 -0.1,0.03 -0.03,0.05 0.03,0.07 0.07,0.06 0.09,0.05 z"
         id="path84"
         style="fill:#292929;fill-opacity:1;stroke:none" />
      <path
         d="m 221.07,118.59 0.04,-0.18 -0.15,-0.26 -0.28,-0.33 -0.17,-0.08 0.01,0.13 0.04,0.05 0.12,0.15 0.06,0.15 0.23,0.33 0.05,0.11 z"
         id="path86"
         style="fill:#292929;fill-opacity:1;stroke:none" />
      <path
         d="m 224.36,118.37 0.02,-0.12 0.04,-0.3 -0.02,-0.1 -0.02,-0.08 -0.07,-0.06 -0.06,-0.02 -0.3,0.02 -0.08,0.02 -0.07,0.05 -0.06,0.13 0.05,0.45 0.16,0.21 h 0.06 z"
         id="path88"
         style="fill:#292929;fill-opacity:1;stroke:none" />
      <path
         d="m 185.92,117.22 0.08,-0.15 -0.14,0.01 -0.09,0.06 -0.1,0.09 0.02,0.06 0.2,0.08 z"
         id="path90"
         style="fill:#292929;fill-opacity:1;stroke:none" />
      <path
         d="m 205.48,117.37 -0.07,-0.11 -0.23,-0.1 -0.59,-0.17 -0.05,0.05 -0.01,0.08 -0.01,0.1 -0.02,0.18 -0.05,0.06 -0.16,-0.03 -0.05,0.02 -0.05,0.04 0.1,0.2 0.18,0.13 0.14,0.14 0.06,0.05 0.4,0.13 0.02,-0.02 0.11,-0.24 0.15,-0.11 0.04,-0.08 0.03,-0.11 0.04,-0.09 z"
         id="path92"
         style="fill:#292929;fill-opacity:1;stroke:none" />
      <path
         d="m 187.21,115.86 -0.03,-0.03 -0.07,0.07 -0.12,0.07 -0.05,0.12 0.09,0.12 h 0.21 l 0.16,0.05 0.06,-0.08 0.07,-0.21 -0.04,-0.11 -0.04,-0.03 -0.18,0.08 z"
         id="path94"
         style="fill:#292929;fill-opacity:1;stroke:none" />
      <path
         d="m 184.15,114.69 v -0.26 h -0.1 l -0.08,0.05 v 0.1 l 0.01,0.14 h -0.05 l -0.09,-0.12 -0.15,0.23 0.02,0.08 0.04,0.02 0.05,0.11 0.03,0.03 0.11,-0.1 0.03,0.14 0.05,0.05 0.05,-0.26 0.09,0.01 0.02,-0.03 v -0.1 z"
         id="path96"
         style="fill:#292929;fill-opacity:1;stroke:none" />
      <path
         d="m 228.31,114.82 -0.03,-0.15 v -0.23 l -0.15,-0.19 -0.06,0.06 -0.07,0.21 -0.06,0.24 -0.05,0.27 -0.02,0.26 0.38,0.22 0.15,0.14 0.15,0.17 0.08,0.04 0.25,0.06 0.08,0.07 0.15,0.2 0.09,0.08 0.14,0.07 0.51,0.07 h 0.37 l 0.17,-0.06 0.34,-0.19 0.17,-0.13 0.04,-0.07 0.12,-0.56 -0.04,-0.02 -0.05,0.02 -0.05,0.1 -0.06,0.05 -0.07,-0.09 -0.1,-0.08 -0.12,-0.15 -0.31,-0.07 -0.39,-0.04 -0.13,0.09 -0.2,-0.03 -0.08,-0.09 0.01,-0.1 0.02,-0.07 -0.01,-0.14 -0.05,-0.07 -0.64,-0.08 -0.04,0.01 -0.26,0.2 z"
         id="path98"
         style="fill:#292929;fill-opacity:1;stroke:none" />
      <path
         d="m 220.9,114.72 0.05,-0.08 -0.04,-0.13 0.01,-0.1 0.13,-0.23 -0.03,-0.05 -0.15,-0.19 -0.04,-0.1 -0.04,-0.19 -0.06,-0.13 -0.06,0.22 -0.02,0.15 -0.02,0.21 0.02,0.16 -0.04,0.22 -0.04,0.09 -0.01,0.2 0.2,0.02 z"
         id="path100"
         style="fill:#292929;fill-opacity:1;stroke:none" />
      <path
         d="m 232.47,112.74 -0.01,-0.12 -0.02,-0.06 -0.03,-0.03 -0.1,0.06 -0.06,0.09 0.15,0.16 z"
         id="path102"
         style="fill:#292929;fill-opacity:1;stroke:none" />
      <path
         d="m 223.7,113.56 -0.21,-0.34 -0.15,-0.17 -0.21,-0.2 -0.07,-0.07 -0.06,-0.15 -0.07,-0.11 h -0.07 l -0.27,0.19 -0.15,0.05 -0.07,0.1 -0.04,0.09 -0.05,0.05 -0.13,0.04 -0.11,0.08 -0.04,0.09 -0.04,0.13 0.06,0.24 0.08,0.18 -0.24,-0.06 -0.06,0.08 -0.04,0.54 0.05,0.56 -0.08,0.01 -0.13,-0.05 -0.02,0.1 0.01,0.15 0.03,0.1 0.15,0.3 0.15,0.18 0.08,0.04 0.08,0.08 0.16,0.36 0.06,0.12 0.06,0.07 0.53,0.26 0.08,0.07 0.08,0.04 0.08,-0.01 0.08,-0.07 0.07,-0.16 0.05,-0.23 0.03,-0.17 0.04,-0.11 0.05,-0.05 h 0.05 l 0.17,0.18 0.18,0.13 0.13,-0.03 0.14,-0.07 0.44,-0.1 0.15,-0.07 0.15,-0.09 0.16,-0.02 0.08,0.1 0.06,0.14 0.07,0.13 0.06,0.05 0.07,0.02 0.1,-0.04 0.11,-0.08 0.23,-0.27 -0.13,-0.24 -0.16,-0.11 -0.06,-0.08 -0.24,-0.57 -0.04,-0.13 -0.03,-0.17 -0.05,-0.56 0.15,-0.09 0.17,-0.08 0.27,0.03 0.04,0.14 -0.01,0.08 -0.08,0.17 -0.09,0.07 -0.03,0.26 0.02,0.3 0.06,0.19 0.07,0.14 0.17,0.26 0.16,0.09 h 0.15 l 0.27,0.11 0.14,-0.04 0.13,-0.12 0.32,-0.44 -0.04,-0.15 -0.06,-0.11 0.05,-0.14 0.15,-0.2 0.23,-0.11 -0.04,-0.09 -0.03,-0.06 -1.07,-0.77 -0.09,0.01 -0.17,0.1 -0.09,0.03 -0.17,-0.04 -0.18,-0.1 -0.14,-0.12 -0.32,-0.39 -0.17,-0.18 -0.18,-0.09 -0.13,0.21 -0.18,0.21 -0.03,0.07 -0.02,0.11 -0.02,0.17 v 0.19 l 0.01,0.13 v 0.14 l -0.04,0.13 -0.05,0.06 -0.1,-0.01 -0.04,-0.02 -0.04,-0.06 -0.03,-0.07 -0.08,-0.29 -0.08,-0.08 -0.08,0.04 z"
         id="path104"
         style="fill:#292929;fill-opacity:1;stroke:none" />
      <path
         d="m 193.96,112.29 -0.17,-0.08 -0.09,0.1 -0.25,-0.07 -0.13,0.13 -0.14,-0.11 -0.04,0.08 -0.01,0.13 0.25,0.06 0.11,0.1 0.18,0.01 0.14,0.1 0.03,-0.16 v -0.1 l 0.09,-0.06 0.07,0.03 0.02,-0.12 z"
         id="path106"
         style="fill:#292929;fill-opacity:1;stroke:none" />
      <path
         d="m 194.18,112.52 0.09,-0.11 0.05,-0.19 -0.01,-0.04 -0.03,-0.08 -0.08,-0.03 -0.03,0.03 v 0.06 l -0.06,0.19 v 0.14 l 0.01,0.04 0.03,0.02 z"
         id="path108"
         style="fill:#292929;fill-opacity:1;stroke:none" />
      <path
         d="m 204.86,111.29 -0.06,-0.07 -0.07,0.08 -0.19,-0.05 -0.03,0.02 0.03,0.07 0.1,0.16 0.1,0.03 0.06,0.16 0.1,0.1 0.03,-0.01 v -0.08 l 0.02,-0.05 0.03,-0.03 -0.01,-0.13 z"
         id="path110"
         style="fill:#292929;fill-opacity:1;stroke:none" />
      <path
         d="m 194.69,111.35 -0.15,-0.31 -0.04,0.05 0.02,0.18 0.06,0.11 0.07,0.02 z"
         id="path112"
         style="fill:#292929;fill-opacity:1;stroke:none" />
      <path
         d="m 229.92,111.17 0.04,-0.05 0.04,-0.2 0.09,-0.11 -0.46,0.11 -0.19,0.2 -0.03,0.09 z"
         id="path114"
         style="fill:#292929;fill-opacity:1;stroke:none" />
      <path
         d="m 193.8,110.07 0.09,-0.13 0.09,-0.18 v -0.08 l -0.02,-0.15 -0.46,0.33 -0.3,0.12 -0.1,0.12 0.07,0.02 0.21,-0.03 0.06,0.09 0.06,0.05 0.16,-0.08 0.08,0.03 0.03,-0.05 z"
         id="path116"
         style="fill:#292929;fill-opacity:1;stroke:none" />
      <path
         d="m 189.17,109.58 0.1,-0.21 0.01,-0.08 -0.04,-0.09 -0.23,0.03 -0.06,0.09 -0.04,0.14 0.03,0.05 0.08,0.08 z"
         id="path118"
         style="fill:#292929;fill-opacity:1;stroke:none" />
      <path
         d="m 201.4,109.41 0.18,-0.08 -0.01,-0.1 -0.02,-0.06 -0.03,-0.03 -0.07,-0.05 h -0.08 l -0.07,0.18 0.02,0.14 z"
         id="path120"
         style="fill:#292929;fill-opacity:1;stroke:none" />
      <path
         d="m 199.62,108.12 -0.43,-0.25 h -0.11 l -0.31,0.32 -0.16,-0.03 -0.14,0.05 -0.35,0.37 -0.75,0.97 -0.15,0.3 -0.08,0.22 -0.13,0.11 -0.06,0.28 0.01,0.23 0.06,0.12 0.06,0.23 -0.06,0.27 -0.05,0.17 0.05,0.08 0.14,-0.02 0.32,0.15 -0.05,0.13 -0.2,-0.11 h -0.17 l -0.15,-0.14 -0.36,0.14 -0.26,-0.03 -0.25,0.05 -0.48,-0.11 -0.04,0.08 0.11,0.15 0.08,0.13 0.25,0.32 0.11,0.1 0.14,0.3 0.02,0.58 -0.08,0.14 -0.08,0.19 -0.05,0.04 -0.07,-0.01 0.11,-0.14 0.06,-0.29 0.06,-0.21 -0.08,-0.14 -0.03,-0.01 -0.04,-0.08 -0.25,-0.19 -0.14,-0.09 -0.15,-0.04 -0.07,-0.06 -0.22,0.18 -0.1,0.04 -0.12,0.09 -0.07,0.13 -0.17,0.03 -0.02,0.14 -0.1,0.14 -0.1,-0.15 -0.1,0.04 -0.22,0.25 -0.26,0.11 0.03,-0.09 0.04,-0.19 -0.06,-0.04 -0.39,0.22 -0.14,0.15 -0.06,-0.05 0.23,-0.33 0.06,-0.21 -0.1,-0.09 -0.24,-0.07 h -0.15 l -0.22,0.07 -0.31,-0.11 -0.05,0.13 -0.08,0.01 -0.2,-0.06 -0.17,0.07 -0.14,0.13 -0.19,-0.13 h -0.07 l -0.11,0.21 -0.09,-0.14 -0.08,0.27 0.03,0.2 0.06,0.02 0.06,-0.03 0.03,-0.09 0.04,-0.04 0.16,0.16 0.04,-0.09 0.07,-0.06 0.08,0.09 0.32,-0.1 -0.06,0.13 -0.35,0.16 -0.65,0.21 -0.13,0.08 -0.39,0.08 -0.25,0.2 h -0.32 l -0.56,0.16 -0.41,0.37 -0.19,-0.04 -0.4,0.28 -0.15,0.21 -0.57,0.43 -0.34,-0.17 -0.12,0.06 -0.05,0.15 0.01,0.12 0.14,-0.01 0.1,0.05 0.12,0.11 -0.03,0.19 -0.26,0.42 -0.12,0.16 -0.15,0.09 -0.31,-0.34 -0.05,0.15 -0.04,0.07 -0.12,-0.03 -0.07,0.25 0.23,0.04 0.21,0.11 0.19,0.17 0.13,0.18 0.14,0.12 0.09,0.1 -0.23,0.1 -0.16,-0.23 -0.09,-0.08 -0.09,-0.01 -0.15,0.07 -0.12,0.27 0.12,0.09 0.27,0.09 0.08,0.12 0.35,0.79 0.09,0.08 0.11,0.03 0.05,0.06 -0.14,0.13 -0.05,0.13 -0.12,0.21 -0.51,0.12 -0.15,0.08 -0.04,0.04 -0.06,0.08 -0.05,0.07 -0.01,0.16 0.04,0.1 0.1,0.09 0.41,0.43 -0.03,0.05 -0.11,-0.08 -0.14,-0.13 -0.15,-0.18 -0.19,-0.13 -0.01,-0.11 -0.01,-0.16 0.01,-0.05 0.02,-0.08 0.18,-0.21 0.19,-0.1 0.22,-0.23 0.23,-0.26 -0.05,-0.09 -0.04,-0.07 -0.21,-0.02 -0.42,0.09 -0.25,0.09 -0.11,0.21 -0.17,0.04 h -0.08 l -0.24,-0.1 -0.21,0.09 -0.52,0.09 -0.08,0.05 -1.18,0.02 -0.24,0.04 -0.6,0.18 -0.02,0.13 0.02,0.09 -0.09,0.15 -0.04,0.14 0.01,0.16 0.01,0.13 0.02,0.18 0.03,0.17 0.09,0.08 0.08,0.06 0.06,0.18 -0.04,0.2 -0.07,0.24 -0.01,0.11 0.04,0.14 0.05,0.29 0.02,0.08 0.19,0.22 0.12,0.07 0.21,0.02 0.14,0.05 0.21,0.14 0.06,0.06 0.02,0.06 0.05,0.24 0.02,0.07 0.22,0.33 0.08,0.05 0.3,0.06 0.1,0.1 0.13,0.31 0.01,0.08 0.02,0.12 -0.02,0.11 -0.01,0.06 -0.05,0.1 -0.13,0.41 -0.08,0.37 0.12,0.24 0.17,0.46 0.05,0.2 0.06,0.26 -0.02,0.16 -0.03,0.1 -0.11,0.15 -0.14,0.05 -0.15,0.09 0.01,0.11 0.03,0.13 -0.02,0.09 -0.02,0.04 -0.08,0.01 -0.07,-0.04 -0.06,-0.1 -0.06,-0.12 0.04,-0.14 0.12,-0.25 0.08,-0.35 0.02,-0.24 -0.01,-0.25 -0.03,-0.17 -0.09,-0.12 -0.09,0.03 -0.1,0.11 -0.1,0.41 -0.13,0.3 -0.02,0.13 v 0.1 l -0.01,0.07 -0.02,-0.23 -0.02,-0.18 0.08,-0.22 0.04,-0.21 -0.01,-0.15 -0.05,-0.25 0.01,-0.12 0.01,-0.08 0.03,-0.35 0.12,-0.07 0.29,-0.28 0.04,-0.06 0.09,-0.24 0.04,-0.09 0.05,-0.14 -0.09,-0.12 -0.08,-0.06 -0.16,-0.03 -0.14,0.01 -0.32,0.11 -0.29,-0.02 -0.1,-0.06 -0.45,-0.49 -0.03,-0.19 -0.03,-0.08 -0.05,-0.02 -0.15,-0.12 -0.35,-0.15 -0.37,-0.36 -0.64,-0.03 -0.18,0.04 -0.17,0.11 -0.16,0.22 -0.08,0.06 -0.1,0.02 -0.02,0.08 -0.02,0.11 0.05,0.08 0.2,-0.09 0.16,0.05 0.09,0.1 0.06,0.21 -0.03,0.1 -0.28,0.15 -0.16,-0.01 -0.33,-0.36 -0.13,-0.06 -0.31,0.06 -0.2,0.17 -0.06,0.04 0.04,0.18 0.08,0.32 0.07,0.19 0.08,0.09 0.3,0.23 0.16,0.08 0.26,0.21 0.15,0.02 0.14,-0.05 0.21,0.12 0.11,0.38 0.08,0.13 0.06,0.07 0.09,0.04 h 0.06 l 0.06,-0.05 0.13,-0.01 -0.05,0.11 -0.05,0.03 -0.28,0.05 -0.14,-0.04 -0.17,-0.12 -0.33,-0.38 -0.41,-0.03 -0.04,0.12 -0.13,-0.16 -0.43,-0.04 -0.26,-0.1 -0.27,-0.16 -0.03,-0.08 -0.01,-0.11 0.1,-0.14 0.03,-0.08 0.02,-0.26 -0.17,-0.35 0.02,-0.32 0.08,-0.05 0.11,-0.42 0.06,-0.14 0.03,-0.04 0.04,-0.1 -0.04,-0.12 -0.03,-0.07 -0.04,-0.17 0.01,-0.13 v -0.15 l -0.09,-0.24 -0.07,-0.26 -0.15,-0.13 h -0.14 l -0.05,0.03 -0.06,0.07 0.08,0.23 0.08,0.21 0.03,0.16 0.03,0.29 -0.01,0.36 -0.02,0.14 -0.05,0.12 -0.12,0.15 -0.22,0.18 -0.12,0.08 -0.25,0.1 -0.19,0.15 -0.4,0.87 0.05,0.13 0.14,0.14 0.1,0.12 0.05,0.1 0.1,0.31 0.4,0.87 0.02,0.15 -0.09,0.27 -0.19,0.35 -0.07,0.2 -0.17,0.74 -0.01,0.19 0.07,0.18 0.11,0.22 0.04,0.17 -0.08,0.42 0.04,0.11 0.1,0.06 0.26,-0.06 0.31,0.1 0.17,-0.05 0.25,-0.23 0.09,-0.03 0.3,0.03 0.44,0.23 0.47,0.3 0.1,0.1 0.12,0.01 0.09,0.51 0.09,0.28 0.03,0.2 0.03,0.21 -0.09,0.05 -0.08,0.02 -0.06,0.06 -0.09,0.34 -0.01,0.17 0.05,0.29 0.39,0.13 0.27,0.07 0.19,0.02 0.04,0.03 0.02,0.04 -0.23,0.02 -0.41,0.04 -0.15,-0.02 -0.06,-0.04 -0.07,-0.1 -0.12,-0.09 -0.05,-0.07 -0.1,-0.08 0.05,-0.29 0.01,-0.69 -0.02,-0.29 -0.09,-0.23 -0.25,-0.34 -0.09,-0.23 -0.1,-0.15 -0.1,-0.03 -0.14,0.03 -0.36,0.14 -0.31,0.08 -0.38,0.21 -0.06,0.17 -0.07,0.44 0.09,0.22 0.08,0.16 0.07,0.26 0.03,0.16 v 0.17 l -0.01,0.23 -0.06,0.13 -0.41,0.5 -0.06,0.16 -0.07,0.43 -0.07,0.15 -0.19,0.24 -0.11,0.09 -0.63,0.43 -0.03,0.09 -0.04,0.3 -0.17,0.13 -0.11,0.01 -0.24,-0.15 -0.14,-0.04 -0.14,-0.01 -0.55,0.04 -0.25,-0.1 -0.19,-0.14 -0.2,-0.05 -0.15,-0.11 -0.03,-0.11 -0.04,-0.14 -0.03,-0.08 -0.02,-0.04 0.04,-0.04 0.1,-0.03 0.36,0.03 0.09,-0.06 0.05,0.03 0.1,0.13 0.13,0.12 0.11,-0.02 0.09,-0.1 h 0.03 l 0.05,0.02 -0.09,0.08 -0.08,0.05 -0.03,0.04 -0.02,0.07 0.13,0.1 0.11,0.05 0.15,-0.05 0.08,-0.1 0.19,-0.14 0.14,0.01 v -0.14 l -0.07,-0.2 -0.05,-0.15 0.2,0.04 0.13,-0.12 0.51,-1.02 0.24,-0.2 0.08,-0.13 0.06,-0.18 0.01,-0.19 -0.03,-0.22 0.01,-0.16 0.09,-0.21 0.13,-0.25 0.09,-0.1 -0.01,-0.09 -0.02,-0.08 -0.25,-0.25 -0.26,-0.2 -0.09,-0.12 -0.07,-0.18 -0.03,-0.21 v -0.14 l 0.02,-0.43 0.04,-0.21 -0.01,-0.61 -0.05,-0.75 -0.04,-0.21 0.06,-0.14 0.07,-0.12 0.03,-0.11 0.02,-0.75 -0.02,-0.3 -0.08,-0.39 -0.35,-0.33 -0.14,-0.33 0.01,-0.11 0.02,-0.08 0.15,-0.13 0.1,-0.19 0.07,-0.28 0.13,-0.42 0.04,-0.14 0.08,-0.59 0.03,-0.32 0.01,-0.48 -0.12,-0.12 -0.12,-0.1 -0.24,-0.09 -0.12,0.02 -0.21,-0.19 -0.08,-0.03 -0.58,0.05 -0.33,-0.02 -0.19,0.04 h -0.11 l -0.06,-0.03 0.01,-0.08 0.03,-0.06 -0.01,-0.05 -0.05,-0.01 -0.15,0.06 -0.24,0.66 -0.15,0.64 -0.15,0.84 -0.09,0.36 -0.14,0.37 -0.21,0.29 -0.29,0.29 -0.18,0.14 -0.24,0.14 -0.11,0.3 -0.08,0.12 0.03,0.09 0.11,-0.05 -0.06,0.21 -0.06,0.13 v 0.08 l 0.02,0.09 0.08,0.05 0.22,-0.09 0.05,0.09 0.05,0.12 -0.03,0.49 -0.06,0.42 -0.01,0.15 0.04,0.1 0.03,0.13 -0.07,0.15 -0.05,0.05 -0.1,-0.02 -0.06,0.35 -0.02,0.2 v 0.16 l 0.02,0.1 0.04,0.1 0.03,-0.08 0.02,-0.11 0.07,-0.08 0.38,0.21 0.1,0.11 0.16,0.1 0.05,0.11 0.03,0.36 0.16,0.33 0.13,0.19 0.08,0.07 0.07,0.02 0.11,-0.07 0.15,0.01 -0.08,0.25 -0.14,0.47 -0.22,0.41 -0.09,0.06 -0.15,-0.16 -0.29,-0.21 -0.06,-0.12 -0.33,-0.33 -0.1,-0.23 -0.17,-0.03 -0.24,-0.11 -0.03,-0.02 v 1 l -0.26,1.57 -0.19,0.62 -0.42,0.48 -1.37,1.72 -0.5,0.57 -0.38,0.12 h -0.21 l -0.8,0.9 -0.43,0.72 -0.28,1.46 -0.1,0.84 -0.04,1.33 -0.17,1.25 -0.02,1.55 0.07,2.67 0.05,1.19 0.16,1.63 0.1,0.75 -0.03,0.7 -0.05,0.74 -0.16,1.07 -0.05,0.67 -0.26,1.07 -0.61,0.27 -0.47,-0.04 -0.45,-0.19 -0.74,-0.19 -0.92,0.04 h -0.71 l -0.07,0.22 h 0.05 l 0.06,0.03 0.09,0.01 0.13,-0.03 0.02,-0.01 0.06,0.02 0.07,0.04 0.06,0.05 0.11,0.16 0.06,0.04 0.12,0.06 0.06,0.05 0.07,0.08 0.03,0.05 0.07,0.09 0.09,0.14 0.01,0.12 0.02,0.09 0.03,0.05 h 0.03 l 0.03,-0.01 0.02,-0.05 0.01,-0.07 v -0.13 l -0.03,-0.11 -0.02,-0.03 -0.02,-0.04 0.02,-0.05 0.05,-0.02 0.06,0.02 0.09,0.06 0.1,0.07 0.13,0.14 0.11,0.09 0.12,0.06 0.1,0.02 0.08,-0.02 0.09,-0.05 0.08,-0.07 0.04,-0.06 0.03,-0.08 0.12,-0.1 0.11,-0.09 0.05,0.02 0.04,0.02 0.12,-0.05 0.04,-0.02 0.11,-0.02 0.11,0.03 0.09,0.1 0.09,0.06 h 0.08 l 0.07,-0.04 0.04,-0.06 0.03,-0.07 0.05,-0.04 v -0.01 l 0.14,0.03 0.09,-0.01 0.01,-0.01 0.12,0.02 0.13,0.1 0.08,0.12 0.1,0.14 0.05,0.04 0.07,0.02 0.05,0.01 0.07,0.02 0.2,0.03 0.02,0.02 0.02,0.02 -0.01,0.08 0.01,0.02 0.16,-0.05 0.04,-0.04 0.05,-0.12 0.05,-0.12 0.03,-0.04 0.04,-0.01 0.04,0.01 0.05,0.07 0.07,0.07 0.09,0.03 0.06,0.01 0.09,0.01 0.2,-0.04 0.2,-0.08 0.11,-0.1 0.05,-0.14 0.03,-0.16 0.05,-0.1 -0.02,-0.1 -0.1,-0.1 -0.03,-0.03 -0.24,-0.05 -0.01,-0.04 -0.01,-0.01 -0.24,-0.09 -0.11,-0.04 -0.03,-0.06 -0.03,-0.07 -0.07,-0.07 -0.14,-0.06 -0.03,-0.05 0.02,-0.05 0.12,-0.05 0.13,-0.11 0.05,-0.03 h 0.12 l 0.11,-0.09 0.07,-0.06 0.04,-0.06 -0.01,-0.06 -0.11,-0.2 -0.03,-0.12 0.02,-0.08 0.06,-0.08 0.04,-0.05 0.04,-0.08 0.03,-0.05 0.1,-0.01 0.14,-0.01 0.09,0.02 0.12,0.01 0.12,0.01 0.06,0.02 0.04,-0.03 0.03,-0.04 v -0.06 l -0.04,-0.06 -0.17,-0.07 -0.08,-0.07 -0.05,0.01 -0.1,-0.02 -0.08,-0.04 -0.08,-0.01 -0.03,-0.06 0.02,-0.08 0.03,-0.05 0.06,-0.02 0.06,0.01 0.06,-0.03 0.02,-0.02 0.01,-0.02 -0.01,-0.04 -0.03,-0.03 -0.05,-0.01 -0.05,0.03 -0.06,0.01 -0.1,-0.03 -0.08,-0.05 v -0.04 l 0.06,-0.06 0.03,-0.05 v -0.07 -0.08 l 0.02,-0.09 0.06,-0.07 0.07,-0.03 0.18,0.06 0.23,0.06 0.04,-0.01 0.01,-0.03 0.02,-0.03 0.32,-0.01 0.06,-0.04 0.03,-0.03 0.3,-0.04 0.04,-0.04 0.04,-0.04 0.07,0.01 0.08,-0.02 0.12,-0.04 0.08,-0.03 h 0.01 l 0.09,0.01 0.11,-0.04 0.02,-0.01 0.02,-0.03 0.09,-0.05 0.18,-0.04 0.04,0.02 0.09,0.01 0.11,-0.02 0.08,-0.03 0.04,0.03 0.07,0.04 0.04,-0.03 0.03,-0.09 0.03,-0.09 0.05,-0.04 0.05,-0.02 0.03,-0.03 0.03,-0.04 0.16,0.01 0.14,-0.09 0.03,0.04 0.18,-0.01 0.23,-0.05 0.14,-0.03 0.23,-0.06 0.11,-0.05 0.15,-0.03 0.15,-0.02 0.09,-0.09 0.08,-0.01 h 0.09 l 0.05,-0.03 0.04,-0.03 0.02,-0.06 -0.01,-0.07 -0.01,-0.05 0.06,-0.04 h 0.1 l 0.06,-0.02 0.12,-0.12 0.09,-0.06 0.09,-0.04 0.19,0.02 0.17,0.02 0.17,0.06 0.08,0.07 0.08,0.06 0.07,0.03 0.07,0.01 0.07,-0.02 0.06,-0.04 0.03,-0.05 0.05,-0.03 0.17,-0.03 0.03,0.06 0.09,0.15 0.05,0.22 0.09,0.28 0.04,0.13 -0.01,0.07 v 0.1 l -0.01,0.11 -0.07,0.12 0.03,0.06 0.17,0.06 0.23,-0.02 0.14,-0.05 0.08,0.01 0.04,-0.03 0.03,-0.09 0.06,-0.02 0.05,0.07 0.05,0.1 0.03,0.07 v 0.08 l 0.02,0.11 0.03,0.02 0.05,-0.04 0.04,-0.02 0.01,-0.03 -0.02,-0.04 v -0.04 l 0.01,-0.04 0.03,-0.01 0.08,0.01 0.11,0.02 0.14,0.15 0.08,0.02 0.03,0.01 0.07,-0.01 0.09,-0.05 0.06,-0.05 0.02,-0.02 h 0.03 l 0.03,0.02 v 0.06 l -0.02,0.08 -0.09,0.07 -0.1,0.06 -0.07,0.12 -0.01,0.13 0.03,0.06 0.02,0.04 0.01,0.06 0.02,0.01 0.04,-0.02 0.12,-0.13 0.06,-0.03 0.09,-0.02 0.14,0.01 0.1,0.04 0.05,0.06 0.05,0.05 0.03,-0.02 0.02,-0.06 v -0.06 l 0.02,-0.05 0.15,-0.12 0.11,-0.08 0.03,-0.01 0.07,0.01 h 0.05 l 0.11,-0.08 0.11,-0.09 0.01,-0.06 v -0.06 l 0.03,-0.02 0.15,-0.02 0.02,-0.01 0.13,-0.06 0.18,-0.11 0.09,-0.06 0.15,-0.03 0.03,-0.02 0.05,-0.04 0.1,-0.06 h 0.06 l -0.04,0.14 -0.06,0.16 -0.03,0.04 h -0.16 v 0.04 l 0.03,0.07 0.01,0.04 0.02,0.03 0.05,0.06 0.16,0.14 0.22,0.18 0.23,0.19 0.16,0.14 0.06,0.07 0.04,0.06 0.12,0.19 0.12,0.19 0.18,0.33 0.17,0.32 0.19,0.34 0.1,0.2 0.22,0.41 0.06,0.13 0.11,0.24 0.1,0.22 0.09,0.2 0.05,0.02 0.01,-0.06 0.01,-0.03 0.02,-0.02 0.07,-0.06 0.03,-0.01 h 0.05 l 0.06,-0.03 0.02,-0.05 -0.02,-0.11 -0.01,-0.05 0.02,-0.05 0.03,-0.02 0.04,-0.01 0.04,-0.01 0.03,-0.06 0.06,-0.02 0.05,0.01 0.05,0.01 0.03,0.04 0.03,0.06 h 0.04 0.07 l 0.01,0.04 -0.02,0.08 -0.03,0.07 v 0.05 l 0.04,0.02 0.13,-0.02 0.05,0.01 0.01,0.05 0.02,0.04 0.01,0.05 -0.02,0.06 0.03,0.03 0.11,0.01 0.08,-0.03 h 0.13 l 0.11,0.06 0.08,-0.01 0.08,-0.03 0.11,0.02 0.08,-0.05 0.06,-0.06 0.01,-0.05 0.03,-0.02 h 0.11 l 0.07,-0.01 0.05,-0.06 0.05,-0.04 h 0.07 0.06 l 0.15,0.06 0.1,0.06 0.09,0.07 0.06,0.05 0.04,0.1 0.07,0.08 0.05,0.09 0.01,0.09 0.05,0.16 0.04,0.05 h 0.05 l 0.07,0.02 0.08,0.02 0.15,0.12 h 0.06 l 0.05,0.03 v 0.06 l -0.01,0.06 0.01,0.06 0.06,0.08 0.04,0.07 0.05,0.09 0.01,0.05 0.04,0.02 0.06,-0.02 0.08,0.02 0.26,0.05 h 0.04 l 0.03,0.06 0.04,-0.01 h 0.04 l 0.06,0.01 0.04,-0.05 0.04,-0.05 0.08,-0.05 0.07,-0.07 0.06,-0.07 0.05,-0.01 0.03,0.03 0.01,0.06 -0.05,0.04 -0.03,0.05 v 0.05 h 0.06 l 0.07,0.08 0.1,0.17 0.03,0.04 0.05,0.03 0.05,0.02 0.06,0.02 0.04,0.08 0.02,0.06 0.06,0.01 0.05,-0.02 0.02,-0.03 0.04,-0.01 0.07,-0.01 0.06,-0.02 h 0.04 v 0 h 0.08 l 0.04,-0.03 0.02,-0.03 0.06,-0.04 0.02,-0.04 v -0.09 l 0.03,-0.07 0.1,-0.02 0.04,-0.02 0.04,0.02 0.07,-0.02 h 0.06 l 0.03,0.02 0.04,0.02 h 0.06 l 0.02,-0.03 v -0.05 l 0.03,-0.02 0.03,0.04 0.02,0.02 0.02,0.01 0.07,-0.03 0.05,-0.03 0.02,-0.06 0.02,-0.04 0.04,0.02 h 0.07 l 0.05,-0.05 0.07,-0.04 0.05,-0.02 0.01,-0.04 -0.02,-0.07 0.01,-0.09 0.07,-0.05 h 0.09 l 0.06,-0.04 0.02,-0.09 0.04,-0.02 0.03,-0.01 0.08,-0.02 0.06,-0.03 0.04,-0.02 0.1,-0.05 0.1,-0.01 0.04,-0.04 0.03,-0.05 0.05,-0.02 0.06,-0.04 0.07,-0.06 h 0.03 l 0.11,-0.04 0.05,-0.01 h 0.03 0.05 l 0.02,-0.06 0.05,-0.04 0.05,-0.02 0.03,-0.04 0.05,-0.05 0.06,-0.04 h 0.11 l 0.1,0.01 0.06,-0.01 0.05,-0.08 0.01,-0.04 0.01,-0.04 0.04,-0.02 0.05,0.07 0.04,0.04 0.06,0.04 0.03,0.04 0.04,0.01 0.04,-0.03 0.03,-0.08 0.05,-0.01 0.06,0.01 0.02,0.04 v 0.03 l 0.03,0.07 0.06,0.05 h 0.08 l 0.03,-0.01 0.08,0.01 0.08,0.01 0.09,0.01 H 192 l 0.09,0.01 0.14,0.01 0.06,-0.01 0.11,0.02 0.03,0.05 0.02,0.12 0.02,0.1 0.01,0.09 0.03,0.05 0.04,0.01 0.02,0.04 0.05,0.04 0.03,0.07 h 0.04 l 0.03,-0.02 h 0.07 0.08 l 0.06,0.04 0.02,0.05 0.04,0.03 0.04,-0.01 h 0.11 0.04 l 0.04,0.03 h 0.05 l 0.03,-0.03 0.1,-0.03 0.06,-0.05 h 0.04 l 0.03,0.03 0.03,0.03 0.03,-0.01 0.02,-0.03 h 0.03 l 0.04,0.02 0.08,0.03 0.06,0.05 0.04,0.01 0.06,-0.02 0.03,-0.01 0.02,0.03 0.04,0.02 0.03,-0.02 0.05,-0.02 0.18,0.03 0.05,0.06 0.03,0.02 0.03,0.05 0.05,0.03 0.1,-0.01 0.04,-0.03 0.08,-0.08 0.04,-0.07 0.04,-0.02 0.05,-0.01 h 0.04 l 0.05,-0.01 0.05,-0.05 0.05,-0.02 0.07,-0.07 0.01,-0.03 0.03,-0.07 0.02,-0.06 0.04,-0.07 0.02,-0.13 0.01,-0.07 -0.01,-0.05 -0.04,-0.03 -0.05,-0.01 -0.05,-0.04 -0.03,-0.04 -0.02,-0.06 -0.03,-0.08 v -0.05 l -0.01,-0.04 -0.02,-0.03 -0.04,-0.07 -0.02,-0.04 v -0.07 l 0.06,-0.13 v -0.05 l 0.01,-0.04 -0.01,-0.03 0.02,-0.08 0.03,-0.03 0.03,-0.08 0.05,-0.03 0.05,-0.01 0.03,-0.02 0.01,-0.08 0.03,-0.06 0.01,-0.04 0.04,-0.05 0.19,-0.09 0.09,-0.12 0.03,-0.06 0.03,-0.12 0.03,-0.05 0.04,0.01 0.05,0.08 h 0.04 l 0.06,0.04 0.16,0.08 0.08,0.03 h 0.06 l 0.07,0.03 0.05,0.05 0.09,0.08 0.08,0.02 h 0.13 l 0.16,0.01 0.05,0.01 0.12,0.06 0.13,0.06 0.13,0.06 0.09,0.04 0.05,0.05 0.06,0.02 0.05,-0.02 h 0.08 l 0.17,0.05 0.11,0.05 0.09,0.03 0.03,0.04 v 0.06 l -0.01,0.05 v 0.12 l 0.03,0.06 0.01,0.08 0.01,0.08 v 0.08 l 0.01,0.04 0.03,0.02 0.03,0.06 -0.01,0.06 -0.01,0.03 V 155 l 0.03,0.05 h 0.05 l 0.04,0.02 0.05,0.06 0.1,0.08 0.05,0.03 0.07,0.03 0.12,0.04 0.08,0.01 0.05,0.03 0.05,0.06 0.08,0.02 0.05,0.02 0.1,0.03 0.06,-0.02 0.05,-0.02 h 0.04 l 0.07,0.02 h 0.08 l 0.07,-0.01 0.05,-0.05 0.07,-0.07 0.08,-0.03 0.08,-0.01 0.07,-0.03 0.19,-0.04 0.08,-0.01 0.07,-0.04 0.05,-0.03 0.08,-0.02 0.11,0.04 0.1,0.03 h 0.13 l 0.08,0.04 0.06,0.04 0.09,0.03 0.11,-0.01 0.14,-0.01 0.09,0.01 0.1,0.07 0.06,0.06 0.06,0.12 0.07,0.05 0.07,0.05 h 0.07 l 0.2,0.01 0.1,0.02 0.09,0.01 0.02,0.03 v 0.08 0.11 0.06 l 0.02,0.03 0.03,0.01 0.01,0.06 0.05,0.03 0.08,0.04 0.13,0.14 0.08,0.05 0.06,0.02 0.08,-0.01 h 0.13 0.22 l 0.14,0.04 0.05,0.03 0.16,0.03 0.16,0.04 0.14,0.03 0.09,-0.05 h 0.07 l 0.07,0.03 0.07,0.06 0.05,-0.01 0.08,-0.02 0.26,-0.15 0.09,-0.05 0.06,0.01 0.06,-0.02 0.04,-0.01 0.11,-0.03 h 0.07 l 0.07,-0.02 h 0.1 l 0.2,-0.1 0.08,-0.02 0.14,0.03 0.07,-0.02 0.08,-0.05 0.09,-0.05 0.03,-0.08 0.05,-0.11 0.1,-0.08 0.09,-0.07 0.09,-0.07 0.11,-0.06 0.1,-0.04 0.13,-0.11 0.1,-0.06 0.05,-0.01 0.06,0.02 0.12,0.01 h 0.08 l 0.05,0.01 0.09,0.05 0.09,0.05 0.06,0.08 0.12,0.12 0.06,0.04 0.05,0.02 0.11,0.01 h 0.08 l 0.06,-0.02 0.09,-0.05 0.14,-0.06 h 0.05 l 0.1,0.03 0.13,0.06 0.06,0.05 0.03,0.05 0.14,0.1 0.09,0.04 0.16,0.07 0.16,0.02 0.15,0.08 0.08,0.02 h 0.04 l 0.21,-0.19 0.18,-0.16 0.21,-0.12 0.15,-0.02 0.12,-0.04 0.07,-0.05 0.05,-0.1 0.01,-0.13 -0.03,-0.08 -0.07,-0.03 -0.02,-0.03 0.03,-0.02 0.03,-0.06 0.02,-0.08 0.04,-0.08 0.07,-0.08 0.04,-0.08 0.01,-0.09 0.04,-0.09 0.07,-0.09 0.05,-0.08 v -0.08 l 0.04,-0.1 0.11,-0.17 0.07,-0.19 0.11,-0.14 0.19,-0.14 0.12,-0.13 0.04,-0.14 v -0.12 l -0.06,-0.11 -0.01,-0.11 0.04,-0.11 -0.03,-0.08 -0.09,-0.05 -0.11,-0.02 -0.13,0.03 -0.07,-0.03 -0.02,-0.1 0.03,-0.08 0.09,-0.06 0.14,-0.14 0.19,-0.23 0.19,-0.13 0.29,-0.04 0.23,-0.07 0.24,-0.08 0.17,-0.04 0.03,0.02 0.09,0.01 0.16,-0.01 0.14,-0.04 0.14,-0.05 0.1,-0.01 0.08,0.03 h 0.04 0.04 0.01 l 0.04,-0.02 0.09,0.04 0.17,0.12 0.11,0.05 0.04,-0.01 0.05,0.03 0.06,0.08 0.06,0.05 0.12,0.02 0.12,0.09 0.05,0.01 0.01,-0.05 0.05,-0.03 0.07,-0.01 0.1,0.04 0.14,0.1 0.08,0.04 0.03,-0.01 0.04,0.01 0.03,0.05 v 0.05 l -0.01,0.03 0.03,0.05 h 0.04 l 0.06,0.02 0.05,0.08 0.04,0.04 0.03,0.03 0.01,0.02 v 0.03 l -0.01,0.02 -0.01,0.04 -0.01,0.03 0.02,0.04 0.08,0.04 0.02,0.03 0.01,0.04 0.02,0.04 0.05,0.05 0.02,0.04 -0.01,0.04 0.02,0.02 0.02,0.03 0.01,0.08 v 0.04 l 0.04,0.05 0.01,0.11 0.03,0.12 0.1,0.16 0.03,0.08 -0.01,0.11 0.01,0.04 0.05,0.03 0.02,0.04 v 0.06 l 0.02,0.04 0.01,0.05 -0.01,0.06 0.01,0.06 0.03,0.03 0.01,0.07 0.01,0.07 0.07,0.13 0.12,0.17 0.07,0.13 0.03,0.09 v 0.08 l -0.03,0.06 v 0.04 l 0.03,0.03 v 0.04 l -0.01,0.04 0.04,0.06 0.14,0.09 -0.06,0.15 -0.01,0.1 0.01,0.11 0.03,0.08 0.06,0.04 0.03,0.05 0.02,0.05 0.07,0.05 0.13,0.05 0.16,0.01 0.2,-0.03 0.12,-0.01 0.04,0.03 0.02,0.03 -0.02,0.05 0.04,0.03 0.08,0.02 0.05,0.03 0.03,0.05 0.04,0.01 0.05,-0.02 h 0.04 l 0.04,0.03 0.03,-0.01 0.02,-0.03 h 0.04 0.04 l 0.02,0.07 0.04,0.04 0.06,0.01 0.08,0.08 0.17,0.24 0.11,0.08 0.11,0.03 h 0.13 l 0.05,0.1 -0.04,0.09 -0.01,0.08 0.03,0.03 0.04,0.1 0.06,0.05 0.02,0.04 0.02,0.05 -0.01,0.09 -0.05,0.13 0.01,0.11 0.08,0.09 0.05,0.09 0.01,0.09 0.02,0.05 0.03,0.02 0.08,-0.01 0.13,-0.03 h 0.1 l 0.07,0.04 0.15,0.01 0.25,-0.04 0.16,-0.01 0.07,0.01 0.05,-0.05 0.06,-0.13 0.04,-0.06 0.05,0.01 0.07,-0.04 0.1,-0.08 0.08,-0.05 0.11,0.01 h 0.11 l 0.08,-0.03 0.06,-0.08 0.12,-0.07 0.25,-0.09 0.06,-0.01 h 0.03 l 0.08,0.02 0.07,0.03 0.07,0.07 0.01,0.05 -0.01,0.05 -0.01,0.04 -0.03,0.04 -0.03,0.06 0.02,0.05 0.04,0.1 0.03,0.07 0.04,0.09 -0.02,0.03 -0.02,0.06 -0.07,0.11 -0.03,0.03 -0.04,0.04 -0.07,0.01 -0.03,0.01 -0.03,0.02 -0.03,0.03 -0.02,0.03 -0.04,0.05 v 0.04 l 0.02,0.07 v 0.06 l -0.04,0.06 -0.03,0.09 -0.01,0.03 -0.02,0.07 -0.01,0.02 -0.01,0.15 -0.04,0.1 -0.06,0.11 0.01,0.07 0.01,0.06 -0.02,0.03 v 0.03 l -0.01,0.06 -0.02,0.02 -0.05,0.04 -0.04,0.05 0.01,0.07 -0.02,0.06 -0.02,0.05 -0.03,0.03 -0.04,0.03 -0.03,0.01 -0.02,0.07 v 0.05 l -0.02,0.05 0.01,0.06 -0.02,0.04 -0.05,0.03 -0.04,0.02 -0.02,0.01 -0.06,0.05 -0.05,0.17 -0.01,0.1 0.01,0.08 -0.07,0.06 -0.05,0.04 -0.03,-0.01 -0.04,-0.02 -0.08,-0.02 -0.04,-0.01 -0.07,-0.03 -0.13,-0.03 -0.13,-0.05 -0.07,-0.02 -0.07,-0.02 -0.04,-0.02 -0.04,-0.06 -0.04,0.02 -0.04,0.07 -0.06,0.03 -0.02,0.07 -0.03,0.05 -0.06,0.07 -0.03,0.03 -0.12,0.04 -0.03,0.02 -0.1,0.01 -0.03,0.02 -0.04,0.04 -0.01,0.04 0.03,0.05 0.04,0.09 0.02,0.06 0.02,0.12 0.09,0.38 -0.03,0.07 -0.02,0.28 v 0.05 0.08 0.06 l 0.02,0.01 0.02,0.02 0.02,0.03 -0.01,0.06 -0.01,0.03 -0.02,0.08 -0.02,0.11 -0.03,0.04 -0.02,0.03 -0.01,0.02 -0.01,0.08 -0.01,0.05 -0.04,0.02 -0.04,0.03 -0.05,-0.01 h -0.05 l -0.05,0.02 -0.1,0.03 -0.06,0.03 -0.03,0.02 -0.02,0.02 v 0.03 l 0.01,0.01 0.06,0.01 0.04,0.05 v 0.05 l -0.04,0.03 0.02,0.06 0.05,0.05 0.02,0.04 v 0.05 l 0.02,0.02 0.03,-0.02 0.07,-0.19 -0.08,-0.12 0.03,-0.02 0.13,0.04 0.05,-0.01 0.09,0.02 0.06,-0.07 0.04,-0.07 0.07,-0.04 0.08,-0.17 0.14,-0.19 0.05,-0.05 0.1,-0.04 h 0.02 l 0.03,0.02 -0.08,0.1 -0.02,0.07 h 0.05 l 0.06,-0.02 0.14,-0.12 0.05,-0.06 0.02,0.07 -0.02,0.33 0.12,-0.03 0.06,0.04 h 0.09 l 0.11,0.07 0.04,-0.01 h 0.05 l 0.04,0.08 0.07,0.02 0.12,-0.06 0.17,-0.06 h 0.09 l 0.2,-0.11 0.1,-0.09 0.37,-0.23 0.15,-0.13 0.15,-0.09 0.09,-0.15 0.15,-0.15 v -0.06 l 0.03,-0.06 0.24,-0.39 0.07,-0.06 0.11,-0.05 0.05,-0.07 0.02,-0.1 0.15,-0.15 0.1,-0.15 0.09,-0.1 0.04,-0.09 0.24,-0.21 0.19,-0.24 0.18,-0.18 0.05,-0.1 0.23,-0.32 0.07,-0.21 0.09,-0.08 0.04,-0.2 0.07,-0.15 0.02,-0.08 0.04,-0.08 0.28,-0.33 0.12,-0.26 0.14,-0.25 0.1,-0.09 0.11,-0.12 0.05,-0.09 0.17,-0.15 0.07,-0.1 0.04,-0.11 0.04,-0.25 0.11,-0.2 -0.04,-0.03 -0.01,-0.07 0.01,-0.07 0.01,-0.04 0.02,-0.06 0.02,-0.07 0.02,-0.05 0.06,-0.27 v -0.18 l -0.04,-0.07 v -0.09 l 0.09,-0.13 0.02,-0.02 v -0.03 l -0.04,-0.03 -0.02,-0.02 -0.04,-0.45 0.03,-0.27 0.09,-0.2 0.01,-0.07 0.02,-0.2 0.1,-0.2 0.06,-0.22 0.14,-0.12 0.09,-0.15 0.07,-0.07 0.01,-0.15 0.07,-0.13 -0.05,-0.07 -0.05,-0.04 -0.11,-0.11 -0.03,-0.07 0.08,-0.13 0.01,-0.11 -0.01,-0.22 -0.11,-0.06 -0.15,-0.16 -0.02,-0.06 h 0.03 l 0.2,0.09 0.1,-0.1 0.05,-0.1 -0.01,-0.12 -0.11,-0.05 -0.14,-0.14 -0.01,-0.04 -0.21,-0.12 -0.24,-0.25 -0.07,-0.22 -0.04,-0.06 -0.22,-0.18 -0.04,-0.05 -0.06,-0.03 -0.27,0.1 -0.14,-0.03 -0.28,-0.12 -0.03,0.03 0.04,0.08 -0.01,0.09 0.01,0.12 -0.01,0.21 -0.03,0.14 -0.1,0.2 -0.04,0.04 -0.09,0.02 -0.05,-0.01 0.03,-0.07 0.08,-0.1 0.11,-0.17 v -0.14 l -0.03,-0.02 h -0.02 l -0.08,0.06 -0.09,0.21 -0.2,0.14 -0.15,0.05 -0.28,0.03 -0.05,-0.01 -0.02,-0.04 0.06,-0.06 0.14,-0.09 0.09,-0.18 0.09,-0.04 0.04,-0.05 -0.15,-0.03 -0.1,-0.07 -0.09,-0.08 0.04,-0.03 0.04,-0.01 0.04,-0.03 0.1,-0.15 -0.09,-0.01 -0.11,0.01 -0.16,0.12 -0.03,0.06 0.05,0.09 0.06,0.03 -0.07,0.24 -0.09,-0.03 -0.09,0.01 -0.06,0.07 -0.06,-0.03 -0.02,-0.15 0.03,-0.15 0.03,-0.34 0.03,-0.11 0.01,-0.13 -0.02,-0.07 -0.06,-0.01 -0.09,0.02 -0.23,-0.01 -0.27,0.04 -0.28,-0.13 -0.08,-0.02 -0.04,-0.02 -0.04,-0.13 0.02,-0.08 0.02,-0.05 0.19,-0.2 0.14,-0.05 0.29,-0.23 0.12,-0.19 0.08,-0.08 0.23,-0.15 0.14,-0.12 0.13,-0.12 0.13,-0.1 0.13,-0.17 0.08,-0.03 0.26,-0.36 0.05,-0.08 0.02,-0.11 0.03,-0.05 0.3,-0.42 0.21,-0.16 0.15,-0.22 0.18,-0.08 0.04,-0.04 0.08,-0.12 0.12,-0.08 0.04,-0.04 0.1,-0.18 0.3,-0.16 0.04,-0.07 0.12,-0.44 0.08,-0.12 0.13,-0.15 0.25,-0.15 0.17,-0.15 0.11,-0.13 0.18,-0.34 0.21,-0.2 0.17,-0.12 0.42,-0.17 0.22,0.03 0.24,-0.09 0.17,0.01 0.25,0.04 0.73,-0.05 0.14,0.05 0.05,0.06 0.07,0.18 0.08,0.04 0.15,-0.07 0.12,-0.28 0.06,-0.04 0.19,0.12 h 0.16 l 0.32,0.14 0.12,-0.03 0.13,-0.14 0.26,-0.03 0.16,0.2 0.16,0.01 0.13,-0.03 0.03,-0.12 -0.05,-0.04 -0.1,0.03 -0.02,-0.1 0.06,-0.11 0.09,0.08 0.14,-0.01 0.05,-0.01 -0.02,-0.05 -0.04,-0.04 -0.04,-0.1 0.16,-0.13 0.09,-0.05 0.15,-0.01 0.38,0.16 0.08,0.02 0.09,0.06 0.15,0.05 -0.09,0.04 -0.04,0.04 0.09,-0.01 0.08,0.05 0.06,0.01 0.03,-0.02 0.03,-0.07 0.05,-0.06 0.04,-0.02 h 0.09 l 0.12,0.03 0.1,0.05 0.21,0.27 0.1,0.05 h 0.11 l 0.04,0.01 0.06,0.08 -0.18,0.08 -0.18,0.02 -0.15,-0.03 -0.26,0.11 0.14,0.28 0.25,0.01 0.27,-0.06 0.05,-0.11 0.11,-0.05 0.05,0.01 0.12,0.09 0.17,0.04 0.04,-0.02 0.13,-0.19 0.08,-0.01 h 0.06 l 0.06,-0.16 0.23,-0.02 0.13,0.15 0.08,0.05 0.16,-0.04 0.09,-0.11 0.06,-0.04 0.16,0.1 0.09,-0.06 0.13,-0.01 0.1,0.01 -0.01,-0.11 0.01,-0.12 -0.13,-0.12 -0.27,-0.12 -0.15,0.08 -0.06,0.01 -0.04,-0.01 -0.04,-0.06 0.04,-0.1 0.04,-0.08 V 144 l 0.01,-0.14 0.07,-0.06 0.03,-0.01 0.1,-0.28 0.27,-0.39 0.31,-0.24 0.2,-0.19 0.09,-0.13 0.14,-0.31 0.2,-0.22 0.09,-0.07 0.1,-0.1 0.03,-0.29 0.08,-0.07 0.07,-0.06 0.13,-0.15 0.2,-0.11 0.06,-0.07 h 0.23 l 0.18,0.06 0.06,-0.01 0.12,-0.09 0.15,0.02 0.19,-0.06 0.17,-0.1 0.08,-0.01 0.07,0.02 0.09,0.15 0.05,0.04 0.04,0.09 0.11,-0.05 0.32,-0.21 h 0.04 l 0.04,0.01 0.01,0.08 v 0.07 l -0.05,0.21 -0.06,0.15 -0.15,0.31 -0.04,0.05 0.02,0.08 0.03,0.15 -0.08,0.16 -0.03,0.08 0.06,0.02 0.09,-0.09 0.12,-0.06 0.07,0.01 0.06,0.02 -0.1,0.28 -0.02,0.14 -0.02,0.05 v 0.08 l 0.08,-0.04 0.05,-0.06 0.08,-0.05 0.2,-0.02 0.1,-0.19 0.08,-0.1 0.79,-0.82 0.14,-0.17 0.08,-0.02 0.07,0.03 h 0.06 l 0.01,-0.06 0.02,-0.03 0.07,0.01 0.05,0.16 0.05,0.07 0.04,-0.01 0.02,-0.02 0.04,-0.06 0.04,-0.05 0.04,-0.08 -0.03,-0.05 -0.14,-0.08 0.01,-0.15 0.07,-0.23 -0.01,-0.15 0.04,-0.15 0.03,-0.08 0.03,-0.04 0.03,-0.05 -0.04,-0.12 0.03,-0.08 0.03,-0.06 0.63,-0.22 0.11,-0.01 0.1,0.04 0.16,0.16 0.17,0.08 0.24,0.03 0.02,0.07 -0.1,-0.02 -0.04,0.02 v 0.06 l -0.01,0.05 -0.06,-0.06 -0.16,-0.03 -0.15,-0.06 -0.04,0.01 -0.22,0.18 -0.05,0.08 -0.09,0.36 -0.01,0.25 -0.03,0.24 -0.09,0.1 -0.03,0.11 -0.03,0.14 0.12,0.06 0.01,0.05 0.01,0.06 -0.08,0.15 -0.18,0.18 -0.02,0.04 -0.03,0.08 0.11,0.16 -0.09,0.05 -0.08,0.04 -0.08,0.07 -0.26,0.02 -0.17,0.18 -0.31,0.17 -0.13,0.09 -0.05,0.07 -0.11,0.26 -0.06,0.11 -0.21,0.17 -0.15,0.25 -0.25,0.29 -0.1,0.04 -0.11,0.07 -0.14,0.21 -0.34,0.35 -0.18,0.43 -0.09,0.14 -0.1,0.12 -0.07,0.12 -0.11,0.12 -0.24,0.19 -0.17,0.15 -0.08,0.1 -0.04,0.1 -0.04,-0.02 -0.16,0.05 -0.21,-0.04 -0.15,0.28 -0.16,0.03 -0.16,-0.07 -0.07,0.03 -0.03,0.03 -0.03,0.04 0.07,0.1 0.04,0.07 0.01,0.07 0.01,0.12 -0.09,0.23 -0.08,0.17 -0.14,0.17 -0.31,0.3 -0.03,0.03 -0.03,0.07 -0.18,0.77 -0.05,0.34 -0.06,0.54 v 0.18 l 0.04,0.4 0.06,0.4 0.13,0.7 0.04,0.21 0.1,0.85 0.01,0.15 0.03,0.14 0.05,0.14 0.09,0.13 0.01,0.16 0.07,0.5 0.01,0.48 0.02,0.11 0.01,0.07 0.09,0.1 0.03,0.11 v 0.08 l 0.02,0.09 0.07,-0.04 0.24,-0.23 0.2,-0.21 0.03,-0.08 0.06,-0.06 0.14,-0.08 0.19,-0.22 0.15,-0.32 0.09,-0.23 0.02,-0.09 0.01,-0.09 -0.01,-0.19 0.03,-0.06 0.05,-0.21 -0.03,-0.06 -0.09,-0.04 0.03,-0.08 0.06,-0.02 0.05,0.04 0.03,0.09 0.05,0.03 0.14,-0.16 0.12,-0.08 0.31,-0.14 0.13,0.01 0.12,0.12 h 0.05 l -0.02,-0.17 -0.07,-0.12 v -0.08 l 0.04,-0.12 -0.03,-0.08 -0.02,-0.06 -0.02,-0.13 0.05,-0.26 0.06,-0.14 0.04,-0.07 0.15,-0.11 0.16,-0.17 0.17,-0.13 0.11,-0.04 0.14,-0.03 0.11,0.1 h 0.22 l 0.07,-0.02 0.17,-0.18 0.09,-0.08 -0.02,-0.16 -0.05,-0.13 -0.12,-0.17 -0.03,-0.08 -0.03,-0.18 -0.01,-0.17 0.04,-0.19 0.1,-0.22 0.11,-0.31 0.04,-0.05 0.13,-0.07 0.09,-0.06 0.04,-0.03 -0.03,-0.17 0.07,-0.07 0.06,-0.04 0.14,0.01 0.05,-0.03 0.06,-0.02 -0.04,0.09 -0.06,0.06 -0.12,0.08 -0.06,0.13 0.14,0.2 0.09,0.04 0.06,-0.01 0.09,-0.12 0.05,-0.04 0.05,-0.07 -0.03,-0.27 -0.03,-0.14 0.01,-0.16 -0.06,-0.04 -0.08,-0.02 -0.09,0.02 -0.05,-0.04 -0.03,-0.07 -0.01,-0.08 0.02,-0.19 -0.01,-0.1 -0.03,-0.17 v -0.06 l 0.01,-0.09 0.12,-0.15 0.11,-0.11 0.05,-0.09 0.02,-0.07 0.01,-0.13 -0.06,-0.06 -0.29,-0.14 h -0.04 l -0.09,0.05 -0.04,0.18 -0.05,0.06 v -0.03 l 0.01,-0.04 -0.15,-0.07 -0.06,-0.06 -0.04,-0.05 -0.03,-0.08 -0.03,-0.13 0.06,-0.25 0.07,-0.23 0.21,-0.34 0.13,-0.12 0.14,-0.19 0.06,-0.03 0.02,-0.03 0.03,-0.04 -0.05,-0.13 0.03,-0.03 0.02,-0.01 0.05,0.02 0.13,-0.23 v -0.29 l 0.03,-0.25 0.03,-0.11 0.03,-0.07 0.06,-0.07 0.06,-0.04 0.07,-0.08 0.04,-0.07 0.03,-0.02 0.09,0.01 0.07,0.02 0.08,0.05 -0.02,0.12 0.1,-0.11 0.08,-0.11 0.05,-0.02 0.06,0.01 0.09,0.09 0.08,0.17 0.05,0.04 h 0.07 l 0.04,-0.02 0.04,-0.12 0.01,-0.21 0.07,-0.03 0.06,-0.02 0.09,-0.09 0.12,-0.05 0.24,-0.16 0.17,-0.18 h 0.11 l -0.03,0.1 -0.01,0.09 -0.04,0.23 -0.04,0.12 -0.02,0.15 0.01,0.08 0.02,0.1 0.06,-0.01 0.04,-0.02 0.08,-0.1 0.35,-0.5 0.18,-0.13 0.27,-0.09 0.09,-0.06 0.26,-0.08 0.23,-0.03 0.14,0.04 h 0.08 l 0.3,-0.05 0.03,0.06 0.24,0.16 0.13,0.24 0.03,0.02 0.02,0.05 0.01,0.09 0.02,0.06 0.03,0.05 0.12,0.12 0.14,0.02 0.03,-0.06 0.02,-0.05 0.06,-0.29 0.05,-0.11 v -0.07 l 0.01,-0.06 0.13,-0.09 0.11,-0.03 0.36,-0.29 0.17,-0.16 0.07,0.01 0.06,-0.04 0.05,-0.05 0.05,-0.02 0.1,-0.12 0.12,-0.09 -0.02,-0.08 0.02,-0.07 0.07,-0.02 0.06,-0.01 0.08,-0.08 -0.01,-0.07 0.03,-0.03 0.04,0.01 0.06,0.02 0.02,-0.02 -0.04,-0.09 -0.03,-0.09 0.04,-0.05 0.13,0.09 h 0.06 l 0.17,-0.21 0.16,-0.23 0.14,0.05 0.21,-0.17 0.1,-0.03 0.16,-0.01 0.07,-0.06 0.07,-0.12 0.05,0.02 0.27,-0.14 0.06,-0.1 0.06,-0.03 0.06,-0.01 0.11,-0.08 0.49,-0.24 0.07,-0.1 0.19,-0.14 0.14,-0.04 0.17,-0.04 0.02,-0.04 -0.12,-0.06 -0.03,-0.04 v -0.05 l 0.01,-0.05 0.03,-0.08 0.04,-0.02 0.06,0.06 h 0.06 l 0.02,-0.05 h 0.03 l 0.02,0.07 -0.03,0.08 -0.02,0.06 v 0.07 l 0.04,0.01 0.21,0.01 0.25,0.05 0.64,0.29 0.06,0.04 0.05,0.01 0.01,-0.11 0.03,-0.11 0.07,-0.06 0.13,-0.16 0.07,-0.11 v -0.12 l -0.04,-0.14 -0.09,-0.03 -0.06,-0.08 -0.03,-0.11 0.05,-0.07 0.05,-0.03 -0.01,-0.11 -0.04,-0.06 -0.2,-0.14 -0.08,-0.1 v -0.08 l -0.08,-0.21 -0.02,0.04 0.01,0.11 -0.03,0.07 -0.04,-0.01 -0.01,-0.06 0.03,-0.13 -0.04,-0.05 -0.13,-0.03 -0.02,-0.04 0.13,-0.07 h 0.04 l 0.03,-0.03 -0.02,-0.27 -0.03,-0.19 -0.08,-0.02 -0.06,-0.05 0.02,-0.12 v -0.07 l -0.07,-0.2 -0.04,-0.09 -0.06,-0.08 -0.04,0.09 -0.03,0.12 -0.06,0.02 h -0.06 l -0.18,-0.13 -0.17,-0.22 -0.02,-0.21 0.04,-0.26 -0.03,-0.04 -0.03,-0.02 -0.23,0.09 -0.14,0.14 -0.07,0.01 -0.16,-0.09 -0.25,0.15 0.06,-0.09 0.04,-0.03 0.05,-0.07 -0.04,-0.12 -0.03,-0.1 -0.06,-0.07 -0.07,-0.03 -0.08,0.06 -0.06,0.07 -0.12,0.07 -0.24,0.05 h -0.16 l -0.27,0.11 h -0.1 l 0.37,-0.15 0.2,-0.01 0.27,-0.1 0.19,-0.19 0.25,0.17 0.09,0.03 0.18,-0.02 0.17,0.1 0.05,-0.03 0.05,-0.09 -0.07,-0.14 -0.05,-0.08 -0.07,-0.03 -0.2,0.02 -0.13,-0.03 -0.08,-0.04 0.05,-0.04 0.14,0.06 0.18,-0.08 0.2,0.11 0.05,0.1 0.06,0.04 0.17,0.24 0.11,0.1 0.37,0.07 0.16,0.11 0.12,-0.04 0.31,-0.24 0.2,-0.07 0.14,-0.16 0.12,-0.18 0.12,-0.05 v -6.87 l -0.09,-0.06 -0.41,-0.47 -0.22,-0.07 -0.01,-0.06 -0.02,-0.07 -0.04,-0.05 -0.27,-0.13 -0.35,-0.08 -0.37,-0.23 -0.32,-0.07 -0.35,-0.24 -0.21,-0.18 -0.13,-0.07 -0.11,-0.02 -0.31,0.09 -0.35,0.01 -0.32,-0.05 -0.26,0.01 -0.14,-0.03 -0.2,-0.11 -0.06,0.04 -0.05,0.2 -0.15,-0.08 -0.13,-0.11 -0.21,-0.09 -0.41,-0.07 -0.49,-0.15 -0.26,-0.04 -0.26,-0.02 0.03,0.34 -0.02,0.16 -0.1,0.21 -0.11,0.13 -0.02,0.11 0.28,0.09 0.09,0.38 0.12,0.24 0.08,0.25 v 0.17 l -0.32,0.42 -0.32,0.05 -0.31,0.02 -0.13,-0.25 -0.07,-0.31 -0.25,-0.16 -0.25,-0.12 -0.11,-0.02 -0.08,-0.07 -0.05,-0.34 -0.06,-0.25 -0.07,-0.1 -0.06,-0.14 -0.07,-0.06 -0.15,-0.02 -0.38,0.36 -0.13,0.11 h -0.05 l -0.57,-0.09 -0.15,-0.08 -0.85,-0.04 -0.24,-0.22 -0.15,-0.03 -0.16,0.06 -0.15,0.02 -0.2,-0.04 -0.17,0.06 -0.39,0.07 -0.15,0.07 -0.15,0.13 -0.28,0.32 -0.04,0.16 v 0.19 l 0.06,0.26 v 0.3 l -0.04,0.11 -0.09,0.05 -0.1,0.32 -0.08,0.17 -0.17,0.05 0.09,-0.13 0.09,-0.09 0.15,-0.48 -0.02,-0.14 -0.12,-0.11 -0.07,-0.11 -0.04,-0.46 -0.03,-0.24 -0.01,-0.29 -0.12,-0.09 -0.43,-0.15 -0.19,-0.11 -0.07,-0.17 0.07,-0.24 v -0.18 l 0.04,-0.16 0.06,-0.12 0.02,-0.18 -0.03,-0.23 -0.04,-0.17 -0.07,-0.2 -0.05,-0.1 -0.26,-0.29 -0.44,-0.3 -0.46,-0.22 -0.4,-0.07 -0.52,-0.04 -0.54,-0.01 -0.21,0.12 -0.38,0.01 -0.42,0.13 -0.43,0.2 h -0.23 l -0.45,0.09 h -0.2 l -0.51,-0.31 0.17,-0.04 0.06,-0.04 -0.23,-0.41 -0.12,-0.15 -0.3,-0.19 -0.12,-0.01 -0.1,0.04 -0.39,0.2 -0.1,0.09 0.19,-0.24 0.1,-0.1 0.1,-0.15 -0.03,-0.1 -0.02,-0.04 -0.37,0.02 -0.02,-0.02 -0.08,-0.13 -0.04,-0.05 -0.24,-0.13 -0.18,-0.05 -0.19,-0.01 -0.03,-0.05 0.03,-0.07 v -0.04 l 0.06,-0.07 0.16,-0.06 0.41,-0.04 0.09,-0.12 -0.01,-0.12 -0.03,-0.09 -0.13,-0.22 -0.18,-0.16 -0.37,-0.2 -0.38,-0.13 -0.66,-0.07 -0.12,0.03 -0.09,0.08 -0.16,0.21 -0.36,0.61 -0.2,0.25 -0.19,0.14 -0.42,0.11 -0.07,-0.03 -0.06,-0.1 0.02,-0.09 0.03,-0.08 0.01,-0.05 -0.02,-0.1 0.01,-0.06 h 0.04 l 0.1,0.07 0.09,0.01 0.24,-0.11 v -0.17 l -0.06,-0.11 0.03,-0.24 v -0.07 l 0.03,-0.04 0.03,0.01 0.17,0.18 0.06,-0.01 0.06,0.02 -0.15,0.42 h 0.07 l 0.2,-0.2 0.14,-0.19 0.14,-0.26 0.02,-0.13 -0.17,-0.01 -1.06,0.09 -0.39,0.19 -0.12,-0.04 -0.08,-0.15 0.13,-0.01 0.15,-0.09 0.13,-0.17 0.08,-0.03 h 0.22 l 0.17,0.07 0.53,0.03 0.01,-0.21 -0.12,-0.06 -0.25,-0.06 -0.15,-0.11 -0.2,-0.06 -0.43,-0.09 -0.18,-0.08 -0.43,-0.07 -0.11,-0.05 -0.99,-0.05 -0.38,-0.16 -0.14,-0.16 -0.34,-0.08 h -0.07 l -0.02,0.05 -0.02,0.06 0.22,0.29 0.01,0.2 0.06,0.1 -0.25,0.16 -0.18,0.06 -0.58,-0.01 -0.08,0.07 -0.23,0.31 v 0.14 l 0.02,0.23 h 0.18 l 0.05,-0.1 0.07,-0.04 0.36,0.04 0.03,0.04 -0.11,0.06 -0.12,0.03 -0.14,0.33 -0.19,0.11 0.13,0.05 0.12,0.09 -0.02,0.41 0.16,0.31 0.04,0.14 -0.24,0.01 -0.22,0.09 h -0.07 l -0.14,-0.24 -0.16,-0.16 -0.07,-0.01 -0.1,0.16 -0.14,-0.09 -0.06,0.01 -0.08,0.07 -0.05,0.09 -0.03,0.13 -0.05,0.07 -0.01,0.1 0.08,0.05 0.05,0.01 0.14,0.07 -0.15,0.03 -0.04,0.05 -0.01,0.05 -0.12,0.08 0.04,0.07 0.05,0.05 0.01,0.05 -0.03,0.02 -0.1,-0.06 -0.1,-0.09 -0.16,-0.2 -0.07,-0.13 -0.13,-0.12 -0.49,-0.33 -0.21,-0.11 -0.15,-0.02 -0.22,0.04 -0.13,0.15 -0.23,0.06 -0.15,0.12 -0.07,0.16 -0.41,0.01 -0.29,-0.12 -0.18,-0.12 -0.2,-0.25 -0.2,-0.32 -0.02,-0.03 -0.02,-0.07 -0.04,-0.16 -0.04,-0.12 -0.07,0.07 -0.16,0.37 -0.06,0.18 -0.09,0.35 -0.07,0.28 -0.01,0.13 0.03,0.1 -0.08,0.09 -0.1,0.21 -0.14,0.42 -0.09,0.15 -0.11,0.13 -0.08,0.05 -0.09,-0.01 -0.08,-0.11 -0.05,-0.28 -0.05,-0.06 -0.06,0.16 -0.09,-0.01 -0.17,-0.11 -0.18,-0.25 -0.18,-0.12 -0.25,-0.6 -0.12,-0.23 -0.06,-0.18 -0.14,-0.02 -0.06,-0.13 0.08,-0.1 0.19,-0.08 0.15,0.01 -0.11,-0.24 -0.06,-0.15 -0.06,-0.08 0.03,0.17 -0.03,0.12 -0.05,0.09 -0.09,0.06 -0.38,-0.73 -0.23,-0.37 -0.12,-0.13 -0.08,-0.23 0.05,-0.05 0.27,0.28 0.19,0.14 0.32,0.38 0.23,-0.03 0.09,-0.17 v -0.33 l -0.09,-0.28 -0.11,-0.11 -0.39,-0.02 -0.09,-0.09 0.06,-0.03 h 0.09 l 0.12,-0.09 0.21,-0.2 0.09,-0.07 -0.01,-0.16 -0.15,-0.22 -0.23,-0.04 -0.05,-0.02 0.09,-0.11 0.08,-0.07 0.14,-0.17 0.03,-0.16 -0.03,0.02 -0.1,-0.01 -0.03,-0.07 0.01,-0.12 -0.1,-0.1 -0.1,-0.07 -0.23,-0.01 0.01,-0.08 0.01,-0.07 -0.1,-0.05 -0.08,-0.1 -0.02,-0.08 -0.02,-0.05 -0.15,-0.08 -0.49,-0.16 -0.05,0.04 -0.08,0.23 -0.19,0.24 -0.15,-0.13 -0.03,-0.01 -0.02,-0.06 0.03,-0.11 0.03,-0.1 -0.04,-0.08 -0.03,-0.02 -0.1,0.07 -0.15,0.05 -0.06,0.07 -0.13,0.05 0.01,-0.18 -0.56,-0.46 -0.18,-0.1 -0.1,-0.01 -0.25,0.11 -0.06,0.05 -0.1,0.16 -0.2,-0.1 -0.06,0.07 -0.07,0.25 0.01,0.25 0.02,0.07 0.02,0.13 0.08,0.2 0.09,0.16 -0.04,0.04 -0.03,0.01 -0.04,0.07 -0.04,0.14 -0.07,0.19 -0.1,0.11 -0.11,-0.02 -0.26,-0.15 -0.06,0.03 -0.02,0.11 0.16,0.09 0.01,0.06 -0.04,0.03 -0.11,0.03 h -0.19 l -0.15,-0.04 -0.1,-0.15 -0.1,-0.02 h -0.26 l -0.25,0.08 -0.27,-0.11 -0.46,0.03 -0.12,-0.02 -0.22,-0.2 -0.32,-0.13 -0.36,-0.3 -0.04,-0.29 0.06,-0.23 h 0.2 l 0.12,-0.04 -0.01,-0.09 -0.03,-0.05 -0.29,-0.12 -0.78,-0.03 -0.55,-0.18 -0.8,-0.07 -0.35,0.23 -0.52,0.06 -0.14,0.12 -0.23,0.07 0.02,0.17 0.11,0.13 0.06,0.03 0.06,0.05 -0.04,0.05 -0.04,0.02 -0.09,0.1 -0.05,0.1 0.01,0.21 -0.02,0.21 -0.09,0.29 -0.07,0.12 -0.07,0.17 0.06,0.15 0.06,0.07 0.17,0.08 0.05,0.05 -0.03,0.04 -0.24,-0.05 -0.09,-0.17 -0.02,-0.09 -0.02,-0.14 0.09,-0.15 0.08,-0.11 0.07,-0.24 0.01,-0.23 v -0.48 l -0.14,-0.11 -0.09,-0.16 0.15,-0.3 0.03,-0.15 -0.06,-0.15 -0.1,-0.32 -0.1,-0.19 -0.07,-0.07 -0.07,-0.04 0.08,0.31 -0.06,0.15 -0.04,0.07 -0.27,0.08 -0.18,0.01 -0.23,-0.09 -0.28,-0.2 -0.07,-0.14 -0.04,-0.21 0.15,-0.09 0.07,-0.06 -0.15,-0.05 -0.14,-0.01 -0.05,0.28 -0.09,-0.02 -0.45,-0.17 -0.13,0.06 -0.14,0.15 -0.07,0.12 -0.07,0.2 0.03,0.14 0.03,0.05 0.23,0.04 0.2,-0.04 0.23,-0.14 0.05,0.05 0.05,0.07 -0.06,0.1 -0.24,0.15 -0.39,0.38 -0.15,0.04 -0.21,-0.08 -0.11,0.21 -0.06,0.05 -0.35,0.15 -0.15,0.02 -0.04,0.1 -0.1,0.02 -0.1,0.05 -0.17,0.15 -0.26,0.03 -0.18,-0.04 -0.43,0.09 -0.11,0.08 -0.07,0.11 -0.04,0.13 -0.06,0.13 -0.25,0.26 -0.2,0.11 -0.18,0.03 0.17,-0.15 0.19,-0.28 0.35,-0.82 0.34,-0.05 0.08,-0.11 0.25,-0.51 0.07,-0.08 0.34,-0.01 0.3,-0.17 0.59,-0.83 0.3,-0.14 0.21,-0.2 0.03,-0.1 0.04,-0.13 -0.03,-0.08 -0.02,-0.07 0.26,-0.15 0.1,-0.22 0.36,-0.21 0.27,-0.28 0.39,-0.22 0.22,-0.29 0.51,-0.43 0.47,-0.74 0.07,-0.42 -0.11,-0.14 -0.14,-0.09 -0.08,-0.21 -0.05,-0.03 -0.14,0.13 -0.16,-0.45 -0.19,-0.26 0.01,-0.04 0.02,-0.01 0.09,0.04 0.34,0.38 0.18,0.05 0.06,0.06 0.03,0.1 -0.02,0.16 0.05,-0.02 0.04,-0.06 0.09,-0.31 0.08,-0.42 -0.01,-0.18 -0.2,0.08 -0.09,-0.62 -0.04,-0.2 -0.07,-0.2 -0.12,-0.02 -0.07,0.05 0.05,0.07 0.06,0.12 -0.04,0.12 -0.03,0.05 -0.16,0.16 -0.11,0.01 0.05,-0.07 0.05,-0.14 -0.04,-0.17 -0.04,-0.09 -0.04,-0.47 -0.14,-0.08 -0.08,-0.07 -0.11,0.03 -0.14,0.12 0.05,-0.11 0.06,-0.18 -0.11,-0.21 -0.1,-0.15 -0.13,-0.05 -0.14,-0.19 -0.19,-0.11 -0.44,-0.11 -0.34,0.14 -0.41,-0.11 -0.5,0.09 h -0.2 l -0.12,-0.06 -0.1,0.06 -0.05,0.17 -0.04,0.27 -0.12,0.14 -0.07,0.04 -0.32,-0.04 -0.22,0.12 -0.1,-0.1 -0.18,0.01 -0.02,-0.23 0.11,0.01 0.06,0.04 0.21,-0.46 0.17,-0.28 0.16,-0.31 -0.1,-0.2 -0.23,-0.13 -0.11,0.01 -0.05,0.05 -0.26,-0.1 -0.13,0.01 -0.22,0.14 -0.07,-0.01 -0.05,-0.3 -0.22,0.02 -0.76,-0.03 0.08,-0.09 0.4,-0.13 0.32,-0.19 0.24,-0.36 0.22,-0.12 -0.05,-0.18 -0.06,-0.13 -0.12,-0.11 -0.28,-0.08 -0.23,-0.14 z"
         id="path122"
         style="fill:#292929;fill-opacity:1;stroke:none" />
      <path
         d="m 201.59,106.56 -0.08,-0.18 -0.05,-0.01 -0.63,0.07 -0.11,0.09 0.4,0.15 0.23,-0.01 0.1,0.14 0.08,-0.09 z"
         id="path124"
         style="fill:#292929;fill-opacity:1;stroke:none" />
      <path
         d="m 200.62,106.31 0.14,-0.13 0.02,-0.05 0.12,-0.01 h 0.02 l 0.01,-0.1 -0.02,-0.08 -0.04,-0.06 -0.12,-0.02 -0.08,0.23 -0.2,0.03 -0.02,0.15 0.09,0.07 z"
         id="path126"
         style="fill:#292929;fill-opacity:1;stroke:none" />
      <path
         d="m 198.3,102.65 0.04,-0.07 0.08,-0.04 0.03,-0.06 -0.04,-0.12 -0.17,-0.22 -0.26,-0.16 -0.09,0.02 -0.04,0.06 -0.03,0.15 v 0.22 l 0.05,0.21 -0.08,0.01 -0.09,-0.04 -0.06,-0.18 -0.06,-0.21 -0.04,-0.01 -0.08,0.04 -0.04,0.04 -0.02,0.14 -0.01,0.21 -0.16,0.08 -0.08,0.11 -0.03,0.17 -0.07,0.12 0.01,0.1 -0.02,0.26 -0.05,0.06 -0.04,0.1 -0.03,0.19 v 0.1 l 0.03,0.3 0.04,0.09 -0.06,0.01 -0.17,-0.04 -0.07,0.03 -0.07,0.12 -0.09,0.26 -0.02,0.16 v 0.2 l -0.03,0.14 -0.04,0.1 -0.02,0.12 -0.05,0.31 -0.02,0.14 -0.24,0.35 -0.09,0.18 -0.07,0.32 -0.1,0.15 0.07,0.12 0.07,0.08 0.24,0.07 0.16,-0.06 0.31,-0.24 0.34,-0.32 0.12,-0.16 0.33,-0.01 0.33,-0.03 0.3,-0.07 0.04,0.08 0.04,0.04 h 0.04 l 0.15,-0.22 0.48,-0.01 0.4,-0.26 0.15,-0.05 0.15,0.03 0.07,-0.04 0.32,-0.5 0.02,-0.33 -0.02,-0.25 -0.04,-0.23 -0.03,-0.16 -0.04,-0.14 -0.09,-0.09 -0.09,-0.04 -0.17,0.07 -0.12,-0.16 0.01,-0.15 -0.02,-0.14 -0.03,-0.05 -0.21,-0.13 -0.06,-0.18 -0.05,-0.22 -0.09,-0.09 h -0.09 l -0.16,0.08 -0.16,0.2 -0.08,0.05 -0.09,0.01 -0.07,0.14 -0.07,0.24 -0.11,0.27 -0.12,0.13 0.03,-0.14 0.2,-0.83 0.03,-0.25 z"
         id="path128"
         style="fill:#292929;fill-opacity:1;stroke:none" />
      <path
         d="m 180.1,101.16 -0.07,-0.05 -0.06,0.08 0.01,0.07 0.06,0.18 0.21,0.12 0.12,0.01 0.01,0.19 0.11,0.01 0.53,-0.04 -0.03,-0.09 -0.13,-0.12 -0.61,-0.33 -0.06,0.11 z"
         id="path130"
         style="fill:#292929;fill-opacity:1;stroke:none" />
      <path
         d="m 196.43,101.3 0.11,-0.21 -0.11,-0.05 -0.05,-0.07 -0.08,0.04 -0.01,0.08 -0.01,0.26 z"
         id="path132"
         style="fill:#292929;fill-opacity:1;stroke:none" />
      <path
         d="m 191.33,101.03 0.17,-0.07 0.16,-0.13 0.15,-0.17 0.15,-0.13 0.14,-0.34 -0.22,-0.15 -0.61,-0.21 -0.28,-0.2 -0.29,-0.02 -0.23,0.01 -0.13,0.07 -0.11,0.2 0.04,0.3 0.17,0.27 0.21,0.17 0.32,0.41 0.2,0.03 z"
         id="path134"
         style="fill:#292929;fill-opacity:1;stroke:none" />
      <path
         d="m 194.74,99.19 -0.06,-0.04 -0.31,0.06 -0.49,0.19 -0.09,-0.02 -0.08,0.05 -0.21,-0.05 -0.24,0.02 -0.08,0.13 -0.03,0.12 -0.04,0.04 -0.2,-0.26 -0.03,0.03 -0.09,0.22 -0.07,0.09 -0.25,0.27 -0.06,0.44 -0.15,0.28 -0.13,0.21 -0.3,0.27 -0.23,0.51 0.14,0.14 0.14,-0.02 0.19,0.05 0.31,0.18 0.07,0.35 0.11,0.33 0.1,0.09 v 0.19 l 0.02,0.05 0.09,0.14 0.16,0.13 0.08,0.01 0.21,-0.18 h 0.06 l 0.12,0.31 0.06,0.04 0.38,-0.05 0.05,0.05 0.26,0.06 0.05,0.08 0.04,0.1 0.21,0.24 0.21,0.14 h 0.09 l 0.15,0.06 0.1,-0.04 0.16,0.09 0.09,0.03 0.28,-0.11 0.42,-0.05 0.07,-0.07 0.27,-0.39 -0.03,-0.16 -0.05,-0.32 -0.05,-0.04 -0.16,-0.08 -0.13,-0.36 -0.19,-0.24 0.04,-0.04 0.04,-0.01 0.15,0.12 0.11,-0.01 0.1,-0.17 0.02,-0.23 -0.01,-0.29 0.01,-0.11 0.02,-0.08 0.02,-0.2 v -0.23 l 0.02,-0.09 0.02,-0.06 0.06,-0.27 0.1,-0.15 -0.08,-0.28 -0.09,-0.19 -0.06,-0.08 -0.13,-0.09 -0.05,-0.11 -0.07,-0.06 -0.05,-0.12 -0.29,-0.12 -0.19,-0.02 -0.04,0.03 -0.04,0.14 0.02,0.22 -0.1,0.27 -0.06,0.04 -0.14,-0.11 -0.13,0.19 -0.1,0.27 -0.05,0.08 -0.04,-0.05 0.02,-0.29 0.09,-0.18 0.04,-0.23 0.06,-0.19 0.08,-0.08 -0.08,-0.28 z"
         id="path136"
         style="fill:#292929;fill-opacity:1;stroke:none" />
      <path
         d="m 182.68,96.33 0.22,-0.09 0.02,-0.06 0.04,-0.2 -0.1,-0.09 -0.33,-0.11 -0.4,0.06 -0.07,0.16 -0.09,0.33 0.02,0.05 0.06,0.1 z"
         id="path138"
         style="fill:#292929;fill-opacity:1;stroke:none" />
      <path
         d="m 190.57,95.05 -0.06,-0.19 -0.25,-0.07 -0.71,-0.06 -0.12,0.19 0.01,0.09 0.04,0.16 0.86,0.22 z"
         id="path140"
         style="fill:#292929;fill-opacity:1;stroke:none" />
      <path
         d="m 193.96,95.34 -0.04,-0.11 -0.19,-0.37 -0.08,-0.04 -0.06,-0.08 -0.06,-0.23 -0.07,-0.08 -0.43,0.04 -0.07,0.37 -0.15,0.22 -0.16,0.11 -0.16,0.03 -0.16,0.08 -0.17,0.13 -0.17,0.09 h -0.1 l -0.09,0.03 -0.21,0.19 -0.08,0.27 -0.12,0.14 -0.04,0.09 -0.07,0.27 -0.01,0.13 0.12,0.05 0.34,-0.1 -0.19,0.38 -0.11,0.35 -0.17,0.36 -0.22,0.14 -0.24,0.09 -0.15,0.24 -0.11,0.25 0.08,0.36 0.17,0.08 0.14,0.11 0.07,0.17 0.55,0.31 0.45,0.37 0.15,-0.01 0.31,-0.26 0.16,-0.2 0.07,0.02 0.2,-0.11 0.61,-0.11 0.9,-0.26 0.09,-0.12 0.08,-0.21 -0.09,-0.08 -0.03,-0.08 -0.09,-0.55 -0.03,-0.1 -0.03,-0.06 0.06,-0.33 0.07,-0.16 0.31,-0.11 0.05,-0.09 0.08,0.01 0.01,-0.28 -0.03,-0.15 -0.09,-0.12 -0.19,-0.07 -0.45,-0.5 -0.05,-0.15 -0.09,-0.16 z"
         id="path142"
         style="fill:#292929;fill-opacity:1;stroke:none" />
      <path
         d="m 160.79,160.22 v -0.07 l -0.03,-0.09 -0.02,0.03 0.01,0.05 0.03,0.09 z"
         id="path144"
         style="fill:#292929;fill-opacity:1;stroke:none" />
      <path
         d="m 152.47,135.92 -0.06,-0.02 -0.08,0.06 -0.01,-0.01 -0.04,0.02 0.02,0.1 0.04,0.05 h 0.04 l 0.07,0.13 0.04,-0.04 -0.01,-0.05 0.02,-0.07 v -0.1 z"
         id="path146"
         style="fill:#292929;fill-opacity:1;stroke:none" />
      <path
         d="m 157.19,133.37 -0.02,-0.05 -0.04,-0.09 -0.06,-0.02 -0.05,0.02 -0.01,0.02 0.02,0.07 0.13,0.08 z"
         id="path148"
         style="fill:#292929;fill-opacity:1;stroke:none" />
      <path
         d="m 162.35,128.85 -0.07,-0.14 -0.12,-0.1 -0.52,-0.39 h -0.19 l -0.07,0.03 -0.15,0.11 -0.15,0.18 -0.06,0.15 -0.02,0.16 -0.01,0.17 v 0.11 l 0.01,0.1 0.02,0.08 0.08,0.26 0.16,0.14 0.16,-0.02 0.19,-0.07 0.3,-0.15 0.15,-0.22 0.05,-0.15 0.12,-0.14 0.03,0.06 0.02,0.11 0.04,-0.02 0.04,-0.08 z"
         id="path150"
         style="fill:#292929;fill-opacity:1;stroke:none" />
      <path
         d="m 150.13,127.51 -0.27,-0.16 -0.01,0.07 0.04,0.16 -0.02,0.05 -0.09,-0.04 -0.06,0.03 -0.08,0.19 -0.08,0.04 -0.07,0.02 -0.27,-0.16 -0.13,-0.03 0.04,0.26 v 0.09 l -0.02,0.09 -0.02,0.04 -0.05,0.02 h -0.12 l -0.16,-0.11 -0.1,-0.09 -0.04,-0.01 -0.01,0.02 0.02,0.09 v 0.08 l -0.02,0.08 -0.02,0.07 -0.03,0.06 -0.06,0.08 -0.11,0.06 -0.31,0.12 -0.02,0.06 -0.1,0.33 -0.03,0.05 -0.03,0.04 -0.11,0.05 -0.04,0.03 -0.14,0.09 -0.09,0.06 -0.1,0.05 0.02,0.06 0.18,0.01 0.02,0.02 0.02,0.03 v 0.05 l -0.01,0.08 -0.19,0.44 v 0.09 l 0.06,0.25 0.08,0.3 0.26,0.13 0.19,0.11 0.12,0.24 0.21,0.32 0.11,0.11 v 0.04 l -0.03,0.22 -0.13,0.21 -0.12,0.18 -0.13,0.22 -0.1,0.19 -0.1,0.22 -0.02,0.07 v 0.06 l 0.02,0.08 0.14,0.26 0.05,0.14 0.06,0.15 0.06,0.15 0.03,0.15 0.06,0.13 0.03,0.07 0.06,0.1 0.06,0.15 0.03,0.11 0.1,0.4 0.01,0.1 v 0.07 l -0.05,0.02 -0.1,0.01 -0.11,0.05 v 0.02 l 0.07,0.09 -0.07,0.15 v 0.23 l -0.07,0.12 -0.01,0.02 0.01,0.03 0.01,0.01 0.12,0.03 0.01,0.04 v 0.06 l -0.01,0.06 -0.06,0.05 -0.07,0.06 -0.01,0.06 v 0.06 l 0.02,0.09 0.05,0.11 0.05,0.06 0.2,0.07 0.03,0.05 0.01,0.07 -0.01,0.07 -0.09,0.14 v 0.05 l 0.04,0.13 0.04,0.12 0.2,0.13 0.06,0.07 0.02,0.06 0.01,0.09 v 0.1 l -0.02,0.09 -0.06,0.12 -0.14,0.22 -0.14,0.09 -0.01,0.02 0.05,0.07 0.25,0.28 0.16,0.13 0.22,0.18 0.14,0.14 0.04,0.1 0.06,0.11 0.07,0.09 0.05,0.08 0.02,0.05 v 0.06 l -0.07,0.16 -0.04,0.13 -0.06,0.18 -0.07,0.13 -0.17,0.23 -0.25,0.29 -0.06,0.09 -0.12,0.15 -0.2,0.3 -0.06,0.06 -0.16,0.24 -0.08,0.08 -0.06,0.07 -0.16,0.22 -0.18,0.17 -0.17,0.16 -0.05,0.07 -0.07,0.06 -0.08,0.06 -0.03,0.03 -0.17,0.22 -0.24,0.29 0.26,-0.05 0.22,-0.15 0.05,0.04 0.05,0.05 -0.01,0.1 -0.01,0.07 -0.09,-0.07 0.02,0.08 0.08,0.15 0.12,0.06 0.17,0.19 0.21,0.03 0.14,-0.04 0.1,0.01 0.1,0.1 0.07,0.13 0.06,0.03 0.08,0.06 -0.01,0.08 -0.03,0.04 -0.31,-0.11 -0.35,-0.06 -0.05,0.05 -0.04,0.08 -0.03,0.06 -0.02,0.04 -0.05,0.02 -0.09,0.01 -0.09,-0.02 -0.06,-0.04 -0.05,0.05 -0.02,0.11 -0.06,0.05 -0.08,-0.04 -0.06,-0.08 h -0.05 l -0.03,0.08 0.02,0.11 0.02,0.12 -0.04,0.1 0.04,0.04 0.04,0.06 0.02,0.04 -0.02,0.03 -0.04,0.02 -0.02,0.02 -0.02,0.03 -0.05,0.01 -0.03,0.02 -0.03,0.12 -0.06,0.18 -0.1,0.15 -0.07,0.07 -0.03,0.06 -0.02,0.07 -0.01,0.08 0.07,0.39 v 0.07 l -0.01,0.07 -0.02,0.07 0.01,0.06 0.05,0.11 0.05,0.16 0.02,0.1 0.03,0.04 0.04,0.03 v 0.02 0.02 l -0.02,0.02 -0.14,0.05 -0.02,0.04 -0.01,0.05 -0.07,0.08 -0.02,0.07 -0.01,0.08 v 0.03 h 0.08 l 0.03,0.02 0.02,0.1 0.09,0.08 0.08,0.06 0.03,0.03 v 0.06 0.07 l -0.01,0.03 -0.04,0.04 -0.03,0.1 v 0.1 l -0.05,0.17 h 0.01 l 0.1,-0.03 0.03,0.02 0.02,0.03 0.01,0.11 0.03,0.04 0.04,0.08 0.01,0.05 0.06,0.07 0.01,0.04 0.04,0.16 0.01,0.08 0.01,0.07 -0.02,0.09 -0.02,0.06 0.1,0.1 0.02,0.01 0.05,-0.05 h 0.01 0.11 l 0.05,0.04 0.04,0.07 0.03,0.06 0.04,0.01 0.1,-0.07 0.06,-0.03 h 0.04 l 0.13,0.07 0.06,0.04 0.02,0.03 v 0.04 l -0.02,0.05 -0.01,0.06 0.04,0.08 0.05,0.04 0.1,-0.08 0.03,-0.02 h 0.05 l 0.05,-0.03 0.04,-0.04 0.04,-0.02 0.07,0.01 0.13,-0.01 0.15,0.07 0.01,0.02 0.08,0.09 0.03,0.04 0.02,0.01 0.04,0.04 0.06,0.03 0.03,-0.01 0.02,0.01 0.02,0.03 v 0.06 0.15 l -0.03,0.05 -0.03,0.03 -0.01,0.03 0.01,0.03 0.04,0.07 0.06,0.1 0.01,0.06 v 0.05 l -0.08,0.13 -0.02,0.03 -0.02,0.06 -0.01,0.07 0.01,0.02 0.12,0.11 0.1,0.05 0.02,0.03 v 0.02 l -0.05,0.11 -0.01,0.03 0.08,0.04 0.04,0.08 0.04,0.11 0.07,0.12 0.15,0.09 0.11,0.07 0.03,0.03 0.01,0.03 -0.01,0.08 -0.03,0.09 -0.02,0.05 0.04,0.03 0.12,-0.01 0.14,0.02 0.17,0.1 v 0.05 l -0.01,0.04 0.01,0.04 0.02,0.04 0.15,0.11 0.01,0.03 v 0.06 0.04 l -0.04,0.01 -0.05,0.02 -0.07,0.05 -0.03,0.06 -0.12,0.1 -0.08,0.04 h -0.06 l -0.14,-0.02 -0.05,-0.04 -0.02,-0.05 -0.05,-0.02 h -0.07 l -0.1,0.01 -0.02,0.01 -0.02,0.05 -0.04,0.09 -0.03,0.05 0.03,0.03 0.03,0.07 0.07,0.08 0.06,0.07 0.02,0.05 v 0.03 l -0.03,0.03 v 0.08 l 0.06,0.1 -0.02,0.01 v 0.12 0.13 l 0.01,0.03 0.04,0.02 0.03,0.05 0.04,0.11 v 0.02 l 0.02,0.01 0.06,0.03 0.07,0.02 0.05,0.01 0.05,-0.01 0.06,-0.04 0.05,-0.03 0.05,-0.18 0.02,-0.02 0.03,-0.02 h 0.05 l 0.1,0.03 0.11,0.03 h 0.06 l 0.17,-0.09 0.1,-0.02 0.11,0.02 h 0.11 l 0.08,-0.01 0.06,0.03 0.07,0.08 0.06,0.1 0.07,0.2 0.2,0.22 v 0.04 l -0.02,0.03 -0.09,0.03 -0.08,0.01 -0.01,0.04 0.02,0.04 0.04,0.06 0.01,0.07 -0.01,0.08 0.02,0.06 0.03,0.02 0.01,0.03 -0.04,0.04 -0.01,0.03 0.01,0.01 0.18,0.01 0.08,0.03 0.07,0.04 h 0.03 l 0.08,-0.02 0.08,-0.02 h 0.05 l 0.02,0.03 0.02,0.06 0.02,0.07 0.03,0.02 0.05,-0.01 0.03,0.01 0.02,0.02 -0.02,0.04 v 0.04 l 0.02,0.05 0.03,0.11 0.02,0.03 0.02,0.05 v 0.05 l -0.02,0.04 -0.02,0.03 0.02,0.08 0.05,0.09 0.04,0.02 0.03,0.07 0.06,0.03 0.08,-0.07 0.06,-0.03 0.09,0.02 0.07,0.01 0.05,0.05 0.04,0.06 0.04,0.03 0.04,-0.02 0.09,0.02 0.04,0.05 0.04,0.02 0.06,-0.03 0.04,-0.05 0.16,-0.05 0.09,-0.02 0.03,-0.01 0.06,-0.03 0.06,-0.03 0.05,0.01 0.06,0.07 0.05,0.06 0.02,0.08 0.06,0.11 0.17,0.16 0.07,0.04 0.04,-0.01 0.03,-0.01 0.01,-0.01 0.01,-0.08 0.02,-0.03 h 0.03 l 0.14,0.1 0.06,0.01 h 0.07 l 0.09,0.07 0.09,0.06 0.08,0.01 0.06,-0.02 0.04,-0.02 0.02,0.02 0.03,0.06 0.04,0.04 0.04,0.01 0.07,0.01 0.11,0.08 0.1,0.08 0.07,0.01 0.05,-0.03 0.05,-0.01 0.04,0.03 0.01,0.03 -0.03,0.05 v 0.07 l 0.05,0.06 v 0.07 l -0.01,0.06 -0.03,0.05 -0.06,0.07 -0.06,0.07 -0.09,0.03 -0.05,0.03 0.01,0.05 0.03,0.05 0.08,0.04 0.09,0.02 0.01,0.03 -0.02,0.02 -0.05,0.01 -0.08,-0.01 -0.02,0.03 -0.04,0.04 -0.02,0.08 -0.02,0.07 0.08,0.02 0.05,0.03 0.02,0.06 0.01,0.07 0.01,0.06 -0.03,0.03 v 0.03 l 0.01,0.02 h 0.04 l 0.02,0.02 0.01,0.03 -0.06,0.07 -0.04,0.14 -0.03,0.07 v 0.08 l -0.03,0.04 h -0.05 l -0.18,0.01 h -0.16 l -0.07,-0.01 -0.11,-0.01 -0.05,0.02 -0.07,0.12 -0.06,0.05 -0.08,0.05 -0.1,0.01 -0.06,0.05 -0.02,0.08 v 0.07 l -0.01,0.04 -0.02,0.03 -0.01,0.02 0.01,0.02 0.02,0.01 0.03,0.01 v 0.02 l -0.01,0.02 -0.03,0.03 -0.02,0.04 0.01,0.04 v 0.04 l 0.19,-0.08 0.06,-0.07 0.13,-0.02 -0.02,0.03 -0.06,0.02 -0.07,0.06 0.08,0.01 0.18,-0.03 0.07,-0.1 h 0.11 l 0.04,0.07 0.03,0.1 v 0.03 l -0.02,0.03 -0.09,0.02 -0.23,0.12 -0.11,0.03 -0.13,0.06 0.03,0.08 0.01,0.07 -0.11,-0.02 -0.08,-0.02 -0.04,0.01 -0.14,0.07 -0.06,-0.01 h -0.07 l 0.03,0.1 0.07,0.12 0.04,0.03 0.07,-0.01 0.16,0.15 0.12,0.15 -0.06,0.01 -0.06,-0.02 h -0.09 l -0.03,0.09 -0.04,0.07 -0.01,-0.04 0.01,-0.04 -0.04,-0.03 -0.06,0.04 -0.06,0.2 -0.12,0.14 -0.04,0.09 v 0.07 l 0.02,0.01 h 0.02 v 0.05 l -0.01,0.05 -0.27,0.07 -0.03,0.04 -0.08,-0.03 -0.08,-0.08 -0.08,-0.04 -0.05,0.01 -0.05,0.04 0.03,0.02 0.03,0.01 0.09,0.05 -0.04,0.04 -0.18,0.06 0.01,0.03 0.01,0.03 0.21,0.05 0.17,0.1 0.06,0.06 0.04,0.11 0.04,0.06 0.06,0.03 0.05,0.03 0.1,0.01 0.1,-0.04 0.22,0.27 0.09,0.04 0.22,0.06 0.06,0.02 0.42,0.38 0.12,0.16 0.25,0.24 0.07,0.05 0.03,-0.06 0.04,-0.07 0.05,-0.01 0.13,0.02 0.12,0.03 0.09,-0.02 0.1,0.05 0.1,0.06 0.09,0.04 0.19,0.04 0.07,0.05 0.08,0.06 0.32,0.02 0.03,-0.01 h 0.02 l 0.11,-0.02 h 0.1 l 0.1,0.07 0.06,-0.01 0.07,-0.01 0.09,0.04 0.07,0.03 v 0.04 l 0.06,0.06 0.18,0.09 0.14,0.05 0.05,0.03 0.11,0.06 0.01,0.01 v 0.03 l -0.03,0.04 -0.01,0.04 0.01,0.02 0.05,0.02 h 0.09 l 0.03,-0.02 0.07,-0.02 0.06,-0.04 0.09,-0.04 0.12,-0.05 0.05,0.01 0.05,0.01 0.03,0.02 0.05,0.09 0.06,-0.12 0.01,-0.01 0.05,0.02 0.09,0.04 0.06,0.01 0.03,0.03 0.09,0.11 0.15,-0.01 0.07,0.02 0.03,0.02 0.02,0.02 -0.03,0.11 -0.04,0.11 0.01,0.03 0.06,0.04 0.08,0.05 0.04,0.03 0.03,0.03 0.07,0.03 0.07,0.01 0.04,0.01 0.04,0.02 0.09,0.05 0.02,0.02 0.07,0.02 0.01,0.05 0.01,0.01 0.03,-0.01 0.06,-0.02 0.04,0.02 0.05,0.06 0.07,0.07 0.04,0.04 0.01,0.04 0.04,0.03 0.05,0.03 0.05,0.06 0.04,0.12 0.03,0.03 0.14,0.05 0.05,0.01 0.14,0.02 0.05,-0.01 0.07,-0.11 0.06,-0.12 0.06,-0.02 0.1,-0.06 0.07,-0.05 0.02,-0.05 0.06,-0.11 0.04,-0.06 -0.06,-0.06 -0.04,-0.01 -0.03,-0.03 -0.05,-0.12 -0.05,-0.09 -0.11,-0.16 -0.17,-0.24 -0.04,-0.03 -0.03,-0.03 -0.01,-0.12 -0.05,-0.09 -0.07,-0.06 -0.03,-0.03 -0.02,-0.03 0.04,-0.17 v -0.05 l -0.02,-0.11 0.01,-0.12 0.04,-0.16 0.05,-0.12 0.01,-0.07 -0.06,0.05 -0.07,0.26 -0.02,-0.21 -0.05,-0.21 -0.03,-0.1 -0.06,-0.08 -0.07,-0.07 -0.07,-0.08 -0.07,-0.04 -0.11,-0.03 -0.02,-0.03 -0.01,-0.05 v -0.06 l 0.03,-0.09 0.06,-0.06 0.08,-0.06 0.02,-0.04 0.01,-0.05 0.02,0.04 0.03,0.02 0.03,-0.09 0.03,-0.06 0.04,-0.05 0.05,-0.12 0.04,-0.07 0.02,-0.08 0.02,-0.12 0.03,-0.01 0.02,-0.02 0.02,-0.04 0.01,-0.03 -0.01,-0.07 -0.04,-0.08 0.01,-0.01 0.02,0.01 0.05,0.04 0.04,0.05 0.01,-0.07 0.04,-0.03 0.04,0.02 0.04,0.01 0.16,-0.06 0.07,-0.02 0.07,-0.04 0.15,-0.15 0.04,-0.01 0.03,0.01 0.04,0.03 0.03,0.01 h 0.03 l 0.01,-0.03 -0.03,-0.05 -0.01,-0.05 v -0.06 l 0.04,-0.01 h 0.04 l 0.19,-0.09 0.02,-0.04 0.01,-0.05 0.08,-0.01 -0.01,-0.05 -0.03,-0.01 -0.15,-0.09 -0.13,-0.07 -0.11,-0.05 -0.02,-0.02 -0.03,-0.02 -0.02,-0.05 -0.01,-0.05 0.01,-0.03 0.03,-0.02 0.03,-0.01 h 0.03 l 0.03,0.03 0.06,0.02 0.07,0.01 0.05,-0.02 0.01,-0.05 -0.09,-0.18 -0.08,-0.15 -0.08,-0.16 -0.03,-0.06 -0.1,-0.14 -0.09,-0.13 -0.08,-0.12 -0.03,-0.04 -0.12,-0.02 -0.23,-0.02 -0.08,-0.02 -0.07,0.04 -0.06,0.03 -0.07,-0.06 -0.04,-0.08 -0.03,-0.08 0.01,-0.07 0.01,-0.11 -0.04,-0.11 -0.04,-0.05 -0.1,-0.04 -0.14,-0.09 -0.03,-0.17 0.06,-0.24 0.11,-0.17 0.07,-0.07 0.04,-0.06 0.01,-0.06 -0.01,-0.05 -0.05,-0.05 -0.06,-0.06 -0.04,-0.06 0.02,-0.15 0.04,-0.2 0.07,-0.17 0.1,-0.09 0.08,-0.06 0.03,-0.06 v -0.09 -0.08 l 0.02,-0.06 0.03,-0.05 0.04,-0.04 0.05,-0.05 0.07,-0.01 0.07,0.03 0.1,0.11 0.14,0.2 0.08,0.13 0.03,0.04 0.08,0.08 0.07,0.03 0.11,-0.05 0.11,-0.06 0.03,-0.03 0.03,-0.06 -0.02,-0.09 -0.02,-0.06 -0.03,-0.08 -0.03,-0.13 -0.02,-0.21 -0.03,-0.07 0.02,-0.01 0.05,0.02 h 0.05 l 0.07,-0.04 0.1,-0.09 0.18,-0.14 0.04,-0.09 0.03,-0.1 0.05,-0.06 0.12,-0.02 0.11,-0.03 0.07,-0.07 0.12,-0.06 0.1,-0.04 0.04,-0.04 0.03,-0.05 0.11,-0.15 0.09,-0.09 0.07,-0.1 0.03,-0.05 0.06,0.01 0.09,0.04 0.1,0.04 0.07,0.05 0.02,0.06 0.01,0.05 0.03,0.02 0.03,0.01 0.05,-0.01 0.1,-0.01 0.11,-0.07 0.16,-0.13 0.14,-0.04 0.08,0.03 0.06,0.09 0.05,0.09 0.05,0.04 h 0.04 0.01 l 0.06,-0.02 h 0.01 l 0.07,-0.22 h 0.71 l 0.92,-0.04 0.74,0.19 0.45,0.19 0.47,0.04 0.61,-0.27 0.26,-1.07 0.05,-0.67 0.16,-1.07 0.05,-0.74 0.03,-0.7 -0.1,-0.75 -0.16,-1.63 -0.05,-1.19 -0.07,-2.67 0.02,-1.55 0.17,-1.25 0.04,-1.33 0.1,-0.84 0.28,-1.46 0.43,-0.72 0.8,-0.9 h 0.21 l 0.38,-0.12 0.5,-0.57 1.37,-1.72 0.42,-0.48 0.19,-0.62 0.26,-1.57 v -1 l -0.19,-0.14 -0.19,-0.08 -0.05,-0.11 -0.14,-0.08 -0.14,-0.05 -0.2,-0.13 -0.09,0.04 0.02,-0.15 -0.23,-0.21 -0.28,-0.2 -0.56,-0.27 -0.5,-0.14 -0.59,-0.04 -0.52,-0.17 -0.07,0.01 -0.06,0.05 -0.18,0.25 -0.19,0.08 -0.07,0.12 0.11,0.26 0.22,0.67 0.14,-0.06 0.05,0.3 -0.08,0.17 -0.12,0.21 -0.11,0.11 -0.22,0.05 -0.18,-0.01 -0.02,0.19 0.05,0.18 -0.01,0.07 -0.02,0.09 -0.03,0.05 -0.02,0.03 -0.07,0.05 h -0.08 l -0.2,-0.09 -0.15,-0.08 0.01,-0.32 0.08,-0.14 0.05,-0.03 0.05,-0.06 -0.1,-0.21 -0.08,-0.09 -0.03,-0.14 v -0.07 l -0.1,0.01 -0.38,0.16 -0.08,0.16 -0.05,-0.11 -0.5,0.47 -0.21,0.17 -0.15,-0.03 -0.2,-0.1 h -0.23 l -0.16,-0.05 -0.08,0.02 -0.18,0.12 -0.17,0.01 -0.18,0.16 -0.16,0.2 -0.04,0.32 -0.1,0.03 -0.11,-0.16 -0.05,-0.04 -0.06,0.03 -0.11,0.02 -0.09,0.01 -0.09,0.06 h -0.04 l -0.27,-0.06 -0.08,0.01 -0.1,-0.02 0.03,-0.08 0.03,-0.06 0.15,-0.05 0.09,-0.06 0.09,0.04 0.07,-0.1 -0.01,-0.19 -0.1,-0.18 0.05,-0.14 0.04,-0.18 0.02,-0.02 0.03,-0.06 -0.03,-0.05 -0.09,-0.03 v -0.04 l 0.05,-0.04 0.35,-0.07 0.08,-0.05 -0.21,-0.02 -0.27,0.01 -0.26,0.16 -0.5,0.34 -0.23,0.23 h 0.06 l 0.08,0.03 0.07,0.17 0.05,0.04 -0.04,0.1 -0.13,0.09 -0.06,0.05 -0.05,0.02 -0.04,-0.02 -0.05,-0.04 0.03,-0.08 0.04,-0.08 -0.11,-0.13 -0.05,-0.02 h -0.04 l -0.26,0.12 -0.19,0.14 -0.18,0.07 -0.16,0.03 -0.1,0.06 -0.19,0.18 -0.12,0.08 -0.21,0.2 -0.53,0.35 -0.14,0.04 -0.08,-0.03 -0.05,-0.05 -0.04,0.04 0.04,0.08 0.08,0.18 -0.03,0.09 -0.12,-0.03 -0.26,0.08 -0.28,0.12 0.01,0.12 0.02,0.11 -0.05,0.18 -0.05,0.14 -0.04,0.41 -0.04,0.12 -0.1,0.08 -0.55,0.18 -0.1,0.01 -0.04,0.03 -0.03,-0.03 -0.1,-0.04 h -0.15 l -0.07,-0.02 -0.07,-0.06 -0.09,-0.18 -0.13,-0.34 -0.29,-0.18 -0.13,-0.11 -0.03,-0.11 0.03,-0.12 0.3,-0.38 0.1,-0.12 0.44,-0.11 0.18,-0.01 0.18,-0.05 -0.01,-0.22 -0.17,-0.27 -0.19,-0.32 -0.18,-0.34 -0.26,-0.13 -0.3,-0.06 -0.61,0.07 -0.09,-0.01 -0.39,-0.25 h -0.04 l -0.06,0.01 0.02,0.07 0.03,0.05 0.52,0.53 0.03,0.13 0.01,0.19 -0.01,0.07 0.01,0.08 v 0.14 l -0.13,0.59 -0.12,0.41 -0.04,0.19 -0.01,0.14 0.05,0.11 0.15,0.04 0.15,0.12 0.07,0.17 0.02,0.11 0.01,0.25 0.03,0.22 -0.12,0.32 -0.06,0.13 -0.09,0.29 0.04,0.21 -0.01,0.08 -0.02,0.09 -0.06,-0.06 -0.05,-0.09 -0.07,-0.07 -0.07,-0.03 -0.08,0.02 -0.06,0.04 0.01,-0.08 0.07,-0.13 -0.03,-0.07 -0.04,-0.05 -0.22,-0.16 -0.15,-0.01 -0.14,0.01 -0.14,-0.02 -0.1,-0.1 -0.1,-0.05 -0.07,-0.01 -0.08,0.09 -0.21,0.35 -0.21,0.23 -0.27,0.17 -0.21,0.06 -0.05,0.04 -0.13,0.2 -0.12,0.15 -0.35,0.26 -0.03,0.1 -0.02,0.15 0.04,0.16 0.06,0.15 0.17,0.31 0.1,0.11 0.06,0.16 0.05,0.19 -0.03,0.04 -0.14,-0.05 -0.1,0.03 -0.14,0.12 -0.01,0.06 -0.05,0.13 -0.13,0.01 -0.35,-0.23 -0.3,-0.12 -0.05,-0.01 -0.07,-0.05 -0.02,-0.05 -0.13,0.01 -0.07,-0.01 -0.08,-0.04 -0.33,-0.37 -0.26,-0.14 h -0.06 l -0.12,0.04 -0.06,0.3 -0.09,0.08 h -0.08 l -0.01,0.14 0.04,0.09 0.03,0.07 0.1,0.1 0.18,0.32 0.1,0.12 0.07,0.05 0.1,0.01 0.21,-0.04 0.07,0.05 0.08,0.07 0.01,0.18 0.06,0.18 0.01,0.1 -0.08,0.12 -0.22,0.09 -0.13,0.12 h -0.05 l -0.27,-0.14 -0.18,-0.06 -0.24,-0.09 -0.04,-0.05 -0.11,-0.24 -0.24,-0.23 -0.1,-0.07 -0.15,0.05 -0.1,-0.02 -0.17,-0.13 -0.11,-0.19 -0.01,-0.23 0.03,-0.05 0.03,-0.03 -0.08,-0.07 v -0.18 l -0.02,-0.12 -0.09,-0.3 -0.09,-0.17 -0.09,-0.2 0.1,-0.1 0.04,-0.09 0.07,-0.25 0.02,-0.09 0.02,-0.08 0.02,-0.08 -0.01,-0.08 -0.06,-0.15 -0.2,-0.3 -0.2,-0.16 -0.37,-0.16 -0.11,0.01 -0.03,-0.03 0.08,-0.03 0.08,-0.06 0.04,-0.1 -0.1,-0.05 -0.07,-0.02 -0.13,-0.08 -0.03,-0.08 0.03,-0.05 -0.03,-0.13 -0.17,-0.04 -0.04,-0.03 -0.01,-0.04 -0.11,-0.15 -0.16,-0.15 0.03,-0.15 -0.11,-0.11 -0.1,-0.08 -0.14,-0.03 -0.06,-0.06 0.34,0.02 0.36,0.11 -0.03,0.05 -0.02,0.07 0.1,0.2 0.1,0.11 0.23,0.13 0.03,0.01 0.05,-0.04 0.11,0.06 0.09,0.07 0.17,0.01 0.21,0.09 -0.01,0.04 -0.03,0.03 0.06,0.1 0.09,-0.01 0.15,-0.09 0.37,0.31 0.1,0.06 0.59,0.16 0.27,0.01 0.14,0.04 0.21,0.08 0.23,0.16 0.19,0.06 0.34,0.05 0.17,-0.01 0.44,-0.1 0.55,-0.29 0.29,-0.25 0.46,-0.65 0.05,-0.16 0.06,-0.36 v -0.15 l -0.06,-0.02 -0.09,-0.08 v -0.22 l -0.05,-0.1 -0.07,-0.48 -0.13,-0.05 -0.08,-0.06 -0.09,-0.03 -0.1,-0.08 -0.12,-0.19 -0.11,-0.14 -0.1,-0.18 -0.06,-0.07 -0.04,-0.02 0.03,0.09 0.02,0.1 -0.17,-0.02 -0.51,-0.47 -0.08,-0.03 -0.03,0.04 -0.16,-0.06 -0.05,-0.11 -0.43,-0.52 -0.76,-0.59 -0.52,-0.36 -0.39,-0.16 -0.03,0.01 -0.04,0.07 -0.12,0.02 -0.1,-0.01 -0.35,-0.15 -0.08,-0.02 -0.37,0.01 -0.04,0.04 -0.13,0.31 -0.07,0.06 -0.13,0.05 0.03,-0.09 0.09,-0.07 0.06,-0.22 0.01,-0.09 0.03,-0.12 -0.01,-0.1 -0.05,-0.03 -0.09,0.03 -0.18,0.12 -0.03,-0.03 0.05,-0.12 -0.01,-0.05 -0.08,0.02 -0.17,-0.06 -0.18,0.02 -0.03,-0.15 -0.11,-0.08 -0.05,-0.07 0.06,-0.08 0.39,0.13 0.11,0.01 0.06,-0.05 0.01,-0.08 v -0.11 l -0.05,-0.05 -0.26,-0.11 z"
         id="path152"
         style="fill:#292929;fill-opacity:1;stroke:none" />
      <path
         d="m 169.31,127.38 -0.04,-0.05 -0.15,-0.12 -0.15,-0.17 -0.22,-0.18 -0.07,-0.11 -0.07,-0.12 -0.08,-0.11 -0.15,-0.15 -0.03,-0.05 -0.03,-0.01 -0.14,0.07 -0.08,0.15 -0.05,0.02 -0.06,0.06 -0.03,0.11 0.06,0.22 0.03,0.05 0.02,0.09 0.03,0.07 0.18,0.32 0.04,0.02 0.05,-0.06 0.05,-0.02 0.08,0.05 0.08,0.01 0.08,0.05 0.05,0.15 v 0.1 l 0.04,0.04 0.06,0.03 0.06,0.02 0.08,-0.01 0.07,-0.04 0.13,0.06 0.07,-0.05 0.08,-0.02 0.03,-0.14 v -0.18 z"
         id="path154"
         style="fill:#292929;fill-opacity:1;stroke:none" />
      <path
         d="m 164.15,124.43 -0.09,-0.07 -0.03,-0.01 v 0.03 0.07 l -0.07,-0.06 h -0.08 l -0.14,0.06 -0.04,0.07 v 0.08 l 0.03,0.03 0.09,0.07 0.09,-0.02 0.13,0.14 0.03,0.14 0.03,0.06 0.08,0.07 0.04,0.09 0.01,0.09 0.07,-0.03 -0.01,-0.03 -0.04,-0.07 0.02,-0.07 0.09,-0.2 -0.01,-0.12 -0.04,-0.06 -0.04,0.01 -0.06,-0.11 z"
         id="path156"
         style="fill:#292929;fill-opacity:1;stroke:none" />
      <path
         d="m 165.8,120.05 -0.13,-0.11 -0.13,-0.07 -0.09,-0.01 -0.09,0.04 -0.24,0.17 -0.08,0.05 -0.08,0.01 -0.15,-0.06 -0.08,0.02 -0.08,0.08 -0.08,0.05 -0.11,0.03 -0.07,0.1 -0.04,0.08 v 0.1 l 0.03,0.22 0.01,0.09 0.08,0.13 -0.08,0.03 -0.08,-0.02 h -0.08 l -0.07,0.03 -0.07,0.06 -0.16,0.19 -0.02,0.06 -0.02,0.07 0.06,0.07 0.05,0.05 0.16,0.03 -0.05,0.12 -0.01,0.06 0.02,0.1 -0.08,0.15 -0.02,0.1 v 0.11 l -0.03,0.12 -0.03,0.08 -0.03,0.04 -0.08,0.07 -0.04,0.12 -0.05,0.1 -0.05,0.05 h -0.13 l -0.12,-0.05 -0.06,0.03 -0.1,0.09 -0.05,0.06 -0.07,0.21 -0.03,0.1 -0.01,0.24 0.01,0.1 0.05,0.28 0.05,0.17 0.07,0.1 0.09,0.07 0.08,0.04 0.17,-0.04 0.16,-0.1 0.18,0.07 0.15,0.02 0.32,-0.1 0.03,0.03 -0.06,0.11 -0.01,0.17 0.07,0.13 0.07,-0.01 0.07,0.02 -0.02,0.08 0.2,0.21 0.19,0.15 -0.05,0.04 -0.11,-0.06 -0.06,0.02 0.01,0.12 -0.13,-0.04 -0.05,0.08 v 0.1 l 0.02,0.11 v 0.07 l -0.1,0.03 -0.06,0.06 0.23,0.12 0.33,0.11 0.09,0.04 0.12,0.1 0.06,0.03 0.01,-0.07 0.02,-0.06 0.15,0.14 0.13,0.02 h 0.13 l 0.3,-0.05 0.02,0.03 v 0.07 l 0.06,0.05 0.07,-0.02 0.03,-0.05 0.1,0.07 0.02,-0.06 0.01,-0.02 0.2,0.19 h 0.05 l 0.04,-0.06 -0.1,-0.15 -0.05,-0.02 -0.06,-0.08 0.09,-0.04 0.09,0.01 0.04,0.07 0.03,0.08 0.02,0.02 0.34,0.12 0.07,-0.03 0.01,-0.07 0.13,-0.05 0.12,-0.14 -0.05,-0.08 -0.05,-0.05 -0.29,-0.18 -0.11,-0.1 -0.3,-0.38 -0.28,-0.51 -0.16,-0.34 -0.14,-0.4 -0.04,-0.2 -0.05,-0.19 -0.12,-0.15 0.05,-0.17 0.02,-0.21 0.06,-0.16 0.02,-0.09 -0.08,-0.21 -0.01,-0.14 -0.02,-0.07 v -0.13 l 0.04,-0.08 -0.01,-0.11 0.02,-0.06 0.12,-0.06 0.06,-0.16 0.01,-0.12 0.01,-0.1 0.06,-0.05 h 0.18 l 0.03,-0.04 0.03,-0.1 0.02,-0.13 -0.02,-0.18 0.02,-0.12 0.1,-0.19 0.04,-0.06 0.02,-0.14 -0.05,-0.06 -0.15,-0.07 -0.24,-0.03 z"
         id="path158"
         style="fill:#292929;fill-opacity:1;stroke:none" />
      <path
         d="m 174.31,112.41 0.27,-0.14 0.04,-0.08 0.23,-0.4 0.23,-0.36 -0.03,-0.11 0.03,-0.14 0.03,-0.15 -0.02,-0.15 -0.03,-0.09 -0.12,-0.24 -0.14,-0.19 -0.32,-0.18 -0.25,-0.06 -0.08,0.01 -0.19,0.13 -0.29,0.13 -0.33,0.3 -0.2,0.23 -0.07,0.17 -0.06,0.22 -0.08,0.1 h -0.08 l -0.07,0.04 -0.15,0.14 -0.08,0.06 -0.08,0.01 -0.09,0.03 -0.16,0.17 -0.17,0.14 -0.64,0.2 -0.38,0.21 -0.13,-0.03 -0.21,0.05 -0.16,-0.03 -0.31,-0.15 -0.15,-0.02 -0.25,0.05 -0.03,0.02 -0.08,0.12 v 0.18 l 0.01,0.14 -0.04,0.09 -0.04,0.05 -0.09,0.01 -0.05,-0.1 -0.09,-0.01 -0.22,0.03 -0.11,0.08 -0.06,0.24 -0.17,0.11 -0.3,0.1 -0.16,0.1 h -0.08 l -0.07,0.05 -0.16,0.22 -0.16,0.16 -0.25,0.15 0.01,0.13 0.02,0.07 -0.21,0.23 -0.06,0.15 -0.05,0.26 -0.02,0.04 -0.2,-0.08 -0.15,-0.03 -0.07,0.02 -0.1,0.06 -0.02,0.07 0.01,0.13 0.04,0.09 -0.21,0.39 -0.06,0.01 -0.07,-0.11 -0.07,-0.07 -0.08,-0.06 -0.09,-0.02 -0.08,0.07 -0.07,0.11 v 0.09 l 0.03,0.09 0.1,0.14 0.23,-0.02 0.06,0.1 0.05,0.05 -0.19,0.15 -0.21,0.27 -0.18,0.36 -0.05,0.07 0.02,0.1 0.04,0.09 0.06,0.04 0.13,-0.01 0.13,0.12 -0.04,0.04 -0.45,0.12 -0.05,0.04 -0.22,0.59 -0.07,0.14 -0.06,0.08 -0.07,0.16 -0.06,0.18 -0.03,0.02 -0.15,0.04 -0.14,0.12 -0.14,0.16 -0.08,0.05 -0.06,0.09 0.05,0.17 0.25,0.37 -0.05,0.15 0.11,0.31 0.19,-0.16 0.14,-0.08 0.16,-0.01 0.18,0.15 0.19,0.09 0.33,0.02 0.13,0.08 0.14,0.04 0.14,-0.02 0.23,-0.15 0.11,-0.33 0.22,-0.25 0.06,-0.12 -0.05,-0.21 -0.12,-0.17 0.01,-0.06 0.1,0.03 0.1,0.12 0.04,0.02 h 0.07 l 0.06,-0.09 0.02,-0.11 -0.02,-0.12 -0.05,-0.18 -0.01,-0.1 0.46,-0.29 0.13,-0.25 0.03,-0.15 -0.02,-0.1 -0.05,-0.24 -0.04,-0.11 0.02,-0.08 0.27,0.09 0.07,-0.06 0.05,-0.06 0.03,-0.11 v -0.15 l 0.02,-0.14 0.04,-0.07 0.24,0.2 0.06,0.01 0.05,-0.07 0.01,-0.07 -0.02,-0.08 0.01,-0.13 h 0.16 l 0.06,-0.03 0.1,-0.1 0.06,-0.11 0.09,-0.1 0.04,-0.08 -0.03,-0.1 -0.15,-0.07 0.03,-0.1 0.14,-0.12 0.03,-0.01 0.09,0.01 0.04,-0.04 0.08,-0.11 0.07,-0.14 0.14,-0.16 0.07,-0.16 0.08,-0.09 0.09,0.01 0.08,-0.02 0.31,-0.29 0.67,-0.41 0.19,-0.07 0.23,-0.18 0.08,-0.01 0.33,-0.13 0.33,-0.19 0.31,-0.15 0.29,-0.18 0.45,-0.22 0.26,-0.18 0.16,-0.07 0.16,-0.1 0.16,-0.15 z"
         id="path160"
         style="fill:#292929;fill-opacity:1;stroke:none" />
      <path
         d="m 163.13,100.03 -0.06,-0.11 -0.05,-0.07 -0.01,-0.08 0.01,-0.15 -0.21,-0.18 -0.18,0.18 -0.14,0.05 -0.26,0.22 0.25,0.22 0.42,-0.03 0.24,0.05 0.01,-0.05 z"
         id="path162"
         style="fill:#292929;fill-opacity:1;stroke:none" />
      <path
         d="m 168.79,99.99 0.15,-0.15 -0.08,-0.35 -0.17,-0.15 -0.37,0.26 -0.04,0.05 -0.02,0.22 0.13,0.08 0.04,0.07 0.03,0.06 0.08,0.04 z"
         id="path164"
         style="fill:#292929;fill-opacity:1;stroke:none" />
      <path
         d="m 162.2,99.52 0.02,-0.14 0.16,-0.25 v -0.05 l -0.04,-0.14 -0.25,-0.04 -0.23,0.28 0.03,0.09 0.26,0.3 z"
         id="path166"
         style="fill:#292929;fill-opacity:1;stroke:none" />
      <path
         d="m 165.91,98.72 -0.03,-0.11 -0.06,-0.07 -0.07,-0.03 -0.1,0.12 -0.08,0.16 0.05,0.11 0.1,0.01 z"
         id="path168"
         style="fill:#292929;fill-opacity:1;stroke:none" />
      <path
         d="m 167,98.41 -0.09,-0.06 -0.16,0.01 -0.04,0.13 -0.43,-0.04 -0.02,0.08 0.02,0.47 -0.05,0.17 -0.15,0.23 0.06,0.07 0.26,0.04 0.54,0.02 0.06,-0.09 v -0.18 l 0.03,-0.22 v -0.49 z"
         id="path170"
         style="fill:#292929;fill-opacity:1;stroke:none" />
      <path
         d="m 164.57,99.08 0.09,-0.15 0.09,-0.03 0.05,-0.16 -0.25,-0.22 -0.1,-0.17 -0.01,-0.15 -0.1,-0.04 -0.22,0.04 -0.1,0.22 -0.02,0.12 -0.07,0.09 -0.21,0.08 -0.04,0.05 0.09,0.21 0.14,0.04 0.04,0.04 0.02,0.05 0.15,0.03 z"
         id="path172"
         style="fill:#292929;fill-opacity:1;stroke:none" />
      <path
         d="m 167.6,99.33 0.14,-0.3 0.07,-0.02 0.02,-0.18 v -0.21 l 0.08,-0.08 0.58,-0.1 -0.09,-0.18 -0.1,-0.12 -0.34,-0.2 -0.65,-0.04 -0.31,-0.08 -0.04,0.11 0.05,0.09 0.07,0.2 0.01,0.12 0.01,0.16 0.04,0.54 0.04,0.15 0.04,0.07 0.28,0.14 z"
         id="path174"
         style="fill:#292929;fill-opacity:1;stroke:none" />
      <path
         d="m 165.18,97.91 0.02,-0.11 -0.02,-0.17 -0.14,-0.09 -0.02,-0.05 -0.2,-0.13 -0.02,0.17 0.03,0.09 v 0.11 l -0.03,0.05 -0.03,0.11 0.32,0.23 z"
         id="path176"
         style="fill:#292929;fill-opacity:1;stroke:none" />
      <path
         d="m 160.42,96.3 -0.06,0.01 -0.23,0.16 -0.15,0.25 -0.32,0.09 -0.82,0.35 -0.15,0.17 0.16,0.05 0.17,0.17 0.17,0.09 0.22,-0.13 0.04,0.12 0.02,0.23 0.06,0.16 0.16,-0.05 0.09,-0.07 0.08,-0.27 0.04,-0.09 h 0.22 l 0.1,-0.2 0.03,-0.02 0.07,0.03 0.08,-0.28 0.07,-0.06 0.06,-0.23 0.07,-0.1 0.05,0.04 0.18,0.37 0.4,0.17 0.04,-0.02 v -0.36 l -0.1,-0.26 -0.07,-0.11 -0.06,-0.06 -0.07,-0.02 -0.24,0.05 z"
         id="path178"
         style="fill:#292929;fill-opacity:1;stroke:none" />
      <path
         d="m 170.48,96.39 -0.04,-0.14 -0.18,-0.09 -0.17,-0.03 -0.19,0.14 -0.34,0.15 -0.23,0.1 -0.14,0.01 -0.03,-0.16 -0.1,-0.04 -0.25,0.05 -0.09,0.08 -0.03,0.14 -0.04,0.08 -0.07,0.23 -0.05,0.4 -0.02,0.18 0.01,0.22 0.03,0.07 0.21,0.3 0.17,-0.06 0.26,-0.2 0.3,0.25 0.23,0.06 0.16,-0.35 0.21,-0.13 0.06,-0.21 0.06,-0.06 0.21,-0.07 0.02,-0.28 0.06,-0.2 0.02,-0.27 z"
         id="path180"
         style="fill:#292929;fill-opacity:1;stroke:none" />
      <path
         d="m 162.36,95.99 -0.11,0.01 -0.42,0.25 -0.18,0.19 -0.07,0.47 0.04,0.23 -0.01,0.41 -0.07,0.18 -0.31,0.03 -0.11,-0.21 -0.04,-0.04 -0.07,0.03 -0.07,0.07 -0.21,0.07 -0.17,0.11 -0.17,0.23 -0.52,0.59 0.07,0.18 0.07,0.08 0.1,0.22 0.18,0.01 0.06,-0.04 0.07,-0.16 0.14,-0.06 0.17,0.02 0.05,0.11 -0.17,0.24 -0.06,0.16 0.07,0.12 0.14,-0.03 0.06,-0.04 0.05,-0.09 0.04,-0.04 0.15,0.15 0.06,-0.06 0.04,-0.19 0.02,-0.1 0.02,-0.05 0.14,0.13 0.07,0.03 0.06,-0.03 0.02,-0.18 -0.01,-0.14 -0.02,-0.1 -0.03,-0.04 -0.16,-0.06 -0.01,-0.03 0.09,-0.22 0.06,-0.07 0.47,-0.03 0.15,-0.2 -0.03,-0.19 0.06,-0.1 0.3,-0.13 0.46,-0.05 0.13,-0.27 0.38,-0.35 -0.08,-0.22 -0.09,-0.02 -0.37,-0.62 -0.08,-0.11 -0.25,0.02 z"
         id="path182"
         style="fill:#292929;fill-opacity:1;stroke:none" />
      <path
         d="m 169.78,95.89 0.23,-0.27 0.06,-0.17 -0.07,-0.24 -0.6,0.07 -0.3,0.32 -0.05,0.07 -0.01,0.07 0.18,0.12 0.34,0.12 z"
         id="path184"
         style="fill:#292929;fill-opacity:1;stroke:none" />
      <path
         d="m 165.39,95.16 -0.06,0.01 -0.15,0.56 -0.03,0.36 -0.09,0.01 -0.13,0.13 0.02,0.25 0.21,0.11 0.1,0.02 0.07,0.07 0.03,0.12 0.3,-0.06 0.29,0.2 0.12,0.28 0.12,0.04 0.29,-0.02 0.34,-0.13 0.53,-0.39 0.07,-0.15 -0.08,-0.12 -0.45,-0.4 -0.3,-0.37 -0.21,-0.14 -0.48,0.04 z"
         id="path186"
         style="fill:#292929;fill-opacity:1;stroke:none" />
      <path
         d="m 168.06,95.49 -0.08,-0.09 -0.22,-0.15 -0.06,-0.08 -0.03,-0.02 -0.27,0.38 -0.17,-0.07 -0.14,0.14 0.14,0.44 0.23,0.11 0.13,0.41 0.24,0.12 0.24,-0.01 0.15,-0.05 0.05,-0.22 -0.02,-0.29 -0.06,-0.15 -0.04,-0.25 z"
         id="path188"
         style="fill:#292929;fill-opacity:1;stroke:none" />
      <path
         d="m 162.68,95.46 0.03,-0.11 0.1,-0.16 -0.04,-0.18 -0.11,-0.09 h -0.09 l -0.05,0.05 -0.01,0.06 -0.03,0.08 -0.06,0.02 v 0.09 l 0.03,0.08 0.07,0.17 0.07,0.02 z"
         id="path190"
         style="fill:#292929;fill-opacity:1;stroke:none" />
      <path
         d="m 171.31,96.96 0.8,-0.24 0.3,-0.27 0.31,-0.48 -0.05,-0.16 -0.01,-0.18 0.02,-0.21 -0.05,-0.17 -0.1,-0.21 -0.09,-0.12 -0.16,-0.12 -0.15,-0.01 -0.18,0.11 -0.04,0.13 -0.03,0.17 -0.03,0.31 -0.05,0.17 -0.17,0.07 h -0.16 l -0.34,0.06 -0.2,0.32 -0.16,0.18 -0.05,0.13 0.17,0.25 0.16,0.21 0.13,0.07 z"
         id="path192"
         style="fill:#292929;fill-opacity:1;stroke:none" />
      <path
         d="m 168.53,94.31 0.04,-0.09 -0.06,-0.18 -0.14,-0.15 -0.13,0.03 -0.17,0.14 -0.02,0.11 0.07,0.11 0.26,0.09 z"
         id="path194"
         style="fill:#292929;fill-opacity:1;stroke:none" />
      <path
         d="m 167.5,93.21 -0.06,-0.09 -0.18,0.1 -0.06,0.04 -0.19,-0.03 -0.08,0.14 -0.17,0.41 -0.22,0.16 -0.17,0.38 -0.25,-0.12 -0.22,0.09 0.07,0.37 0.1,0.18 0.33,-0.16 0.12,0.2 0.1,0.02 0.1,-0.11 0.11,-0.17 0.23,0.26 0.2,0.19 0.22,-0.15 0.09,-0.12 0.07,-0.26 -0.07,-0.22 -0.03,-0.29 0.35,-0.09 0.13,-0.14 -0.09,-0.21 -0.29,-0.09 -0.1,-0.11 z"
         id="path196"
         style="fill:#292929;fill-opacity:1;stroke:none" />
      <path
         d="m 171.49,92.91 0.09,-0.19 -0.01,-0.06 -0.04,-0.11 -0.62,-0.15 -0.35,0.06 -0.12,0.13 0.28,0.09 0.01,0.06 0.03,0.06 0.21,0.12 0.44,0.05 z"
         id="path198"
         style="fill:#292929;fill-opacity:1;stroke:none" />
      <path
         d="m 167.84,92.42 0.72,-0.21 V 92.1 l 0.04,-0.21 -0.1,-0.14 -0.77,0.13 -0.11,0.15 -0.02,0.23 -0.03,0.12 0.01,0.06 0.03,0.07 z"
         id="path200"
         style="fill:#292929;fill-opacity:1;stroke:none" />
      <path
         d="m 142.32,149.67 -0.04,-0.01 -0.04,0.07 -0.11,0.15 -0.11,0.13 -0.08,0.06 -0.2,-0.01 -0.09,0.04 -0.02,0.11 v 0.09 l -0.06,0.14 -0.07,0.11 -0.1,0.1 0.02,0.01 0.19,0.02 0.2,0.01 0.31,0.02 0.33,0.02 0.33,0.01 0.37,0.02 0.38,0.02 0.03,-0.01 -0.03,-0.06 -0.03,-0.1 v -0.08 l 0.02,-0.09 0.08,-0.24 v -0.04 l -0.06,-0.07 -0.08,-0.05 -0.04,-0.1 -0.15,-0.01 -0.14,0.01 -0.05,-0.01 -0.13,-0.04 -0.13,-0.07 -0.09,-0.05 -0.07,-0.04 -0.04,-0.05 -0.07,0.01 h -0.04 l -0.01,0.19 -0.02,0.2 -0.13,0.04 -0.08,-0.01 -0.07,-0.04 -0.07,-0.01 -0.06,-0.03 0.18,-0.24 z"
         id="path202"
         style="fill:#292929;fill-opacity:1;stroke:none" />
    </g>
  </g>
</svg>
