<?xml version="1.0"?>
<svg xmlns="http://www.w3.org/2000/svg" version="1.2" baseProfile="tiny" width="800" height="92" preserveAspectRatio="none" style="width:800px; height:92px;" viewBox="0 0 800 92" stroke-linecap="round" stroke-linejoin="round">
<g id="RUS">
<path d="M 725.22 85.48 725.01 85.32 725.46 85.22 725.63 85.34 725.22 85.48 Z M 724.09 83.81 724.6 84.08 724.29 84.29 723.88 84.37 723.44 84.68 723.12 85.04 722.72 85.25 722.65 85.65 722.39 85.49 722.44 85.2 722.89 84.91 723.13 84.62 723.5 84.31 723.88 83.8 724.09 83.81 Z M 729.4 81.99 728.99 82.15 728.65 82.21 728.08 82.54 727.88 82.71 727.59 82.79 727.31 82.74 727.1 83.06 726.54 83.41 726.31 83.68 726.07 83.73 725.62 84.01 725.79 83.66 726.16 83.44 726.19 83.21 726.4 83.01 726.8 82.81 727.09 82.56 727.31 82.49 727.56 82.27 727.81 82.19 727.78 82.03 727.99 81.86 728.19 82.11 728.79 82.07 729.42 81.62 729.87 81.56 729.82 81.98 729.4 81.99 Z M 731.81 81.27 731.27 81.38 731.76 80.83 732.05 80.75 732.42 80.43 733.27 80 733.73 80.01 733.02 80.45 732.93 80.62 732.63 80.81 732.24 80.96 731.81 81.27 Z M 743.16 73.14 742.95 73.23 742.72 73.18 742.73 72.98 743.2 72.39 743.32 72.57 743.15 72.79 743.16 73.14 Z M 745.63 70.94 745.34 71.16 744.73 71.29 744.46 71.52 744.12 71.4 744.07 70.95 744.31 70.96 744.55 70.79 745.09 70.72 745.3 70.54 745.54 70.09 746.01 69.9 746.07 70.12 745.9 70.61 745.63 70.94 Z M 746.7 70.15 746.52 70.19 746.17 69.99 746.63 69.7 746.88 69.74 746.87 69.94 746.7 70.15 Z M 745.01 69.79 744.81 69.81 744.62 69.58 745 69.59 745.01 69.79 Z M 716.45 61.87 716.93 62.43 716.82 62.84 716.8 63.2 717.48 64.3 717.7 65.04 717.7 65.82 717.37 66.4 717.33 66.99 717.41 67.3 717.64 67.74 717.69 68.1 717.99 68.35 718.03 68.73 718.17 68.85 718.61 70.49 718.79 70.98 719.31 71.84 719.64 72.61 719.8 73.14 720.39 74.06 719.83 73.67 719.48 73.36 719.13 73.21 718.61 73.14 717.83 73.18 717.51 73.24 717.22 73.39 717.04 73.59 716.92 74.01 716.04 75.88 715.98 76.3 716 76.62 716.25 77.07 716.42 77.26 716.68 77.39 717 77.77 717.18 78.26 717.47 78.71 717.97 78.72 718.18 79.2 718.27 79.68 718.11 79.97 717.91 79.98 717.76 79.42 717.61 79.24 716.61 79.14 716.3 78.9 716.05 78.92 715.67 79.25 715.44 79.68 715.23 80.28 714.94 80.66 714.68 80.45 714.39 79.48 714.47 78.94 714.79 78.19 714.85 77.95 714.73 77.49 714.69 76.96 715.17 76.01 715.07 75.4 714.83 74.99 714.54 74.59 714.47 74.38 714.81 73.65 714.91 73.14 715.08 72.57 715.11 71.13 714.92 70.47 714.99 69.89 715.23 69.4 715.23 68.9 714.97 68.44 714.78 68.24 714.15 67.76 714.34 67.64 714.03 67.32 714.01 66.57 714.06 66.38 714.33 65.95 714.45 65.42 714.49 64.87 714.38 64.21 714.69 63.95 715.08 63.86 715.47 64.06 715.93 63.97 716.06 63.77 715.9 63.66 716.19 63.33 716.33 62.97 716.25 62.81 715.51 62.12 715.99 62.13 716.3 61.82 716.45 61.87 Z M 772.49 61.49 771.68 61.2 771.76 61.04 772.14 61.21 772.49 61.49 Z M 704.08 60.3 703.81 60.69 703.23 60.51 703.67 60.32 704.08 60.3 Z M 705.77 60.32 706.28 60.39 705.94 60.75 705.88 60.92 705.28 61.27 705.15 61.3 704.71 60.81 704.3 60.99 704.29 60.77 704.65 60.49 704.96 60.09 705.77 60.32 Z M 769.41 60.88 769.4 61.2 768.99 60.91 768.69 60.83 768.23 60.46 767.95 60.1 767.41 59.87 767.81 59.75 768.58 59.84 768.52 60.16 768.86 60.51 769.41 60.88 Z M 762.72 52.54 762.6 52.46 762.93 52.11 763.06 51.82 763 51.63 763.98 51.45 764.68 51.16 764.93 51.41 765 51.72 764.9 51.91 764.15 52.02 763.44 52.23 762.72 52.54 Z M 555.21 35.03 554.82 35.06 554.39 34.89 553.99 34.56 554.72 34.51 555.34 34.6 555.21 35.03 Z M 1.45 29.63 2.17 29.69 2.6 29.88 3.5 30.04 3.9 30.5 4.88 30.51 6.14 30.91 6.75 31.17 7.86 31.45 11.32 32.42 11.74 33.12 12.08 32.96 12.42 33.15 12.22 33.72 12.56 34.11 12.59 34.4 12.25 34.76 12.8 34.81 13.18 34.95 13.49 35.37 13.84 35.14 14.26 35.3 14.8 35.18 14.48 34.99 14.07 34.95 13.79 34.74 14.17 34.61 14.29 34.42 14.11 34.05 13.31 33.7 14.56 33.69 15.01 33.61 16.17 33.77 16.01 34 17.31 34.09 17.36 33.87 18.13 34 18.66 33.99 19.19 34.08 20.15 34.64 21.11 34.97 22.12 35.43 22.62 35.54 22.74 35.7 23.66 35.83 23.77 36.01 23.54 36.15 22.81 36.13 21.97 36.44 21.92 36.91 21.69 36.98 20.69 36.82 20.83 37.14 20.47 37.25 19.92 37.18 18.94 37.26 18.83 37.16 18.11 37.07 17.77 36.88 17.5 37 18.26 37.42 18.1 37.9 18.26 38.25 17.42 38.56 16.52 38.63 16.96 38.82 16.69 39.01 16.84 39.22 17.65 39.37 17.84 39.66 17.09 39.66 16.98 39.47 16.63 39.45 16.7 39.76 16.5 39.92 15.91 39.93 15.46 39.63 14.9 39.77 14.3 39.58 13.6 39.16 13.04 38.99 12 38.77 11.21 38.8 10.19 38.34 10.24 38.13 10.04 37.58 9.66 37.32 7.53 37 6.57 37.24 4.75 37.29 4.31 37.17 4.32 36.72 3.93 36.6 3.48 36.28 3.78 36.11 4.13 35.7 4.25 35.44 3.4 35.74 2.98 35.63 2.98 35.38 2.46 35.51 2.49 35.78 1.85 35.86 1.48 36.1 1.6 36.58 2.41 36.94 2.44 37.21 2.07 37.5 1.65 37.95 1 38.21 1 36.04 1 34.41 1 32.79 1 30.62 1 29.53 1.45 29.63 Z M 549.28 28.32 549.1 28.51 548.57 28.42 549 28.22 549.28 28.32 Z M 757.92 29.71 757.91 29.5 757.19 29.25 757.25 28.75 757.13 28.45 758 28.08 758.25 28.18 758.08 28.53 757.66 28.67 757.76 29.26 758.03 29.56 757.92 29.71 Z M 775.06 28.21 774.43 28.23 773.17 28.02 771.93 27.64 772.1 27.5 772.84 27.26 773.19 27.24 775.45 27.54 775.54 27.77 775.28 27.86 775.06 28.21 Z M 796.48 25.44 795.96 24.96 796.54 24.55 797.3 24.34 798 24.07 799 23.87 799 25.08 798.22 25.28 797.12 25.33 796.48 25.44 Z M 705.81 23.93 705.26 24.12 704.7 23.99 703.86 23.95 704.31 23.77 705.49 23.76 705.81 23.93 Z M 3.49 23.78 4.65 23.89 5.49 24.19 6.47 24.48 6.49 24.69 5.83 24.91 4.26 25.03 2.87 25.19 2.09 25.23 1 25.08 1 23.87 1.68 23.78 2.33 23.8 2.97 23.74 3.49 23.78 Z M 572.09 22.2 570.47 22.18 570.47 22.03 571.01 21.87 571.52 21.59 572.34 21.44 573.52 21.62 573.71 21.77 572.09 22.2 Z M 576.23 21.24 574.85 21.18 574.43 21.06 574.36 20.87 575.48 20.42 576.32 20.81 576.23 21.24 Z M 565.5 20.91 565 20.83 564.26 20.58 564.47 20.39 565.64 20.39 565.5 20.91 Z M 666.58 20.43 665.54 20.53 665.2 20.35 666.17 20.28 666.58 20.43 Z M 556.66 20.42 556.01 20.52 554.99 20.44 555.21 20.13 555.16 19.83 555.94 19.57 557.25 19.49 557.9 19.63 558.69 20 558.77 20.24 556.66 20.42 Z M 570.14 19.64 568.99 19.57 569.02 19.4 570.14 19.64 Z M 567.37 19.61 567.51 19.43 568.31 19.36 568.08 19.61 567.37 19.61 Z M 715.18 18.64 716.18 18.85 717.75 19.37 718.01 19.61 718.07 20.08 717.41 20.14 715.53 20.07 713.87 19.94 712.96 19.76 711.8 19.62 711.2 19.66 710.39 19.83 709.64 19.68 711.18 19.56 711.65 19.38 712.29 18.9 712.74 18.71 714.62 18.6 715.18 18.64 Z M 701.9 18.6 701.58 18.57 700.14 17.96 700.64 17.92 701.55 18.21 702.04 18.44 701.9 18.6 Z M 712.57 18.41 711.46 18.59 710.74 18.4 710.56 18 711.24 17.82 712.22 17.8 712.77 18.04 712.57 18.41 Z M 651.34 17.52 651.06 17.81 650.43 17.97 650 18.2 648.7 18.09 647.48 17.81 647.17 17.63 648.15 17.55 648.45 17.19 650.38 17.35 651.34 17.52 Z M 592.08 16.23 592.85 16.21 593.13 16.33 592.69 16.57 591.5 16.52 591.37 16.33 592.08 16.23 Z M 582.15 15.26 582.26 15.42 581 15.55 580.66 15.38 581.57 15.09 582.15 15.26 Z M 725.4 15.37 725.98 15.39 726.95 15.22 729.03 15.28 729.12 15.59 730.04 15.69 730.47 15.61 732.73 15.71 733.68 15.97 734.32 15.85 733.93 16.32 733.23 16.49 731.61 16.7 730.39 16.7 728.27 16.58 727.24 16.28 726.17 16.2 725.19 15.94 723.96 15.75 724.2 15.32 724.61 14.96 725.3 15.06 725.4 15.37 Z M 701.35 15.29 700.25 15.33 700.56 14.92 700.61 14.49 701.84 14.85 701.43 15.04 701.35 15.29 Z M 710.44 14.36 711.2 14.43 711.43 14.66 712.14 14.8 712.43 14.64 712.39 14.27 712.62 14 713.63 13.67 714.2 13.74 715.79 14.19 717.39 14.39 718.5 14.28 721.98 14.9 720.81 15.38 721.16 15.6 720.1 15.97 719.24 16.09 717.36 15.93 716.38 15.45 716.39 14.99 716.99 14.73 716.85 14.61 715.99 14.6 714.96 14.73 715.1 15.18 715.35 15.43 716.13 15.9 716.83 16.06 717.27 16.26 716.49 16.49 715.81 16.59 715.4 16.53 714.74 16.21 713.24 16.36 710.93 16.53 709.8 16.27 709.46 16.31 708.84 16.89 708.34 16.95 706.1 16.64 705.2 16.17 704.17 15.92 703.7 15.67 703.64 15.38 704.33 15.42 704.16 14.96 704.28 14.53 705.25 14.51 704.79 14.18 705.07 14 705.85 13.92 706.36 13.72 707.7 13.53 709.76 14.08 710.44 14.36 Z M 613.98 13.36 613.04 13.63 611.27 13.5 612.33 13.33 613.98 13.36 Z M 649.33 12.6 649.73 12.85 649.45 12.98 648.29 12.57 649.33 12.6 Z M 730.62 12.51 728.95 12.54 729.66 12.32 730.88 12.32 730.62 12.51 Z M 613.43 11.7 612.48 11.82 611.52 11.63 612.48 11.54 613.97 11.3 614.04 11.47 613.43 11.7 Z M 598.42 11.34 597.6 11.26 597.91 11.09 598.65 11.07 598.42 11.34 Z M 516.9 68.29 517.15 67.84 519.45 67.84 522.44 67.77 524.81 68.15 526.27 68.53 527.8 68.61 529.79 68.07 530.64 65.93 530.79 64.62 531.33 62.56 531.48 61.18 531.56 59.87 531.25 58.49 530.71 55.58 530.56 53.51 530.33 49.07 530.41 46.62 530.94 44.7 531.1 42.71 531.4 41.48 532.32 39.42 533.7 38.42 536.31 37.19 537 37.19 538.22 37.04 539.83 36.27 544.28 34.05 545.65 33.44 546.27 32.67 547.11 30.76 547.11 29.58 548.52 29.77 548.85 30.04 549.93 30.43 550.14 30.57 551.08 30.82 551.56 31.01 551.85 30.94 552.57 30.45 553.26 29.6 552.42 29.68 551.94 29.57 550.99 28.97 550.75 28.43 549.9 28.2 548.66 27.96 548.08 28.03 548.14 27.63 548.35 27.25 548.67 27.26 549.05 27.04 548.84 26.79 549.06 26.17 549.15 25.64 548.83 25.42 548.12 25.51 547.78 25.28 548.18 24.92 548 24.75 548.33 24.43 549.72 24.15 550.64 23.84 551.33 23.55 552.08 22.82 552.57 21.98 553.04 21.36 553.82 20.73 554.38 20.85 556.62 20.87 558.49 20.82 559.44 21.03 560.59 21.09 561.4 21.31 561.27 22.08 560.98 22.67 560.22 23.52 559.41 23.85 559.31 24.05 559.78 24.38 560.89 24.73 561.16 25.14 561.22 25.45 561.15 26.26 560.64 26.67 560.77 26.89 560.93 27.74 560.96 28.42 560.84 28.65 560.77 29.31 560.88 29.56 561.4 29.9 562.24 30.14 563.03 30.44 563.13 30.64 562.85 30.76 562.13 31.31 562.15 32.01 561.7 32.38 560.92 32.63 559.26 33.91 558.86 34.06 558.19 34.01 558.61 34.46 558.58 34.63 558.14 34.62 557.25 34.93 556.77 34.99 556.02 34.81 555.79 34.62 554.89 34.27 554.59 34.34 553.43 34.31 552.98 34.4 553.38 34.86 553.86 35.01 554.5 35.07 555.13 35.25 555.92 35.38 557.71 35.33 558.64 35.4 559.42 35.6 559.75 35.58 560.31 35.41 560.53 34.9 562.57 34.35 563.57 33.94 563.77 33.74 564 33.2 564.2 33.01 565.53 32.39 565.74 32.23 565.68 31.55 565.44 31.23 564.9 30.78 565.1 30.25 565.32 30.04 566.53 29.8 567.56 29.71 568.71 29.55 569.48 29.54 570.1 29.99 570.93 30.39 571.21 30.67 571.26 31.01 571.23 31.84 571.07 32.2 572.18 32.62 572.87 32.69 574.94 32.62 574.76 32.53 574.14 32.51 571.99 32.26 571.87 31.69 572.16 31.29 572.89 31.13 572.69 30.64 572.42 30.31 572.13 29.71 571.41 29.59 569.9 29.23 568.47 28.97 567.18 28.96 566.37 29.24 565.84 29.29 564.84 29.17 563.98 29.24 563.54 29.05 563.79 28.57 563.66 28.38 563.06 27.93 563.1 27.71 563.66 26.89 564.49 26.29 564.79 25.99 564.72 25.83 563.44 24.91 562.94 24.48 562.15 24.21 562.01 24.07 563.31 23.19 563.9 23.03 564.72 22.94 566.23 22.52 566.45 22.26 566.47 21.91 566.27 21.47 565.78 21.04 566.59 20.95 567.07 21.08 567.59 21.56 567.56 21.83 567.89 22.19 567.47 22.46 567.12 22.88 566.86 22.93 566.8 23.26 567.37 23.61 567.29 23.88 566.87 24.11 566.99 24.3 568.71 24.58 570.67 24.66 571.99 24.69 573.05 25.09 574.07 25.26 574.2 25.07 573.76 24.87 573.37 24.47 572.7 24.34 571.75 24.37 570.4 24.07 569.16 23.74 568.54 23.04 569.4 22.83 570.4 22.77 570.82 22.83 571.9 23.19 572.41 23.21 573.31 23.05 573.42 22.95 572.94 22.64 572.41 22.59 571.78 22.68 571.73 22.42 572.31 22.34 572.83 22.11 573.97 21.97 576.05 22 577.23 22.35 578.38 22.5 579.02 22.65 579.23 22.91 580.68 23.41 581.94 23.49 582.98 23.38 583.95 23.4 584.5 23.58 583.8 24.13 582.48 24.48 582.3 25.07 582.51 25.49 583.69 25.16 584.1 25.47 584.05 25.99 583.81 26.37 583.28 26.79 583.67 27.05 584.16 27.07 584.15 26.66 585.09 26.51 585.45 26.35 585.61 26.07 585.27 25.58 584.72 25.09 584.32 24.83 584.57 24.45 585.25 23.74 585.17 23.54 584.43 23.12 583.2 23.01 582.47 22.68 582.17 22.32 581.31 22.12 580.18 22.05 579.17 21.76 578.79 21.27 579.2 20.74 579.01 20.57 578.46 20.44 578.22 19.84 578.65 19.58 578.63 19.37 581.36 19.17 585.19 19.15 587.13 19.03 587.84 18.94 588.59 19.03 589.41 19 589.77 18.81 591.94 18.64 592.61 18.66 592.92 18.8 591.44 19.25 590.25 19.53 590.5 19.61 591.47 19.37 593.12 19.26 593.67 18.95 594.12 18.83 593.31 18.68 592.18 17.98 591.9 17.87 590.64 17.71 591.04 17.47 592.11 17.49 592.62 17.69 593.36 17.6 592.19 17.25 590.89 17.02 590.17 16.98 591.08 16.6 592.08 16.9 592.55 16.82 593.78 16.32 593.89 16.16 593.16 16.03 593.23 15.77 594.34 15.91 596.18 15.55 596.69 15.38 597.97 15.15 598.6 15.18 599.91 14.88 601.73 14.75 602.78 14.75 603.59 14.59 607.37 14.3 606.54 14.07 606.72 13.76 607.59 13.86 608.59 13.7 609.64 13.64 610.67 13.73 611.38 13.67 612.62 13.73 612.77 13.96 613.93 13.96 613.9 14.22 614.75 14.13 615.47 13.94 616.12 14.02 616.5 13.8 618.7 13.44 620.7 13.73 621.28 13.68 620.82 13.44 619.02 12.91 619.16 12.85 620.73 12.93 622.38 12.91 623.54 12.81 624.1 12.42 623.71 12.15 623.86 11.78 624.29 11.7 625.03 11.32 627.45 10.63 628.61 10.37 629.56 10.36 630.57 10.14 632.34 10.31 632.67 10.44 634.73 10.68 635.1 10.89 634.38 10.98 633.6 11.23 632.55 11.37 633.46 11.56 634.18 11.54 634.33 11.76 635.72 11.65 637.05 11.68 638.14 11.92 636.38 12.71 636.8 12.91 637.53 12.82 638.57 12.85 639.18 12.71 639.46 12.38 640.82 12.38 642.44 12.32 643.79 12.4 644.88 12.3 646.3 12.37 647.79 12.64 648.47 12.91 649.64 13.13 650.04 13.69 651.43 13.73 651.73 14.22 652.41 14.3 651.86 14.88 651.35 14.69 650.76 14.64 649.66 14.34 650.39 14.93 651.27 15.01 652.09 15.19 651.84 15.54 650.32 16.16 648.69 16.52 647.97 16.77 646.71 16.95 645.81 17.2 644.66 17.38 644.33 17.57 643.48 17.7 643.41 18.04 642.75 18.21 641.78 18.34 639.84 19.09 638.88 19.24 637.78 19.25 636.47 19.89 635.38 19.94 634.25 20.72 633.62 20.98 634.32 20.99 635.11 20.74 635.43 20.49 636.03 20.32 637.42 20.23 638.85 20.24 639.4 20.1 641.82 19.79 642.35 19.55 643.51 19.58 644.78 19.23 645.55 19.1 645.43 18.9 644.69 19.02 643.29 19.02 643.09 18.85 643.54 18.56 644.41 18.37 646.17 18.54 646.94 18.79 647.83 18.97 648.59 19.06 650.03 18.97 650.56 18.6 651.41 19.19 650.83 19.61 651.57 19.86 651.72 20.11 652.45 19.86 651.68 19.67 651.61 19.51 652.83 19.33 654.51 19.28 655.67 19.07 658.23 19.13 660.03 19.3 662.56 19.32 663.5 19.43 663.64 19.56 662.58 19.6 662.4 19.81 662.52 20.08 663.7 20.37 664.73 20.49 665.45 20.67 667.33 20.67 668.21 20.77 669 20.69 670.18 20.71 670.5 20.85 671.97 20.87 671.55 20.69 671.8 20.56 673.01 20.73 673.67 20.31 674.03 20.2 673.5 19.86 673.33 19.45 673.74 19.15 674.42 19.24 674.91 19.05 675.73 18.95 676.63 19.05 678.45 19.47 678.41 19.64 679.86 19.41 679.87 19.7 680.52 19.88 681.16 19.66 681.59 19.41 683.16 19.56 684.36 19.89 685.7 20.21 686.07 20.53 685.06 20.86 685.99 20.91 686.46 21.12 686.51 21.28 685.14 21.62 684.95 21.74 686.21 21.77 686.57 21.87 686.86 22.14 686.86 22.47 686.58 22.64 685.81 22.67 684.79 22.3 683.3 21.88 683.38 22.16 684.53 22.65 685.75 23.39 686.04 23.33 686.42 23.03 686.97 23.42 685.84 23.49 685.78 23.73 686.25 23.75 687.64 24.8 688.22 24.92 688.79 25.18 689.65 25.31 690.73 25.63 691.63 25.28 692.39 24.61 692.68 24.52 692.61 24.28 693.1 23.64 693.85 23.08 695.11 23.72 695.76 23.97 697.26 24.22 698.59 24.2 699.3 23.92 700.05 23.86 700.49 23.71 701.21 23.66 702.37 23.79 704.38 24.26 705.13 24.6 706.1 24.38 705.72 24.21 706.16 23.81 706.61 23.72 707.06 23.81 707.39 23.65 708.13 23.83 708.58 24.07 709.52 23.98 710.3 23.97 709.66 23.51 709.72 23.1 708.91 22.95 709.54 22.85 709.99 22.51 709.48 22.34 709.07 22.48 708.51 22.48 708.43 22.11 709.45 21.74 711.33 21.75 712.73 21.54 712.49 21.25 711.78 20.98 712.12 20.87 713.24 20.94 713.7 21.1 714.9 21.25 718.13 21.3 720.46 21.49 722.49 21.64 724.19 21.86 724.15 22.07 722.45 22.04 721.89 21.97 720.92 22 720 22.26 720.24 22.46 721.5 22.27 724.95 22.17 725.42 22.32 724.52 22.76 723.65 22.96 724.14 22.54 722.99 22.39 722.89 22.7 723.09 22.97 722.32 23.09 721.7 23 721.39 23.39 721.83 23.52 723.2 23.41 723.8 23.27 724.45 23.02 725.62 22.41 726.13 22.2 726.81 22.09 728.96 22.15 730.21 22.28 731.4 22.48 732.42 22.86 732.54 23.07 732.24 23.19 730.9 23.23 730.39 23.3 730.11 23.48 731.39 23.59 732.18 23.73 732.63 23.93 733.83 23.91 733.98 24.05 733.04 24.47 734.65 24.22 735.04 24.23 736.01 24.42 737.14 25.01 736.41 25.1 738.06 25.43 738.7 25.42 740.17 25.33 740.91 25.33 742.28 25.12 743.65 24.98 744.9 24.97 745.57 24.85 747.32 24.85 749.01 24.89 750.32 24.97 751.79 25.2 753.23 25.52 754.06 25.84 754.47 26.15 754.68 26.59 754.29 27.1 754.31 27.3 754.07 27.56 754.3 27.75 754.93 27.88 756.31 28.04 756.69 28.15 756.96 29.28 757.57 29.53 757.64 29.7 757.17 30.26 757.39 30.26 757.69 29.89 758.14 29.7 758.14 29.35 757.95 29.05 758.07 28.65 758.98 28.29 759.93 28.05 761.76 27.91 762.42 27.96 763.41 27.86 763.89 27.9 764.67 28.14 767.44 28.2 767.92 28.28 769.79 28.39 770.35 28.26 771.58 27.85 772.29 27.94 772.73 28.21 773.07 28.89 774.5 29.13 775.31 29.32 775.54 29.67 775.97 29.97 778.03 29.88 779.04 29.39 779.04 29.19 778.42 28.63 778.12 28.2 777.19 28.1 777.95 27.59 777.91 27.04 779.6 27.11 781.2 27.28 782.51 27.35 784.1 27.67 784.46 27.39 785.58 27.56 786.41 27.54 787.44 27.6 788.57 27.59 789.58 27.49 790.37 27.59 791.04 27.79 792.18 28.06 793.22 28.14 794.42 28.39 795.55 28.49 796.45 28.64 796.67 28.84 797.39 28.92 798.71 29.47 799 29.53 799 38.21 798.62 38.28 797.78 38.75 797.12 38.84 796.12 39.18 795.72 39.24 795.2 39.09 794.01 38.99 793.64 38.85 792.75 38.33 792.43 38.36 792.84 38.67 792.5 38.83 791.98 38.69 790.68 38.71 790.91 39.01 791.75 39.19 792.46 38.98 793.21 38.86 793.39 38.94 793.26 39.31 793.31 39.59 793.87 39.9 794.46 40.08 794.86 40.06 795.08 39.77 795.41 40 795.62 40.29 795.57 40.55 796.01 40.65 796.19 41.31 795.54 41.45 796.13 41.64 796.6 41.91 796.85 42.17 797.52 42.37 797.68 42.62 797.36 42.78 797.63 43.05 797.92 43.1 798.05 43.49 797.84 43.65 797.18 43.97 797.05 44.3 794.61 43.8 793.82 43.72 793.13 43.71 793.01 43.58 793.15 43.38 792.4 43.29 792.27 43.47 792.7 43.77 791.69 43.89 790.86 44.24 788.51 44.78 788.34 44.93 787.47 45.15 787.29 45.13 786.84 45.4 786.01 45.46 785.31 45.72 784.87 45.64 783.78 46.33 783.17 46.19 783.06 46.26 783.28 46.54 782.89 46.53 782.56 46.8 782.14 46.86 782.14 47.09 781.42 47.41 780.89 47.59 780.67 47.57 780.14 47.83 778.94 48.28 778.18 48.48 777.77 49.34 777.61 49.52 777.17 49.47 776.79 49.29 776.58 48.96 775.99 48.47 775.23 48.21 775.12 48.12 773.89 48.2 773.43 48.13 772.7 48.17 771.84 48.31 771.57 48.4 770.69 48.54 770.1 48.76 768.7 49.73 768.38 49.78 768.27 49.49 768.75 48.37 768.37 48.38 767.84 48.65 767.04 48.92 766.67 48.99 766.38 49.14 765.94 49.22 765.91 49.56 765.79 49.75 765.43 49.8 765.02 49.45 764.7 49.31 764.37 49.31 763.83 49.48 763.05 49.35 762.23 49.81 762.03 50.1 761.91 50.51 761.92 50.99 761.5 51.37 761.18 51.41 761.33 51.62 760.53 52.1 760.1 52.31 759.41 52.89 759.01 53.71 759.19 54.06 759.54 54.26 760.14 54.4 760.26 54.09 760.69 54 761.64 54.24 761.82 54.34 761.79 54.57 761.56 54.84 760.83 55.3 760.79 55.55 760.91 56.04 760.88 56.51 761.14 56.71 761.42 56.67 761.89 56.78 761.86 57.06 762.06 57.79 761.42 58.21 760.96 58.16 760.49 57.8 760.68 57.58 761.26 57.31 760.59 57.22 760.18 57.43 760.27 57.73 759.42 58.03 759.29 58.11 758.93 58.66 758.6 59.08 758.49 59.43 758.5 59.73 758.71 60.22 759.09 60.53 759.28 60.78 759.33 61.08 758.49 61.56 757.54 61.59 757.17 61.42 756.38 61.54 755.81 61.79 755.31 62.1 754.83 62.32 754.49 62.72 754.32 63.22 754.38 63.47 754.57 63.74 754.44 64.12 754.67 64.35 754.72 64.67 754.55 64.68 754.16 64.45 753.75 64.43 752.75 64.7 752.34 64.85 751.89 65.16 751.65 64.93 751.28 64.89 751.19 65.05 751.58 65.24 751.3 65.79 751.34 66.16 751.26 66.5 750.97 66.98 750.46 67.6 749.84 68.05 749.19 68.33 749.1 68.49 748.46 68.92 747.68 69.38 747.46 69.46 747.29 68.89 747 68.7 746.91 68.34 746.89 67.37 746.64 66.36 746.61 66.05 746.31 65.79 746.04 65.26 746.02 64.95 745.59 62.9 745.15 61.59 744.96 60.83 744.81 59.75 745.01 58.77 745.17 58.15 745.76 56.77 745.95 56.58 746.97 56.05 747.41 55.76 747.97 55.06 747.9 54.73 747.55 54.44 747.99 54.25 748.5 54.37 749.02 54.32 749.49 53.83 750.18 53.91 750.7 53.82 751.76 53.25 752.53 52.94 753.76 52.1 754.33 51.38 755.44 50.79 755.88 50.45 756.56 50.27 757.37 49.79 757.88 49.38 758.55 49.11 759.11 48.51 759.69 48.25 760.68 47.98 761.26 47.71 762.1 47.67 762.89 47.41 762.54 47.17 762.69 46.98 763.3 46.69 763.55 46.46 763.47 46.3 763.1 46.2 763.27 45.81 763.58 45.65 763.7 44.91 763.99 44.36 764.86 43.97 766.03 44.1 766.63 43.92 765.85 43.86 765.29 43.74 764.79 43.51 764.1 43.47 762.05 43.79 761.86 44 761.99 44.18 761.68 44.43 761.61 44.9 761.36 45.25 761.34 45.47 761.89 45.68 761.51 45.96 761.14 45.9 761 45.66 760.65 45.78 759.97 45.76 759.52 46.03 756.97 47.31 756.37 47.77 755.74 47.8 755.05 48.03 755.17 47.6 755.51 47.17 755.08 47.12 754.2 47.32 754.55 46.94 754.41 46.58 755.03 46.04 755.37 45.47 755.35 45.24 755.07 45.23 753.67 45.63 753.1 45.2 752.62 45.18 752.06 45.34 751.45 45.43 750.97 45.4 750.39 45.56 749.79 45.46 749.06 45.46 748.84 45.57 748.2 45.73 747.31 46.16 747.2 46.62 746.56 46.88 745.92 47.24 745.47 47.72 745.17 47.93 744.53 48.22 743.52 48.61 742.65 49.23 742.34 49.7 742.02 49.81 741.96 50.2 741.7 50.49 742.16 50.59 742.66 50.46 743.52 50.66 743.95 50.86 743.94 51.24 743.19 51.24 742.93 51.35 742.38 51.18 741.91 51.42 741.39 51.49 740.69 51.16 739.95 51.18 739.76 51.46 739.32 51.48 738.89 51.8 738.21 51.76 737.82 51.6 737.3 51.67 737.13 51.86 736.28 51.96 735.44 51.94 734.99 51.48 735.84 51.3 736.34 51.34 736.91 51.31 737.51 51.16 737.16 51.02 736.49 50.94 735.79 50.5 735.09 50.37 734.68 50.39 734.41 50.61 734.12 50.62 733.7 50.5 733.51 50.35 731.71 49.95 730.93 50.05 730.43 50.26 730.74 50.58 730.12 50.61 729.83 50.48 729.64 50.67 729.72 50.83 730.21 50.84 730.09 51.03 729.16 51.08 728.64 50.74 727.79 50.8 727.37 51.02 726.99 51.06 725.94 50.85 725.41 50.83 724.82 50.65 724.62 50.71 724.24 51.17 723.74 51.28 723.48 51.22 723.09 50.83 722.65 50.74 720.27 50.83 718.91 50.75 718.14 50.9 717.41 50.84 716.05 51.13 715.5 51.32 714.82 51.66 714.22 52.22 713.32 52.71 712.52 52.95 711.85 53.41 711.43 54.18 711.32 54.29 710.34 54.57 710.03 54.88 709.49 55.08 709.1 55.36 708.52 55.51 708.04 55.9 707.37 56.17 706.38 56.92 706.06 57.35 705.22 58 704.95 58.06 704.53 58.37 703.23 58.99 702.49 59.25 701.86 59.75 700.91 60.17 700.45 60.27 699.83 60.65 699.72 60.88 699.82 61.12 701.14 61.45 701.99 61.38 703.23 61.37 703.29 61.74 703.17 61.96 703.08 62.61 702.98 62.9 703.06 63.18 703.43 63.1 704.03 63.14 704.26 62.69 703.9 62.46 704 62.34 704.52 62.12 705.16 62.12 704.82 62.4 704.44 62.52 705.06 62.81 705.53 62.86 705.11 63.04 704.83 63.39 704.17 63.68 704.41 63.77 705.32 63.72 705.79 63.62 706.46 63.35 706.74 62.94 707.16 62.86 707.16 63.15 706.55 63.65 706.9 63.77 707.36 63.31 707.5 62.65 707.44 62.03 708.35 62.26 708.83 62.32 709.68 62.13 710.73 62.63 710.87 62.74 711.1 63.16 711.86 63.64 712.56 63.86 712.58 63.95 713.03 64.22 713.38 64.31 713.44 64.55 713.28 64.74 712.95 64.93 712.3 64.76 712.27 64.87 712.74 65.19 713.12 65.31 713.09 65.96 712.84 66.21 712.93 66.36 713.63 66.78 713.4 67.05 713.36 67.35 713.12 67.49 712.84 67.78 712.4 68.02 712.19 68.48 711.86 68.88 711.82 69.28 711.49 69.84 711.39 70.4 711.52 71.32 711.72 71.43 711.36 71.81 711.47 72.14 711.48 72.51 711.29 73.09 711.02 73.71 711.17 73.91 710.83 74.33 710.71 74.88 710.58 75.11 710.33 75.33 709.8 75.64 709.62 75.84 708.94 76.29 708.49 76.85 708.12 77.41 707.2 78.13 707.01 78.5 706.77 78.83 706.65 79.27 706.37 79.45 706.14 79.92 705.39 80.64 705.2 80.88 704.63 81.27 704.01 81.82 703.25 82.31 703.1 82.52 702.81 82.74 702.49 83.09 702.02 83.43 701.78 83.83 701.19 84.08 700.43 84.97 700.32 85.28 699.83 85.61 699.54 85.96 699.07 86.18 698.57 86.48 697.38 87.03 697.06 87.24 696.39 87.5 696.12 87.51 695.55 87.65 695.17 87.8 694.95 87.74 694.81 87.55 694.51 87.58 694.17 87.4 693.88 87.41 693.67 87.33 693.27 87.39 693.34 86.6 693.12 86.58 692.66 86.86 692.37 86.75 692.63 86.51 692.46 86.46 692.14 86.56 691.53 87.13 691.26 87.52 691.03 87.63 690.73 87.96 690.26 87.94 689.84 87.85 690.02 88.18 689.78 88.62 689.61 88.52 689.33 88.16 689.44 87.96 689.11 87.73 689.45 87.54 690.54 87.34 690.57 87.04 690.77 86.81 690.96 86.17 690.79 86.01 690.77 85.56 690.86 84.9 690.95 84.75 690.52 83.45 690.31 83.14 690.57 82.89 690.89 82.87 691.37 82.73 691.67 82.51 691.83 82.24 692.27 81.97 692.55 82.15 694.67 82.63 695.07 82.4 695.07 81.98 695.23 81.6 695.78 81.35 695.95 80.75 696.34 80.46 696.37 80.17 696.73 79.93 696.82 79.66 696.74 79.37 697.08 78.9 697.12 78.57 697.34 78.11 697.48 77.98 697.41 77.59 697.68 77.34 698.11 77.27 698.35 77.1 698.7 76.67 698.29 75.99 698.52 75.7 698.51 75.48 698.28 75.33 697.68 75.22 696.68 75.44 695.85 75.83 695.14 75.81 694.54 76.09 694.17 76.16 693.85 76.56 693.44 76.64 692.12 76.75 691.62 76.75 691.09 76.65 690.39 76.73 690.23 76.58 690.05 76.2 689.79 76 689.75 75.76 689.95 75.29 689.39 74.71 689.53 74.33 689.39 74.13 688.6 74.07 688.25 73.89 687.71 73.39 687.13 73.11 687.05 72.96 686.22 73.02 685.81 72.83 685.55 72.8 685.29 72.5 684.26 72.59 683.73 72.57 683.09 72.34 682.63 71.89 682.65 71.45 682.83 71.15 682.39 70.95 682.2 70.6 682.29 70.39 682.2 70.04 681.56 69.42 681.35 69.17 681.15 68.7 681.09 68.27 680.87 68.14 680.85 67.83 680.43 67.34 680.31 66.9 680.18 66.79 680.15 66.54 679.99 66.29 679.65 65.97 679.34 65.82 679.41 65.54 679.02 65.24 678.7 65.2 678.52 64.87 678.02 64.77 677.58 64.59 677.02 64.52 676.67 64.66 676.29 64.49 675.9 64.45 675.51 64.2 674.85 64.06 674 63.75 673.59 63.78 672.99 63.75 672.08 63.92 671.58 63.95 671.18 63.89 670.63 63.96 669.12 64.26 668.18 64.33 667.56 64.58 666.93 65.03 666.21 65.43 666.15 65.77 666.38 65.84 666.8 65.79 667.16 65.81 667.45 65.92 667.55 66.08 667.44 66.3 667.48 66.51 667.65 66.72 667.66 66.96 667.51 67.24 667.13 67.51 666.53 67.79 666.15 68.06 665.93 68.46 665.59 68.8 665.44 69.15 665.05 69.51 664.77 70.05 664.41 70.37 664.21 70.77 664.45 70.83 664.55 70.99 664.51 71.27 664.36 71.46 663.74 71.66 663.24 71.69 662.57 71.95 661.29 72.69 660.9 72.64 660.41 72.48 659.89 72.44 659.1 72.19 658.65 72 658.36 71.79 657.61 71.59 657.43 71.59 656.51 71.87 655.87 71.84 655.53 71.72 654.92 71.3 654.35 71.09 653.36 71 652.86 71.16 652.44 71.39 651.76 71.59 650.85 72.06 650.61 72.46 650.05 72.67 649.81 72.7 649.36 72.65 648.44 72.89 647.68 72.95 647 73.07 646.8 73.04 645.67 73.46 645.23 73.52 644.78 73.34 644.28 73.45 642.79 73.23 642.14 73.08 641.02 73.08 640.76 73.11 640.3 72.95 639.87 72.66 639.47 72.51 639.26 72.3 639.28 71.78 638.58 71.65 637.7 71.63 637.27 71.42 637.05 71.17 636.54 70.92 636.24 70.88 635.45 70.93 634.69 70.71 634.29 70.69 633.6 70.56 633.34 70.59 632.96 70.75 631.57 70.93 631.32 71 630.93 71.23 630.71 71.27 630.1 71.22 629.72 71.3 628.99 71.17 628.68 70.97 628.01 70.87 627.61 70.75 627.14 70.44 626.74 70.31 626.8 70.02 626.58 69.77 626.53 69.28 626.44 69.16 626.45 68.7 626.35 68.61 625.15 68.36 624.73 68.39 624.38 68.26 622.71 67.78 621.74 67.76 621.49 67.72 621.04 67.46 620.35 67.35 619.53 67.1 619.36 66.95 619.11 67.02 619.01 67.27 618.65 67.62 618.02 67.8 617.76 68.11 617.72 68.27 617.32 68.4 617.12 68.62 617.04 69.03 616.85 69.43 617.13 69.71 617.3 70.18 617.55 70.35 617.85 70.43 617.79 70.94 617.46 71.44 616.91 71.73 616.32 71.81 616.22 71.96 615.81 72.18 615.48 72.21 614.99 71.87 614.38 71.81 614.13 71.88 613.92 71.79 613.5 71.83 612.95 71.61 612.66 71.7 612.47 71.58 611.74 71.81 611.44 71.74 610.68 71.7 610.43 71.51 609.73 71.56 609.62 71.42 609.15 71.12 609 70.48 608.92 70.38 607.54 70.31 606.75 70.25 606.38 70.27 606.17 70.16 606.02 69.89 605.66 69.88 605.32 70.08 604.72 69.69 604.59 69.73 604.36 70.06 603.5 70.07 603.04 70.33 602.47 70.57 601.76 70.69 601.19 70.93 600.95 71.12 600.65 71.14 600 71.35 599.51 71.46 599.45 71.64 598.93 71.73 598.71 71.83 598.73 72.24 598.16 72.47 597.82 72.44 597.68 72.65 597.3 72.78 597.06 72.63 596.91 72.83 596.47 72.75 595.94 72.76 595.49 72.83 595.37 72.98 595.32 73.26 594.92 73.46 594.54 73.46 593.57 73.64 593.37 73.35 593.01 73.26 592.75 73.11 592.43 72.75 591.99 72.48 592.25 72.29 591.99 72.12 591.03 72.72 590.58 72.72 590.49 72.61 589.24 72.44 588.88 72.35 588.42 71.84 588.39 71.47 588.06 71.41 587.55 71.16 586.92 71.08 586.77 70.97 586.59 70.46 586.21 70.11 586.08 69.89 585.57 69.64 584.78 69.41 584.34 69.42 584.03 69.62 583.45 69.63 583.12 69.9 582.86 70 582.49 69.97 581.98 70.03 581.62 69.91 580.58 69.97 580.41 69.49 579.83 69.51 579.72 69.36 579.83 68.97 579.47 68.97 579.28 68.77 578.78 68.78 578.68 68.9 578.33 68.99 578.27 69.51 577.82 69.59 577.3 69.89 576.16 68.3 575.45 67.47 573.95 65.76 572.59 64.36 572.24 64.12 569.74 62.87 569.4 62.49 569.92 62.42 570.22 62.03 570.15 61.78 569.57 62 569.06 62.05 568.2 62.37 567.71 62.51 567.22 62.54 567.09 62.81 566.37 63.13 565.88 63.13 565.04 63.53 564.93 63.84 564.19 63.6 563.72 63.59 563.24 63.68 562.86 63.92 562.62 63.84 562.45 63.63 562.49 63.39 562.7 63.16 563.32 62.9 563.4 62.65 563.19 62.59 562.66 62.83 562.08 62.79 561.63 62.51 560.98 62.45 560.9 62.75 560.5 62.82 560.46 62.47 560.2 62.14 559.83 62.06 559.61 62.29 559.35 62.25 558.88 62.35 558.13 62.39 557.59 62.27 557.5 62.17 557.72 61.94 557.79 61.41 557.18 60.24 556.8 59.85 556.24 59.9 555.99 60.06 555.57 60.17 555.13 60.09 554.59 59.85 554.04 59.74 552.9 59.66 552.31 59.84 551.9 60.07 551.19 60.17 551.27 60.41 550.9 60.62 550.36 60.65 550.05 60.81 549.09 60.91 548.73 61 546.79 61.26 546.2 61.28 545.65 61.37 545.14 61.36 544.61 61.6 544.43 61.94 543.92 61.86 543.31 61.96 542.89 61.89 542.31 61.97 541.88 62.15 541.25 62.2 540.57 62.34 540.07 62.36 539.81 62.51 538.84 62.59 538.54 62.71 537.52 62.74 537.28 62.86 535.96 62.63 535.54 62.82 535.47 63.29 535.17 63.58 535.77 63.74 536.13 63.66 536.4 63.8 536.11 63.95 535.72 63.97 535.58 64.21 535.66 64.32 536.18 64.43 536.68 64.45 536.92 64.57 537.47 64.72 537.62 64.95 537.38 65.08 536.1 64.97 535.32 65.02 534.78 65.53 534.82 65.91 535.17 66.3 535.08 66.55 534.49 66.84 533.94 66.9 533.52 67.12 533.15 67.23 533.15 67.42 533.62 67.54 533.86 67.68 534.03 67.95 535.16 68.2 535.25 68.3 536.02 68.41 536.45 68.67 536.51 68.88 536.35 69.09 536.08 69.7 535.72 69.89 535.09 70.07 534.41 70.14 533.64 70.05 533.25 69.76 532.9 69.84 532.58 70.32 531.94 70.52 531.79 70.23 530.53 70.07 529.78 69.46 529.36 69.25 528.67 69.24 528.21 69.19 527.8 69.56 527.33 69.64 526.75 69.31 526.38 69.25 526.02 69.29 525.51 69.44 525.22 69.35 524.45 69.74 524.24 70.03 523.68 70.28 523.12 70.28 522.35 69.96 521.95 69.68 521.31 69.4 520.91 69.51 521.04 69.66 521.14 70.15 521.02 70.39 520.75 70.32 520.63 69.88 520.36 69.58 519.79 69.14 519.01 68.84 518.67 68.51 518.23 68.32 517.27 68.36 516.9 68.29 Z M 638.73 9.25 637.19 9.33 636.26 9.17 638.31 9.12 638.73 9.25 Z M 628.06 6.76 627.09 7.6 628.21 7.2 629.81 6.99 630.37 7.05 630.74 7.3 631.43 7.38 631.54 7.59 633.07 7.73 633.51 8.23 633.44 8.44 632.38 8.76 631.19 8.8 629.91 8.97 628.32 8.98 626.5 9.09 624.34 9.12 623.97 9.23 621.85 9.6 620.56 9.6 620.09 9.46 620.66 9.15 621.71 8.79 622.24 8.27 622.3 8.04 623.04 7.78 623.61 7.81 623.66 7.37 624.32 6.87 625.09 6.76 625.19 6.55 626.5 6.5 627 6.37 627.85 6.46 628.53 6.66 628.06 6.76 Z M 569.02 5.88 571.48 6.09 569.91 6.23 568.81 6.04 569.02 5.88 Z M 605.45 5.81 604.27 5.81 602 5.32 601.87 5.15 602.66 5 604.32 5.01 605.25 5.12 607.93 5.32 607.49 5.52 605.45 5.81 Z M 616.51 4.76 617.27 5.06 616.7 5.34 618.02 5.37 618.56 4.99 620.1 5.07 621.06 5.29 621.8 5.6 621.18 5.93 620.96 6.61 619.82 6.65 620.6 7.04 621.26 7.11 621.51 7.41 620.42 7.69 618.14 7.8 616.25 7.71 613.57 7.29 612.35 7.32 611.76 7.11 610.88 7.22 609.81 7.04 608.85 6.43 606.31 6.23 607.05 5.93 608.03 5.77 608.94 5.49 609.14 5.24 610.56 4.9 613.72 4.88 615.28 4.77 616.51 4.76 Z M 577.39 3.23 575.34 3.31 575.6 2.98 576.9 2.95 578.28 3.05 577.39 3.23 Z M 602.97 2.58 602.21 2.75 599.45 2.64 599.65 2.42 602.78 2.49 602.97 2.58 Z M 613.97 2.73 614.47 2.99 616.86 3.34 616.92 3.56 615.51 3.66 615.07 3.92 615.57 4.31 615.41 4.58 612.48 4.72 609.62 4.83 608.08 5.09 604.38 4.71 603.13 4.51 602.88 4.32 603.7 4.05 605.21 3.93 606.73 3.36 605.25 3.38 606.29 2.92 609.72 2.64 610.72 2.48 610.94 2.29 612.36 2.27 613.97 2.73 Z"/>
<path d="M 479.39 37.96 479.45 38.36 478.82 38.15 478.76 38.03 479.39 37.96 Z M 511.42 29.08 510.66 29.38 510 29.8 509.02 29.98 507.88 30.08 507.37 29.93 507.02 29.4 507.11 28.9 507.8 28.53 508.51 28.36 509.12 28.36 511.2 28.92 511.42 29.08 Z M 547.11 29.58 547.11 30.76 546.27 32.67 545.65 33.44 544.28 34.05 539.83 36.27 538.22 37.04 537 37.19 536.31 37.19 533.7 38.42 532.32 39.42 531.4 41.48 531.1 42.71 530.94 44.7 530.41 46.62 530.33 49.07 530.56 53.51 530.71 55.58 531.25 58.49 531.56 59.87 531.48 61.18 531.33 62.56 530.79 64.62 530.64 65.93 529.79 68.07 527.8 68.61 526.27 68.53 524.81 68.15 522.44 67.77 519.45 67.84 517.15 67.84 516.9 68.29 516.37 68.26 516 67.88 515.75 67.82 515.28 67.9 514.4 68.32 513.81 68.34 513.65 68.08 513.41 67.96 512.59 67.78 512.51 67.9 511.38 68.75 510.68 68.96 510.44 69.1 509.72 69.21 509.56 69.33 509.33 69.72 508.19 70.28 507.85 70.24 507.95 70.83 508.27 71.58 508.08 71.77 507.36 71.99 506.9 71.76 506.07 70.98 505.75 70.77 505.3 70.72 504.91 71 504.84 71.48 504.73 71.61 504.17 71.94 503.94 72.28 503.74 73.01 504.22 73.38 504.22 73.61 503.86 73.89 503.52 74.26 503.32 74.77 503.43 75.13 503.86 75.33 504.19 75.41 504.45 75.76 504.39 76.16 504.63 76.5 504.83 76.62 505.25 76.48 506.64 76.61 507.62 77.55 508.53 78.76 508.51 78.87 508.12 78.9 507.74 78.78 507.55 78.85 507.53 79.04 507.75 79.22 509.03 79.7 508.79 80.06 508.2 80.25 507.92 80.29 507.93 80.72 507.48 80.62 506.97 80.97 506.75 81.06 506.02 81.22 505.74 81.17 505.35 81.36 505.27 81.68 505.1 81.76 505.05 82.04 504.67 82.64 504.44 82.9 504.19 82.97 504.09 83.18 503.64 83.45 503.53 83.79 503.64 83.98 504.24 84.15 504.69 84.48 504.98 84.92 505.13 85.4 505.21 85.9 505.43 85.28 505.58 85.34 505.31 86 505.27 86.28 505.32 86.64 505.21 87.05 505.59 87.34 505.76 87.55 505.8 87.83 506.01 87.98 506.58 88.56 506.91 88.94 507.25 89.45 507.67 89.69 507.27 90.23 507.06 90.35 506.52 90.54 506.09 91.09 505.94 91.12 505.34 91.05 504.76 90.86 504.64 90.55 504.21 90.26 503.63 89.76 503.19 89.76 502.92 89.59 502.44 89.37 501.86 89.27 501.63 89.1 501.17 88.89 501.36 88.29 501 88.16 500.51 88.17 500.21 87.91 499.46 87.67 499.24 87.98 498.96 87.71 498.65 87.68 498.26 87.78 497.44 88.09 497.15 88.08 496.95 87.98 497.05 87.69 496.55 87.47 496.09 87.36 495.51 87.15 495.3 86.92 494.79 86.75 494.35 86.78 494.03 86.63 493.72 86.62 493.21 86.71 492.17 86.64 491.68 86.39 491.07 86.3 490.1 85.94 489.82 85.99 489 85.86 488.85 85.9 488.62 86.2 488.39 86.08 487.6 85.51 487.18 85.14 485.82 84.27 484.92 84.08 484.64 83.98 483.9 83.36 483.58 83.44 483.29 83.42 482.93 83.28 482.47 82.76 481.89 82.54 481.24 82.41 481.17 82.28 481.89 82.05 481.4 81.87 481.72 81.75 482.25 82.02 482.6 82 483.45 81.86 483.51 81.61 483.37 81.44 483.5 81.24 483.88 80.92 484.09 80.47 484.26 80.37 484.53 80.47 484.64 80.27 485.32 80.28 484.93 79.94 484.41 79.6 484.04 79.58 483.81 79.3 483.72 79.07 484.16 79.11 484.74 78.92 485.34 79.01 485.21 78.67 486.01 78.47 486.73 78.21 487.05 78.16 487.1 78.03 486.88 77.66 486.5 77.66 486.29 77.87 485.71 77.94 485.51 77.73 485.31 77.87 484.71 78.06 484.68 77.87 484.86 77.65 484.68 77.55 484.8 77.35 484.87 77.02 485.05 76.91 485.37 76.88 485.83 76.68 486.06 76.4 486.23 76.36 487.32 76.41 488.08 76.39 488.41 75.67 488.58 75.52 488.37 75.4 488.42 75.24 488.3 74.84 487.88 74.73 488.01 74.4 488.21 74.25 488.45 74.28 488.64 74.16 488.12 74.02 487.97 73.81 488.42 73.68 488.82 73.38 488.95 73.01 488.79 72.87 488.88 72.62 488.73 72.5 488.18 72.56 487.48 72.21 487.12 72.18 486.84 71.93 486.27 72 485.67 71.71 485.23 71.69 484.81 71.49 484.59 71.71 484.34 71.79 483.58 71.37 483.31 70.96 482.95 70.7 482.78 70.68 482.31 70.83 481.48 70.96 481.17 71.15 480.91 70.99 480.48 70.99 480.06 70.7 479.56 70.64 479.08 70.84 478.5 70.41 478.56 70 478.43 69.84 478.27 69.3 477.93 69.26 477.73 68.94 476.95 69.01 476.46 68.87 475.89 68.85 475.99 68.7 475.82 68.46 475.81 68.17 475.64 67.89 476.21 67.81 476.25 67.66 475.62 67.22 475.4 66.83 475.19 66.62 474.78 66.41 473.48 66.42 472.93 66.61 472.72 66.62 472.06 66.49 471.74 66.57 471.56 66.92 471.2 67.06 470.88 67.07 470.45 66.96 470 66.48 470.01 66 469.88 65.77 469.9 65.41 469.29 64.92 469.64 64.53 470.2 64.51 470.6 64.72 471.25 64.76 471.88 64.49 471.97 64.36 472.49 64.21 472.45 63.97 471.97 63.75 471.93 63.42 471.38 63.23 470.39 63.16 470.57 62.74 470.47 62.62 469.61 62.31 469.13 61.74 468.88 61.65 468.99 61.31 468.27 61.01 468.34 60.72 468.67 60.41 468.63 60.22 468.31 59.91 468.5 59.65 468.51 59.26 467.89 59.05 467.51 58.78 467.02 58.65 466.36 58.65 465.35 59.01 465.07 58.79 465.11 58.45 464.48 58.26 463.83 58.44 463.32 58.11 462.7 58.19 462.39 57.99 462.51 57.73 462.3 57.1 462.08 56.98 461.64 56.39 461.27 56.44 461.44 55.97 461.66 55.72 461.62 55.39 461.04 55.14 460.98 54.97 460.63 54.92 460.74 54.62 461.05 54.32 461.52 54.23 460.93 53.28 461.03 52.91 460.8 52.25 460.88 52.01 461.53 51.54 461.84 51.04 462.4 50.83 462.09 50.59 462.21 50.43 462.1 50.05 462.36 49.92 462.81 50.13 463.07 49.86 463.72 49.87 464.17 49.82 464.61 49.44 465.77 49.54 466.77 49.72 466.88 49.54 466.45 49.39 465.88 49.01 465.1 49.05 464.44 49.02 463.87 48.71 463.49 48.61 463.51 48.09 463.2 47.94 462.46 48.18 461.62 48.26 462.97 47.46 464.84 46.59 465.81 46.02 467.75 44.73 468.57 44.29 469.35 43.75 469.9 43.05 469.85 42.89 469.12 42.33 468.66 42.13 467.43 41.68 466.62 41.27 466.51 41.14 466.97 41.01 467.62 40.53 467.58 40.05 466.74 39.77 466.47 39.34 466.77 39.15 466.66 38.88 466.02 38.79 465.62 38.43 465.66 38.27 466.08 38.12 466.08 37.91 465.68 37.86 465.87 37.61 465.9 37.31 466.1 37.1 465.87 36.98 466.71 36.85 466.69 36.62 466.29 35.94 465.77 35.53 465.31 34.96 464.49 34.26 464.48 33.99 465.55 33.21 466.37 32.71 466.45 32.4 465.45 31.87 465.05 31.57 463.59 31.29 463.11 30.63 463.13 30.52 463.73 30 463.32 29.65 464.55 29.38 465.14 28.83 466.49 28.62 466.79 28.46 467 28.09 467.86 28.31 468.41 28.3 468.54 28.15 468.43 27.76 469.72 27.96 470.19 27.9 470.46 27.69 471 27.64 470.9 27.38 472.19 27.71 473.02 27.83 473.14 28.11 472.61 28.15 471.33 28 471.14 28.09 471.67 28.26 471.77 28.43 472.34 28.41 473.72 28.55 474.16 28.54 473.88 29.16 474.12 29.2 474.67 28.81 475.88 28.8 477.28 28.99 477.97 28.98 478.23 28.88 479.49 29.07 481.17 29.49 483.64 30.18 485.03 30.79 485.19 30.92 486.08 30.99 487.71 31.55 488.75 31.68 489.51 32.08 490.81 32.35 491.18 33.34 491.68 33.46 491.49 34.12 491.3 34.31 489.82 35.15 488.9 35.48 487.09 35.85 485.68 35.99 485.11 36 483.41 35.86 482.67 35.64 481.51 35.49 480.63 35.47 478.72 35.27 478.39 35.19 477.19 34.79 476.44 34.92 476.37 34.7 475.69 34.58 475.13 34.58 474.47 34.4 474.22 34.45 473.48 34.27 472.81 33.88 473 33.73 471.82 33.59 471.38 33.68 472.04 33.92 471.96 34.11 472.99 34.58 473.55 34.64 473.63 34.96 474.6 35.16 474.41 35.43 475.62 35.64 476.25 35.86 477.11 36.44 477.09 36.66 476.73 37.23 476.27 37.48 476.85 37.99 477.15 38.39 477.29 39.34 477.66 39.6 478.54 39.81 479.02 39.74 480.12 40.16 480.61 40.57 481.96 40.78 483 40.99 483.43 40.81 484.16 40.69 484.39 40.52 484.13 39.87 483.66 39.7 482.97 39.75 482.42 39.67 480.97 38.7 480.98 38.5 481.54 38.39 481.76 37.98 482.33 37.93 483.19 38.12 484.25 38.63 485.15 38.68 485.43 38.82 486.57 38.99 487.71 39.31 488.13 39.3 488.33 39.05 488.79 38.87 489.65 38.85 489.29 38.36 488.98 38.22 488.22 37.58 488.11 37.37 488.26 37.03 489.39 36.69 490.2 36.22 491.05 36.1 491.94 35.87 492.61 35.57 493.29 35.11 493.57 34.99 494.43 35.21 495.83 35.22 496.54 35.43 496.76 35.59 496.54 35.76 497.19 35.83 497.76 36.12 497.86 35.89 497.75 35.62 498.02 35.24 498.62 34.65 498.43 33.92 498.18 33.71 497.7 33.56 497.21 33.51 497.05 33.36 497.22 32.95 497.61 32.44 498.03 31.72 497.91 30.99 496.21 30.36 496.36 30.2 497.64 30.49 497.92 30.51 499.92 30.43 500.9 30.5 501.73 30.65 502.32 31.06 503.48 31.78 503.5 32.05 502.35 32.11 500.92 32.25 499.62 32.87 499.62 33.15 501 33.52 501.42 33.95 501.94 34.25 502.96 34.33 503.5 34.31 505.28 34.08 505.76 33.83 505.89 33.32 506.2 32.92 506.12 32.63 508.35 32.31 507.94 31.99 508.96 32 510.68 31.57 511.35 31.32 512.69 30.93 513.8 30.82 514.42 30.65 515.25 30.52 515.9 30.69 515.67 30.88 515.98 30.96 516.75 30.76 516.49 30.4 516.03 30.36 516.78 30.09 519.26 29.5 519.63 29.84 519.17 30.3 519.52 30.52 519.55 30.74 518.24 30.95 518.06 31.12 519.63 31.21 519.92 31.14 520.94 31.1 521.29 31.3 521.61 31.26 521.75 30.88 522.84 30.45 523.41 30.43 524.23 30.27 525.51 30.34 526.63 30.48 527.33 30.29 528.95 29.74 530.6 29.49 531.6 30.07 531.03 30.34 531 30.73 532.12 30.93 532.77 30.77 532.87 30.58 532.7 30.37 532.77 30.14 533.36 30.16 534.08 30.09 534.41 29.97 535.07 29.52 534.9 29.17 534.47 29.25 533.75 28.48 533.38 28.18 533.61 28.05 534.24 27.96 534.8 27.67 535.25 27.61 536.92 27.8 538.83 27.85 540.45 28 542.29 28.31 543.18 28.53 544.15 28.9 545.71 29.2 545.88 29.32 547.11 29.58 Z M 534 27.42 533.98 27.88 533.48 27.97 532.59 27.95 532.07 27.86 531.9 27.57 531.1 27.45 530.68 27.51 530.07 27.16 529.62 26.69 530.33 26.32 530.8 26.25 531.47 26.48 532.19 26.84 532.9 27.04 534 27.42 Z M 517.27 24.25 517.94 24.71 517.59 24.99 517.12 24.87 516.48 24.51 515.82 24.43 515.92 24.27 516.99 24.17 517.27 24.25 Z M 522.63 19.94 524.44 20.06 525.09 20.18 524.55 20.55 524.51 20.96 524.32 21.09 523.52 21.14 523.28 21.52 522.89 21.57 522.71 21.81 522.8 22.15 523.07 22.35 522.58 22.99 522.96 23.13 523.28 23.53 524.23 24.29 525.14 24.82 526.12 25.22 527.42 25.52 527.74 25.66 526.67 25.97 525.57 25.84 525.26 25.66 524.71 25.69 525.38 25.96 525.1 26.03 524.45 25.82 523.68 25.91 523.44 25.74 522.44 25.8 521.03 25.77 520.44 25.63 519.08 25.47 518.84 25.25 518.79 24.94 519.38 24.9 519.45 24.63 518.39 24.31 518.19 24.18 518.29 23.86 517.28 23.96 516.2 23.87 515.67 23.97 514.85 23.97 514.36 23.79 514.02 23.34 514.03 22.99 514.34 22.69 515.01 22.5 515.83 22.56 516.65 22.18 517.3 21.36 516.44 21.21 517.07 20.9 518.03 20.69 517.92 20.3 518.28 20.13 519.15 19.98 519.9 20.01 521.48 19.77 522.63 19.94 Z M 550.21 13.45 548.8 13.74 546.93 14.01 542.45 14.6 541.11 14.71 537.58 15.25 536.58 15.48 536.01 15.5 534.45 16.07 533.53 16.26 534.11 16.4 533.49 16.64 532.44 16.76 532.45 17 532.1 17.05 531.32 16.87 531.01 17.29 530.62 17.38 529.75 17.3 530.04 17.77 529.55 18.12 528.05 18.38 528.28 18.74 528.03 18.92 527.38 18.97 527.55 19.17 526.65 19.51 526.27 19.81 525.09 19.97 524.21 19.86 523.13 19.84 521.93 19.62 521.4 19.63 520.36 19.85 519.99 19.56 520.15 19.43 519.34 19.08 519.17 18.93 520.56 18.55 521.12 18.5 521.97 18 522.67 17.48 524.31 17.34 523.38 17.18 523.21 17.02 523.94 16.65 525.24 16.29 524.89 16.16 524.13 16.19 523.71 15.92 524.21 15.76 525.4 15.98 526.08 15.65 525.93 15.47 526.54 15.34 527.7 15.44 528.09 15.07 528.77 14.88 528.7 14.72 529.49 14.6 530.52 14.3 533.08 14.01 533.62 13.76 535.34 13.71 535.29 13.46 535.66 13.35 536.96 13.33 538.48 13.47 539.59 13.45 540.82 13.29 542.89 13.14 543.97 12.9 544.52 12.87 546 12.62 546.44 12.32 548.14 11.93 549.7 11.74 550.77 11.78 551.81 11.91 552.67 12.23 552.73 12.71 551.1 13.35 550.21 13.45 Z M 513.96 5.23 511.84 5.28 511.04 5.15 512.91 4.9 513.61 5 513.96 5.23 Z M 532.31 5.21 531.52 5.28 530.6 5.14 530.66 5.02 531.99 4.85 532.8 5.12 532.31 5.21 Z M 510.95 4.95 509.85 4.76 510.58 4.6 511.54 4.73 510.95 4.95 Z M 526.52 4.33 526.53 4.9 524.58 4.94 523.52 4.88 524.16 4.66 524.19 4.35 526.52 4.33 Z M 518.64 4.7 517.16 4.73 515.74 4.53 517.89 4.2 519.37 4.52 518.64 4.7 Z M 528.47 4.84 527.22 4.8 526.97 4.68 526.52 4.02 529.63 4.08 531.35 4.35 529.45 4.4 529.13 4.66 528.47 4.84 Z M 520.62 4.06 519.28 4.05 519.43 3.77 520.6 3.91 520.62 4.06 Z M 505.16 3.22 507.39 3.32 507.92 3.52 507.79 3.72 506.5 3.63 505.51 3.47 504.86 3.77 503.47 3.87 503.11 4.06 502.28 4.12 500.08 3.78 500.03 3.66 503.74 3.44 505.16 3.22 Z M 537.81 3.26 537.6 3.74 536.73 3.81 535.33 4.18 533.62 4.01 532.22 4.15 531.46 3.95 531.64 3.53 532.1 3.3 533.21 3.23 534.07 3.33 536.54 3.13 537.81 3.26 Z M 511.45 3.05 512.61 3.08 514.61 3.59 512.96 3.91 510.49 4.01 509.92 4.28 508.39 4.29 507.9 4.45 508.64 4.65 507.43 4.87 505.59 4.86 506.35 4.64 505.17 4.6 504.16 4.7 503.4 4.44 505.64 4 507.29 3.85 507.79 3.98 509.03 3.87 509.16 3.29 511.45 3.05 Z M 535.53 3 534.83 3.05 533.13 2.93 534.3 2.7 536.23 2.66 536.47 2.78 535.53 3 Z M 521.29 2.64 522.96 2.85 524.51 2.83 527.89 3.35 525.94 3.64 523.5 3.7 522.18 3.44 521.18 3.47 519.85 3.31 520.51 3.11 521.29 2.64 Z M 529.95 2.8 530.57 3.12 530.47 3.38 528.43 3.35 528.01 3.14 527.25 3.08 526.82 2.86 527.8 2.82 528.68 2.63 529.95 2.8 Z M 540.48 3.56 539.65 3.53 538.59 3.29 539.91 2.97 542.08 2.9 542.55 2.51 543.64 2.46 544.93 2.77 545.05 3.05 544.08 3.29 543.08 3.44 540.48 3.56 Z M 528.15 1.68 529.53 1.86 529.39 2.04 528.25 2.08 528.6 2.33 527.35 2.59 525.96 2.37 523.51 2.48 522.95 2.2 524.48 2.22 526.55 1.69 528.15 1.68 Z M 541.09 1.54 539.4 1.54 539.2 1.3 541.22 1.37 541.09 1.54 Z M 529.22 1.31 528.87 1.06 531.36 1 531.57 1.21 529.22 1.31 Z"/>
<path d="M 446.46 59.91 445.65 60.57 446.3 60.73 446.97 60.67 447.07 59.94 447.41 59.92 447.78 60.09 448.49 60.3 448.93 60.39 450.02 60.4 450.16 60.59 450.61 60.88 450.34 61.34 450.27 61.65 450.39 61.97 449.14 61.95 446.86 61.87 444.79 61.81 443.54 61.75 444.02 61.34 444.21 61.08 444.28 60.7 444.57 60.62 445.21 60.63 445.49 60.54 446.33 59.89 446.46 59.91 Z"/>
</g>
</svg>