<?xml version="1.0" encoding="utf-8"?>
<!-- Generator: Adobe Illustrator 23.1.0, SVG Export Plug-In . SVG Version: 6.00 Build 0)  -->
<svg version="1.1" id="Слой_1" xmlns="http://www.w3.org/2000/svg" xmlns:xlink="http://www.w3.org/1999/xlink" x="0px" y="0px"
	 viewBox="0 0 324.45 73.53" style="enable-background:new 0 0 324.45 73.53;" xml:space="preserve">
<style type="text/css">
	.st0{fill:#005999;}
	.st1{fill:#D10E48;}
	.st2{fill:#3C3C3B;}
	.st3{fill:#26231E;}
	.st4{clip-path:url(#SVGID_2_);fill:#B3DCF6;}
	.st5{clip-path:url(#SVGID_2_);fill:#D8EEFC;}
	.st6{clip-path:url(#SVGID_2_);fill:#0C599B;}
	.st7{clip-path:url(#SVGID_2_);fill:#D20E43;}
	.st8{clip-path:url(#SVGID_2_);fill:#E4214B;}
	.st9{clip-path:url(#SVGID_2_);}
	.st10{clip-path:url(#SVGID_4_);fill:#020203;}
	.st11{fill:#020203;}
	.st12{fill:#FFFFFF;}
	.st13{fill:#FFFFFF;stroke:#000000;stroke-width:0.5;stroke-miterlimit:10;}
	.st14{clip-path:url(#SVGID_6_);fill:#FFFFFF;}
	.st15{fill:none;stroke:#FFFFFF;stroke-width:0.25;stroke-miterlimit:10;}
	.st16{fill:#020203;stroke:#FFFFFF;stroke-width:0.5;stroke-miterlimit:10;}
</style>
<g>
	<path class="st0" d="M70.36,21.98C62.9,11,51.82,7.42,51.17,7.19c0.6,0.33,10.33,6.6,14.27,17.35C69.37,35.3,66,46.32,65.52,47.58
		c-0.74,2.99,0.31,6.36,3.12,7.77c2.66,1.36,6.55-0.71,7.65-5.02C77.15,48.49,77.83,32.96,70.36,21.98z"/>
	<path class="st1" d="M22.77,26.68c-5.79,11.95-3.36,23.33-3.23,24.01C19.52,50,20.1,38.44,27.45,29.67
		c7.35-8.78,18.58-11.36,19.91-11.57c2.96-0.85,5.35-3.44,5.18-6.58c-0.15-2.98-3.88-5.32-8.17-4.12
		C42.35,7.56,28.56,14.73,22.77,26.68z"/>
	<path class="st1" d="M50.66,65.56c13.24-0.96,21.89-8.76,22.41-9.21c-0.59,0.36-10.89,5.64-22.16,3.66
		c-11.28-1.98-19.13-10.41-19.98-11.46c-2.21-2.13-5.66-2.91-8.29-1.19c-2.51,1.62-2.66,6.02,0.51,9.13
		C24.31,58.16,37.42,66.52,50.66,65.56z"/>
	<path class="st2" d="M72.66,53.09l-0.02,0.01L72.66,53.09z"/>
</g>
<g>
	<path class="st12" d="M246.62,22.31c-4.22,0-8.45,1.6-11.77,4.83c-3.02,3.03-4.9,7.22-4.9,11.8v5.94c0,3.62,1.5,8.73,4.91,11.81
		c2.92,3.21,7.31,4.91,11.76,4.9c4.28-0.01,8.62-1.59,11.78-4.91c3.02-3.03,4.89-7.21,4.89-11.81v-5.94c0-5.59-2.59-9.52-4.91-11.82
		C255.13,23.93,250.89,22.31,246.62,22.31 M257.06,44.89c0,2.88-1.17,5.5-3.06,7.4c-2.04,2.05-4.71,3.07-7.38,3.07
		c-2.66,0-5.33-1.02-7.37-3.07c-1.89-1.9-3.06-4.52-3.06-7.4v-5.94c-0.03-3.25,1.34-5.55,3.07-7.4c2.04-2.05,4.7-3.07,7.36-3.07
		c2.67,0,5.33,1.03,7.37,3.07c1.89,1.9,3.06,4.52,3.06,7.4V44.89z"/>
	<path class="st12" d="M298.29,27.13c-8.47-7.88-18.8-4.8-23.54,0.01c-3.02,3.03-4.89,7.21-4.89,11.8v21.5
		c2.05-0.4,4.18-0.41,6.24-0.02V38.95c0-2.88,1.17-5.5,3.06-7.4c4.09-4.09,10.66-4.09,14.75,0c1.89,1.9,3.06,4.52,3.06,7.4v21.53
		c2.05-0.42,4.18-0.45,6.24-0.08V38.95C303.19,34.7,301.4,30.06,298.29,27.13"/>
	<path class="st12" d="M193.27,22.28c-4.34,0-8.68,1.66-11.97,4.96c-2.86,3.09-4.8,7.65-4.7,11.72v7.04
		c2.06-0.38,4.17-0.37,6.24,0.04v-7.08c0-2.88,1.17-5.5,3.06-7.4c2.04-2.05,4.71-3.07,7.37-3.07c2.66,0,5.33,1.02,7.37,3.07
		c1.89,1.9,3.06,4.52,3.06,7.4v21.53c2.05-0.42,4.17-0.45,6.24-0.08V38.95c0-5.06-2.21-9.09-4.91-11.82
		C201.79,23.88,197.53,22.28,193.27,22.28"/>
	<path class="st12" d="M217.15,11.09v49.43c2.04-0.45,4.17-0.5,6.24-0.16V11.09C221.34,11.48,219.2,11.48,217.15,11.09"/>
	<path class="st12" d="M190.15,45.89v14.59c1.02-0.23,2.07-0.35,3.12-0.38c1.04-0.03,2.09,0.05,3.12,0.22V45.89
		c-1.03,0.2-2.07,0.3-3.12,0.3C192.22,46.18,191.17,46.09,190.15,45.89"/>
	<path class="st12" d="M163.14,11.09v7.41c2.03,0.61,4.22,0.58,6.24-0.1v-7.31C167.33,11.48,165.19,11.48,163.14,11.09"/>
	<path class="st12" d="M163.14,23.82v36.6c2.06-0.39,4.18-0.38,6.24,0.02V23.76C167.33,24.18,165.2,24.2,163.14,23.82"/>
	<path class="st12" d="M149.6,23.8v21.09c0,2.88-1.17,5.5-3.06,7.4c-4.09,4.1-10.66,4.1-14.75,0c-1.89-1.9-3.06-4.52-3.06-7.4V23.8
		c-2.05,0.39-4.18,0.39-6.24,0v21.1c0,2.88-1.17,5.5-3.06,7.4c-4.09,4.09-10.66,4.09-14.75,0c-1.89-1.9-3.06-4.52-3.06-7.4v-21
		c-2.07,0.32-4.2,0.25-6.24-0.22v21.22c0,4.45,1.77,8.67,4.91,11.82c7.41,7.44,19.4,6.18,25.32-2.11c5.91,8.27,18.18,9.52,25.33,2.1
		c3.02-3.03,4.89-7.21,4.89-11.81v-21.1C153.79,24.19,151.65,24.19,149.6,23.8"/>
</g>
</svg>
